<svg width="49" height="48" viewBox="0 0 49 48" fill="none" xmlns="http://www.w3.org/2000/svg">
<path d="M36.8125 13.1718H12.4375C11.9189 13.1718 11.5 13.5907 11.5 14.1093V32.8593C11.5 33.3778 11.9189 33.7968 12.4375 33.7968H36.8125C37.3311 33.7968 37.75 33.3778 37.75 32.8593V14.1093C37.75 13.5907 37.3311 13.1718 36.8125 13.1718ZM35.6406 16.4178V31.6874H13.6094V16.4178L12.8008 15.788L13.9521 14.3085L15.2061 15.2841H34.0469L35.3008 14.3085L36.4521 15.788L35.6406 16.4178ZM34.0469 15.2811L24.625 22.6053L15.2031 15.2811L13.9492 14.3055L12.7979 15.785L13.6064 16.4149L23.6143 24.1962C23.9021 24.4198 24.2561 24.5411 24.6206 24.5411C24.9851 24.5411 25.3391 24.4198 25.627 24.1962L35.6406 16.4178L36.4492 15.788L35.2979 14.3085L34.0469 15.2811Z" fill="#2091F9"/>
</svg>
