<svg width="48" height="48" viewBox="0 0 48 48" fill="none" xmlns="http://www.w3.org/2000/svg">
<g clip-path="url(#clip0_348_613)">
<path d="M23.9998 27.1667C27.4927 27.1667 30.3332 24.3262 30.3332 20.8333C30.3332 17.3405 27.4927 14.5 23.9998 14.5C20.507 14.5 17.6665 17.3405 17.6665 20.8333C17.6665 24.3262 20.507 27.1667 23.9998 27.1667ZM23.9998 17.6667C25.7463 17.6667 27.1665 19.0869 27.1665 20.8333C27.1665 22.5797 25.7463 24 23.9998 24C22.2534 24 20.8332 22.5797 20.8332 20.8333C20.8332 19.0869 22.2534 17.6667 23.9998 17.6667Z" fill="#2091F9"/>
<path d="M22.7487 39.5389C23.0167 39.7302 23.3378 39.8331 23.6671 39.8331C23.9963 39.8331 24.3174 39.7302 24.5854 39.5389C25.0667 39.1984 36.3796 31.03 36.3337 20.8334C36.3337 13.8493 30.6511 8.16669 23.6671 8.16669C16.683 8.16669 11.0004 13.8493 11.0004 20.8254C10.9545 31.03 22.2674 39.1984 22.7487 39.5389ZM23.6671 11.3334C28.9063 11.3334 33.1671 15.5941 33.1671 20.8413C33.2003 27.8681 26.2194 34.1777 23.6671 36.2471C21.1163 34.1761 14.1338 27.8649 14.1671 20.8334C14.1671 15.5941 18.4278 11.3334 23.6671 11.3334Z" fill="#2091F9"/>
</g>
<defs>
<clipPath id="clip0_348_613">
<rect width="26" height="32" fill="white" transform="translate(11 8)"/>
</clipPath>
</defs>
</svg>
