<svg viewBox="0 0 20 20" xmlns="http://www.w3.org/2000/svg">
  <path d="M6.87508 2.0835C5.38677 2.0835 4.16675 3.30352 4.16675 4.79183V17.2918C4.16678 17.4069 4.19856 17.5197 4.2586 17.6178C4.31863 17.716 4.40458 17.7956 4.50698 17.848C4.60939 17.9005 4.72427 17.9236 4.83899 17.9149C4.9537 17.9062 5.0638 17.8661 5.15715 17.7988L10.0001 14.3117L14.843 17.7988C14.9364 17.8661 15.0465 17.9062 15.1612 17.9149C15.2759 17.9236 15.3908 17.9005 15.4932 17.848C15.5956 17.7956 15.6815 17.716 15.7416 17.6178C15.8016 17.5197 15.8334 17.4069 15.8334 17.2918V4.79183C15.8334 3.30352 14.6134 2.0835 13.1251 2.0835H6.87508ZM6.87508 3.3335H13.1251C13.9376 3.3335 14.5834 3.9793 14.5834 4.79183V16.0719L10.3655 13.0348C10.2591 12.9582 10.1312 12.9169 10.0001 12.9169C9.86893 12.9169 9.7411 12.9582 9.63469 13.0348L5.41675 16.0719V4.79183C5.41675 3.9793 6.06256 3.3335 6.87508 3.3335Z"/>
</svg>
