<svg viewBox="0 0 20 20" xmlns="http://www.w3.org/2000/svg">
  <path d="M2.29162 3.75006C2.2088 3.74889 2.12657 3.76419 2.04971 3.79508C1.97286 3.82596 1.90291 3.87181 1.84393 3.92996C1.78495 3.98812 1.73811 4.05741 1.70614 4.13382C1.67418 4.21023 1.65771 4.29223 1.65771 4.37506C1.65771 4.45789 1.67418 4.53989 1.70614 4.6163C1.73811 4.69271 1.78495 4.76201 1.84393 4.82016C1.90291 4.87832 1.97286 4.92417 2.04971 4.95505C2.12657 4.98593 2.2088 5.00123 2.29162 5.00006H17.7083C17.7911 5.00123 17.8733 4.98593 17.9502 4.95505C18.027 4.92417 18.097 4.87832 18.156 4.82016C18.215 4.76201 18.2618 4.69271 18.2938 4.6163C18.3257 4.53989 18.3422 4.45789 18.3422 4.37506C18.3422 4.29223 18.3257 4.21023 18.2938 4.13382C18.2618 4.05741 18.215 3.98812 18.156 3.92996C18.097 3.87181 18.027 3.82596 17.9502 3.79508C17.8733 3.76419 17.7911 3.74889 17.7083 3.75006H2.29162ZM2.29162 9.37506C2.2088 9.37389 2.12657 9.38919 2.04971 9.42007C1.97286 9.45096 1.90291 9.49681 1.84393 9.55496C1.78495 9.61311 1.73811 9.68241 1.70614 9.75882C1.67418 9.83523 1.65771 9.91723 1.65771 10.0001C1.65771 10.0829 1.67418 10.1649 1.70614 10.2413C1.73811 10.3177 1.78495 10.387 1.84393 10.4452C1.90291 10.5033 1.97286 10.5492 2.04971 10.58C2.12657 10.6109 2.2088 10.6262 2.29162 10.6251H17.7083C17.7911 10.6262 17.8733 10.6109 17.9502 10.58C18.027 10.5492 18.097 10.5033 18.156 10.4452C18.215 10.387 18.2618 10.3177 18.2938 10.2413C18.3257 10.1649 18.3422 10.0829 18.3422 10.0001C18.3422 9.91723 18.3257 9.83523 18.2938 9.75882C18.2618 9.68241 18.215 9.61311 18.156 9.55496C18.097 9.49681 18.027 9.45096 17.9502 9.42007C17.8733 9.38919 17.7911 9.37389 17.7083 9.37506H2.29162ZM2.29162 15.0001C2.2088 14.9989 2.12657 15.0142 2.04971 15.0451C1.97286 15.076 1.90291 15.1218 1.84393 15.18C1.78495 15.2381 1.73811 15.3074 1.70614 15.3838C1.67418 15.4602 1.65771 15.5422 1.65771 15.6251C1.65771 15.7079 1.67418 15.7899 1.70614 15.8663C1.73811 15.9427 1.78495 16.012 1.84393 16.0702C1.90291 16.1283 1.97286 16.1742 2.04971 16.205C2.12657 16.2359 2.2088 16.2512 2.29162 16.2501H17.7083C17.7911 16.2512 17.8733 16.2359 17.9502 16.205C18.027 16.1742 18.097 16.1283 18.156 16.0702C18.215 16.012 18.2618 15.9427 18.2938 15.8663C18.3257 15.7899 18.3422 15.7079 18.3422 15.6251C18.3422 15.5422 18.3257 15.4602 18.2938 15.3838C18.2618 15.3074 18.215 15.2381 18.156 15.18C18.097 15.1218 18.027 15.076 17.9502 15.0451C17.8733 15.0142 17.7911 14.9989 17.7083 15.0001H2.29162Z"/>
</svg>
