<svg viewBox="0 0 20 20" xmlns="http://www.w3.org/2000/svg">
<path d="M16.4527 2.90789C16.2877 2.91179 16.1309 2.98083 16.0165 3.09995L10.0001 9.11639L3.98366 3.09995C3.9254 3.03995 3.8557 2.99226 3.77868 2.95969C3.70165 2.92712 3.61888 2.91033 3.53525 2.91033C3.41087 2.91036 3.28932 2.9475 3.18617 3.017C3.08301 3.08649 3.00293 3.18519 2.95618 3.30045C2.90943 3.41572 2.89813 3.54231 2.92372 3.66403C2.94932 3.78575 3.01065 3.89707 3.09987 3.98374L9.11631 10.0002L3.09987 16.0166C3.03989 16.0742 2.992 16.1432 2.95901 16.2195C2.92602 16.2958 2.90859 16.378 2.90775 16.4611C2.9069 16.5443 2.92266 16.6268 2.95409 16.7038C2.98552 16.7807 3.03199 16.8507 3.09079 16.9095C3.14959 16.9683 3.21953 17.0148 3.29651 17.0462C3.3735 17.0776 3.45598 17.0934 3.53913 17.0925C3.62228 17.0917 3.70443 17.0743 3.78076 17.0413C3.85709 17.0083 3.92607 16.9604 3.98366 16.9004L10.0001 10.884L16.0165 16.9004C16.0741 16.9604 16.1431 17.0083 16.2194 17.0413C16.2958 17.0743 16.3779 17.0917 16.4611 17.0925C16.5442 17.0934 16.6267 17.0776 16.7037 17.0462C16.7807 17.0148 16.8506 16.9683 16.9094 16.9095C16.9682 16.8507 17.0147 16.7807 17.0461 16.7038C17.0775 16.6268 17.0933 16.5443 17.0924 16.4611C17.0916 16.378 17.0742 16.2958 17.0412 16.2195C17.0082 16.1432 16.9603 16.0742 16.9003 16.0166L10.8839 10.0002L16.9003 3.98374C16.9912 3.8965 17.0536 3.78384 17.0794 3.66053C17.1051 3.53721 17.093 3.40899 17.0446 3.29268C16.9962 3.17637 16.9138 3.07739 16.8082 3.00873C16.7026 2.94006 16.5787 2.90491 16.4527 2.90789V2.90789Z"/>
</svg>
