<svg viewBox="0 0 20 20" xmlns="http://www.w3.org/2000/svg">
  <path d="M6.25008 2.9165C3.7261 2.9165 1.66675 4.97585 1.66675 7.49984C1.66675 9.20657 2.95327 10.8135 4.52157 12.4616C6.08987 14.1096 8.02024 15.7788 9.55819 17.3167C9.6754 17.4339 9.83435 17.4997 10.0001 17.4997C10.1658 17.4997 10.3248 17.4339 10.442 17.3167C11.9799 15.7788 13.9103 14.1096 15.4786 12.4616C17.0469 10.8135 18.3334 9.20657 18.3334 7.49984C18.3334 4.97585 16.2741 2.9165 13.7501 2.9165C12.3016 2.9165 11.0404 3.69421 10.0001 5.0153C8.95974 3.69421 7.6986 2.9165 6.25008 2.9165ZM6.25008 4.1665C7.47032 4.1665 8.48604 4.81584 9.47192 6.37516C9.5283 6.46423 9.60629 6.5376 9.69863 6.58843C9.79097 6.63927 9.89467 6.66593 10.0001 6.66593C10.1055 6.66593 10.2092 6.63927 10.3015 6.58843C10.3939 6.5376 10.4719 6.46423 10.5282 6.37516C11.5141 4.81584 12.5298 4.1665 13.7501 4.1665C15.5986 4.1665 17.0834 5.65132 17.0834 7.49984C17.0834 8.50144 16.0783 10.0195 14.5736 11.6006C13.2016 13.0424 11.496 14.5488 10.0001 16.0073C8.50412 14.5488 6.79859 13.0424 5.42651 11.6006C3.9219 10.0195 2.91675 8.50144 2.91675 7.49984C2.91675 5.65132 4.40156 4.1665 6.25008 4.1665Z"/>
</svg>
