<svg viewBox="0 0 20 20" xmlns="http://www.w3.org/2000/svg">
  <path d="M2.70836 3.33307C2.62554 3.3319 2.54332 3.3472 2.46646 3.37808C2.38961 3.40897 2.31966 3.45482 2.26068 3.51297C2.20169 3.57112 2.15486 3.64042 2.12289 3.71683C2.09092 3.79324 2.07446 3.87524 2.07446 3.95807C2.07446 4.0409 2.09092 4.1229 2.12289 4.19931C2.15486 4.27572 2.20169 4.34502 2.26068 4.40317C2.31966 4.46132 2.38961 4.50717 2.46646 4.53806C2.54332 4.56894 2.62554 4.58424 2.70836 4.58307H17.2917C17.3745 4.58424 17.4567 4.56894 17.5336 4.53806C17.6105 4.50717 17.6804 4.46132 17.7394 4.40317C17.7984 4.34502 17.8452 4.27572 17.8772 4.19931C17.9091 4.1229 17.9256 4.0409 17.9256 3.95807C17.9256 3.87524 17.9091 3.79324 17.8772 3.71683C17.8452 3.64042 17.7984 3.57112 17.7394 3.51297C17.6804 3.45482 17.6105 3.40897 17.5336 3.37808C17.4567 3.3472 17.3745 3.3319 17.2917 3.33307H2.70836ZM2.70836 9.1664C2.62554 9.16523 2.54332 9.18053 2.46646 9.21142C2.38961 9.2423 2.31966 9.28815 2.26068 9.3463C2.20169 9.40446 2.15486 9.47375 2.12289 9.55016C2.09092 9.62657 2.07446 9.70857 2.07446 9.7914C2.07446 9.87423 2.09092 9.95623 2.12289 10.0326C2.15486 10.1091 2.20169 10.1783 2.26068 10.2365C2.31966 10.2947 2.38961 10.3405 2.46646 10.3714C2.54332 10.4023 2.62554 10.4176 2.70836 10.4164H14.375C15.6481 10.4164 16.6667 11.435 16.6667 12.7081C16.6667 13.9811 15.6481 14.9997 14.375 14.9997H10.4672L11.4836 13.9833C11.5738 13.8955 11.6353 13.7825 11.6602 13.6591C11.6851 13.5357 11.6722 13.4077 11.6231 13.2918C11.574 13.1759 11.4911 13.0775 11.3852 13.0095C11.2793 12.9415 11.1553 12.9071 11.0295 12.9107C10.8672 12.9154 10.7131 12.9831 10.5998 13.0995L8.51647 15.1828C8.3993 15.3001 8.33348 15.459 8.33348 15.6247C8.33348 15.7905 8.3993 15.9494 8.51647 16.0666L10.5998 18.15C10.6574 18.2099 10.7264 18.2578 10.8027 18.2908C10.879 18.3238 10.9612 18.3412 11.0443 18.3421C11.1275 18.3429 11.21 18.3272 11.2869 18.2957C11.3639 18.2643 11.4339 18.2178 11.4927 18.159C11.5515 18.1002 11.5979 18.0303 11.6294 17.9533C11.6608 17.8763 11.6766 17.7938 11.6757 17.7107C11.6749 17.6276 11.6574 17.5454 11.6245 17.4691C11.5915 17.3927 11.5436 17.3238 11.4836 17.2662L10.4672 16.2497H14.375C16.3236 16.2497 17.9167 14.6567 17.9167 12.7081C17.9167 10.7595 16.3236 9.1664 14.375 9.1664H2.70836ZM2.70836 14.9997C2.62554 14.9986 2.54332 15.0139 2.46646 15.0447C2.38961 15.0756 2.31966 15.1215 2.26068 15.1796C2.20169 15.2378 2.15486 15.3071 2.12289 15.3835C2.09092 15.4599 2.07446 15.5419 2.07446 15.6247C2.07446 15.7076 2.09092 15.7896 2.12289 15.866C2.15486 15.9424 2.20169 16.0117 2.26068 16.0698C2.31966 16.128 2.38961 16.1738 2.46646 16.2047C2.54332 16.2356 2.62554 16.2509 2.70836 16.2497H6.0417C6.12452 16.2509 6.20674 16.2356 6.2836 16.2047C6.36045 16.1738 6.43041 16.128 6.48939 16.0698C6.54837 16.0117 6.5952 15.9424 6.62717 15.866C6.65914 15.7896 6.6756 15.7076 6.6756 15.6247C6.6756 15.5419 6.65914 15.4599 6.62717 15.3835C6.5952 15.3071 6.54837 15.2378 6.48939 15.1796C6.43041 15.1215 6.36045 15.0756 6.2836 15.0447C6.20674 15.0139 6.12452 14.9986 6.0417 14.9997H2.70836Z"/>
</svg>
