<svg width="71" height="70" viewBox="0 0 71 70" fill="none" xmlns="http://www.w3.org/2000/svg">
<path d="M31.6505 4.34245C28.7946 14.0935 26.0159 16.6074 22.9285 12.4175C20.7673 9.52268 20.0726 10.5892 21.3076 15.16C22.2338 18.8928 22.2338 19.0452 19.3008 24.7587C16.6765 29.8627 16.2905 31.2339 16.2905 35.6524C16.3677 47.6126 24.0863 55.84 35.2011 55.84C43.6143 55.9162 50.6382 50.3551 53.2626 41.7468C54.8835 36.1856 54.7291 27.1202 52.8766 21.0258C50.947 14.9315 49.7892 13.9411 49.7892 18.4357C49.7892 24.4539 48.6314 24.3778 45.544 18.2072C42.225 11.6557 34.5836 0.000193224 33.5802 0.000193224C33.1942 0.000193224 32.3452 1.98087 31.6505 4.34245ZM38.1341 34.5859C42.0706 39.6137 43.1512 42.8895 41.9934 46.2414C41.0672 49.1362 37.9798 51.8025 35.5098 51.8025C30.9558 51.8025 26.5562 46.089 27.714 41.6706C28.1 40.0708 34.1205 30.4721 34.7379 30.4721C34.8151 30.4721 36.3589 32.3005 38.1341 34.5859Z" fill="#BD1E2D"/>
<path d="M9.96155 11.7317C-1.46196 23.4634 -2.69693 43.194 7.10567 55.916C13.898 64.7529 22.3885 69.2475 33.426 69.9331C63.4513 71.6853 81.2813 38.6232 63.297 14.5504C59.2061 9.06541 57.1221 7.69418 55.3468 9.37013C54.3434 10.4367 54.575 10.9699 57.894 14.6265C69.8578 27.7295 69.0859 46.165 55.9643 58.1253C47.937 65.5147 37.2082 67.9525 26.7881 64.8291C15.2102 61.401 6.87411 51.8785 4.86728 39.9944C3.40075 31.4623 6.48819 21.6351 12.7402 14.9313C15.9049 11.5794 16.5223 9.21777 14.4383 8.53215C13.898 8.37979 11.8912 9.82721 9.96155 11.7317Z" fill="#BD1E2D"/>
</svg>
