<svg viewBox="0 0 20 20" xmlns="http://www.w3.org/2000/svg">
    <path d="M16.4532 2.90771C16.2882 2.9116 16.1314 2.98065 16.017 3.09976L10.0006 9.1162L3.98415 3.09976C3.92589 3.03977 3.85619 2.99207 3.77916 2.9595C3.70214 2.92693 3.61937 2.91015 3.53574 2.91015C3.41136 2.91018 3.28981 2.94732 3.18665 3.01681C3.0835 3.08631 3.00342 3.18501 2.95667 3.30027C2.90991 3.41553 2.89861 3.54212 2.92421 3.66384C2.94981 3.78557 3.01114 3.89688 3.10036 3.98355L9.1168 9.99999L3.10036 16.0164C3.04038 16.074 2.99249 16.143 2.9595 16.2193C2.92651 16.2957 2.90908 16.3778 2.90824 16.461C2.90739 16.5441 2.92314 16.6266 2.95457 16.7036C2.98601 16.7806 3.03248 16.8505 3.09128 16.9093C3.15008 16.9681 3.22002 17.0146 3.297 17.046C3.37399 17.0774 3.45647 17.0932 3.53962 17.0923C3.62277 17.0915 3.70492 17.0741 3.78125 17.0411C3.85758 17.0081 3.92656 16.9602 3.98415 16.9002L10.0006 10.8838L16.017 16.9002C16.0746 16.9602 16.1436 17.0081 16.2199 17.0411C16.2963 17.0741 16.3784 17.0915 16.4616 17.0923C16.5447 17.0932 16.6272 17.0774 16.7042 17.046C16.7812 17.0146 16.8511 16.9681 16.9099 16.9093C16.9687 16.8505 17.0152 16.7806 17.0466 16.7036C17.078 16.6266 17.0938 16.5441 17.0929 16.461C17.0921 16.3778 17.0747 16.2957 17.0417 16.2193C17.0087 16.143 16.9608 16.074 16.9008 16.0164L10.8844 9.99999L16.9008 3.98355C16.9917 3.89632 17.0541 3.78366 17.0799 3.66034C17.1056 3.53703 17.0935 3.40881 17.0451 3.2925C16.9967 3.17618 16.9143 3.07721 16.8087 3.00854C16.7031 2.93988 16.5792 2.90473 16.4532 2.90771V2.90771Z"/>
</svg>
