<svg width="80" height="80" viewBox="0 0 80 80" xmlns="http://www.w3.org/2000/svg">
<path d="M18.6666 8C15.7199 8 13.3333 10.3867 13.3333 13.3333V69.3333C13.3333 72.28 15.7199 74.6667 18.6666 74.6667H61.3332C64.2799 74.6667 66.6666 72.28 66.6666 69.3333V28C66.6666 27.2933 66.3867 26.6159 65.8853 26.1146L48.552 8.78125C48.0507 8.27992 47.3732 8 46.6666 8H18.6666ZM45.3333 13.0781L61.5885 29.3333H47.9999C46.5279 29.3333 45.3333 28.1387 45.3333 26.6667V13.0781ZM25.5155 40.4531C26.3342 40.4531 27.1402 40.5303 27.9322 40.6823C28.7242 40.8343 29.4307 41.1276 30.052 41.5729C30.6733 42.0182 31.1835 42.6451 31.5728 43.4531C31.9622 44.2638 32.1562 45.3186 32.1562 46.6146C32.1588 47.7879 31.9946 48.7803 31.6666 49.599C31.3359 50.4176 30.8982 51.0843 30.3489 51.599C29.7969 52.1136 29.1574 52.4867 28.4374 52.7187C27.7147 52.9507 26.9761 53.0677 26.2135 53.0677H25.8645C25.7018 53.0677 25.5353 53.0627 25.3593 53.0521C25.1833 53.0414 25.0065 53.0343 24.8385 53.0156C24.6705 52.9996 24.5511 52.977 24.4791 52.9583V59.3854H21.1197V40.9062C21.7597 40.7649 22.4638 40.6529 23.2291 40.5729C23.9918 40.4929 24.7529 40.4531 25.5155 40.4531ZM39.0624 40.4531C40.5371 40.4531 41.7685 40.6821 42.7551 41.1354C43.7418 41.5887 44.5355 42.2254 45.1301 43.0521C45.7275 43.8787 46.1451 44.8714 46.3957 46.026C46.6437 47.1807 46.7707 48.4745 46.7707 49.8958C46.7708 51.1945 46.6514 52.4332 46.4114 53.6146C46.1714 54.7959 45.7511 55.8357 45.1458 56.7344C44.5377 57.633 43.7194 58.3469 42.6874 58.8802C41.6554 59.4135 40.3621 59.6823 38.7968 59.6823C38.5675 59.6823 38.2513 59.6697 37.8593 59.651C37.47 59.6324 37.062 59.6152 36.6353 59.5885C36.2087 59.5619 35.7982 59.5319 35.4062 59.5052C35.0168 59.4785 34.7133 59.4488 34.4999 59.4115V40.7187C34.8199 40.6654 35.1833 40.6256 35.5833 40.599C35.9806 40.5723 36.3885 40.5475 36.8072 40.5208C37.2232 40.4942 37.6314 40.4767 38.0207 40.4687C38.4128 40.4607 38.7584 40.4531 39.0624 40.4531ZM49.4374 40.7187H58.7707V43.8125H52.802V48.6667H58.2916V51.7604H52.802V59.3854H49.4374V40.7187ZM25.8385 43.4375C25.2891 43.4375 24.8364 43.4849 24.4791 43.5729V49.9479C24.5858 49.9852 24.7847 50.015 25.078 50.0417C25.3714 50.0683 25.5755 50.0781 25.6822 50.0781C26.0715 50.0781 26.4447 50.0285 26.802 49.9219C27.1567 49.8152 27.4727 49.6337 27.7447 49.375C28.022 49.1163 28.2436 48.7606 28.401 48.3073C28.5636 47.854 28.6405 47.2819 28.6405 46.5885C28.6405 46.0019 28.5634 45.5017 28.4114 45.0937C28.2594 44.6857 28.058 44.3598 27.802 44.1198C27.5433 43.8798 27.2422 43.7056 26.9062 43.599C26.5675 43.4923 26.2118 43.4375 25.8385 43.4375ZM39.4114 43.5469C39.1287 43.5469 38.8401 43.5518 38.5468 43.5625C38.2561 43.5705 38.0245 43.5903 37.8645 43.625V56.4792C37.9205 56.4952 38.0124 56.5128 38.1458 56.5208C38.2791 56.5288 38.4235 56.5389 38.5728 56.5469C38.7222 56.5549 38.8614 56.5649 38.9947 56.5729C39.128 56.5809 39.2226 56.5885 39.276 56.5885C40.076 56.5885 40.7326 56.3994 41.2499 56.026C41.7619 55.6527 42.1728 55.1526 42.4635 54.5312C42.7568 53.9099 42.9582 53.1934 43.0728 52.3854C43.1875 51.5774 43.2499 50.7265 43.2499 49.8385C43.2499 49.0199 43.1975 48.2341 43.0989 47.4687C43.0082 46.7061 42.8189 46.0318 42.5416 45.4531C42.2642 44.8771 41.8789 44.4144 41.3749 44.0677C40.8682 43.721 40.2087 43.5469 39.4114 43.5469Z"/>
</svg>
