<svg viewBox="0 0 60 60" xmlns="http://www.w3.org/2000/svg">
<path d="M19.4075 37.8148C21.5348 37.8148 23.2594 36.0903 23.2594 33.9629C23.2594 31.8356 21.5348 30.1111 19.4075 30.1111C17.2802 30.1111 15.5557 31.8356 15.5557 33.9629C15.5557 36.0903 17.2802 37.8148 19.4075 37.8148Z" />
<path d="M25.1774 46.4815H13.6373C13.0547 46.4815 12.5847 45.9634 12.6791 45.3875C13.201 42.1847 16.0572 39.7407 19.4073 39.7407C22.7575 39.7407 25.6136 42.1847 26.1356 45.3875C26.2309 45.9634 25.761 46.4815 25.1774 46.4815Z" />
<path d="M34.8148 7H25.1852C24.1221 7 23.2593 7.86281 23.2593 8.92593V13.7407C23.2593 17.4636 26.2772 20.4815 30 20.4815C33.7228 20.4815 36.7408 17.4636 36.7408 13.7407V8.92593C36.7408 7.86281 35.8779 7 34.8148 7ZM32.8889 12.7778H27.1111C26.5786 12.7778 26.1482 12.3473 26.1482 11.8148C26.1482 11.2823 26.5786 10.8519 27.1111 10.8519H32.8889C33.4214 10.8519 33.8519 11.2823 33.8519 11.8148C33.8519 12.3473 33.4214 12.7778 32.8889 12.7778Z" />
<path d="M51.1852 13.7407H39.6296C39.6296 19.0505 35.3098 23.3704 30 23.3704C24.6902 23.3704 20.3704 19.0505 20.3704 13.7407H8.81481C6.15511 13.7407 4 15.8958 4 18.5555V48.4074C4 51.0671 6.15511 53.2222 8.81481 53.2222H51.1852C53.8449 53.2222 56 51.0671 56 48.4074V18.5555C56 15.8958 53.8449 13.7407 51.1852 13.7407ZM30 48.4074C30 48.9399 29.5696 49.3704 29.037 49.3704H9.77778C9.24526 49.3704 8.81481 48.9399 8.81481 48.4074V28.1852C8.81481 27.6526 9.24526 27.2222 9.77778 27.2222H29.037C29.5696 27.2222 30 27.6526 30 28.1852V48.4074ZM49.7407 35.8889H37.2222C36.4249 35.8889 35.7778 35.2418 35.7778 34.4444C35.7778 33.6471 36.4249 33 37.2222 33H49.7407C50.5381 33 51.1852 33.6471 51.1852 34.4444C51.1852 35.2418 50.5381 35.8889 49.7407 35.8889ZM49.7407 29.1481H37.2222C36.4249 29.1481 35.7778 28.501 35.7778 27.7037C35.7778 26.9064 36.4249 26.2592 37.2222 26.2592H49.7407C50.5381 26.2592 51.1852 26.9064 51.1852 27.7037C51.1852 28.501 50.5381 29.1481 49.7407 29.1481Z" />
</svg>
