<svg viewBox="0 0 60 60" xmlns="http://www.w3.org/2000/svg">
<path d="M7.51269 4.14569C6.6599 4.35891 6.0203 4.72444 5.37056 5.37427C4.71066 6.03425 4.30457 6.75516 4.12183 7.63852C3.95939 8.41019 3.95939 51.5933 4.12183 52.3549C4.49746 54.1013 5.89848 55.5025 7.64467 55.8782C8.40609 56.0406 51.5838 56.0406 52.3553 55.8782C54.0812 55.5126 55.5127 54.0708 55.8782 52.3549C56.0406 51.5832 56.0406 8.40004 55.8782 7.63852C55.5025 5.8921 54.0914 4.48076 52.3553 4.11523C51.533 3.94262 8.20305 3.97308 7.51269 4.14569ZM52.132 7.25268C52.3959 7.38468 52.6091 7.5979 52.7411 7.8619C52.934 8.23758 52.9442 8.4508 52.9442 12.2279V16.1878H30H7.05584V12.1975C7.06599 7.70959 7.05584 7.76036 7.82741 7.2933L8.22335 7.04961H29.9797C51.5838 7.04961 51.736 7.04961 52.132 7.25268ZM52.9442 35.4796C52.9442 51.573 52.9442 51.7355 52.7411 52.1315C52.6091 52.3955 52.3959 52.6087 52.132 52.7407C51.736 52.9438 51.5838 52.9438 29.9898 52.9438H8.25381L7.84772 52.7204C7.60406 52.5782 7.36041 52.3346 7.24873 52.1112C7.06599 51.7457 7.05584 51.238 7.05584 35.4796V19.2339H30H52.9442V35.4796Z" />
<path d="M10.9945 10.3096C10.558 10.533 10.2026 11.1319 10.2026 11.6192C10.2026 12.1269 10.558 12.7055 11.0148 12.939C11.3498 13.1116 11.6138 13.1421 12.7407 13.1421C13.8676 13.1421 14.1316 13.1116 14.4666 12.939C14.9234 12.7055 15.2788 12.1269 15.2788 11.6192C15.2788 11.1116 14.9234 10.533 14.4666 10.2995C14.1214 10.1269 13.8778 10.0964 12.7204 10.0964C11.5732 10.1066 11.3092 10.137 10.9945 10.3096Z" />
<path d="M19.1171 10.3096C18.6805 10.533 18.3252 11.1319 18.3252 11.6192C18.3252 12.1269 18.6805 12.7055 19.1374 12.939C19.4724 13.1116 19.7364 13.1421 20.8633 13.1421C21.9902 13.1421 22.2541 13.1116 22.5892 12.939C23.046 12.7055 23.4013 12.1269 23.4013 11.6192C23.4013 11.1116 23.046 10.533 22.5892 10.2995C22.244 10.1269 22.0003 10.0964 20.843 10.0964C19.6958 10.1066 19.4318 10.137 19.1171 10.3096Z" />
<path d="M27.2387 10.3096C26.8021 10.533 26.4468 11.1319 26.4468 11.6192C26.4468 12.1269 26.8021 12.7055 27.259 12.939C27.594 13.1116 27.8579 13.1421 28.9848 13.1421C30.1118 13.1421 30.3757 13.1116 30.7107 12.939C31.1676 12.7055 31.5229 12.1269 31.5229 11.6192C31.5229 11.1116 31.1676 10.533 30.7107 10.2995C30.3656 10.1269 30.1219 10.0964 28.9645 10.0964C27.8173 10.1066 27.5534 10.137 27.2387 10.3096Z" />
<path d="M9.70527 30.2608C9.19765 30.6263 9.1875 30.7279 9.1875 36.1905C9.1875 41.6937 9.19765 41.7749 9.73572 42.1303C9.95907 42.2826 10.2839 42.2928 12.3043 42.2623C14.5682 42.2319 14.6291 42.2217 15.1977 41.9577C15.9692 41.6023 16.5987 40.9931 17.0149 40.2316C17.3499 39.6224 17.3601 39.5412 17.3601 38.5258C17.3601 37.5104 17.3398 37.4292 17.0251 36.8403C16.8423 36.4951 16.5073 36.0483 16.2941 35.8351L15.9083 35.4594L16.1824 34.9416C16.4159 34.4847 16.4464 34.3019 16.4464 33.449C16.4464 32.6469 16.4058 32.4032 16.2129 32.0072C15.888 31.3472 15.2586 30.738 14.5885 30.4232C14.0301 30.1593 13.9286 30.1491 11.9794 30.1186C10.2129 30.0882 9.91846 30.1085 9.70527 30.2608ZM13.756 32.2814C14.7306 32.7789 14.7306 34.1192 13.756 34.6167C13.5428 34.7284 13.1266 34.769 12.3347 34.769H11.218V33.449V32.1291H12.3347C13.1266 32.1291 13.5428 32.1697 13.756 32.2814ZM14.4667 37.0231C15.1469 37.3683 15.4109 37.8252 15.3601 38.5766C15.3093 39.3279 15.0251 39.7848 14.4261 40.059C14.0809 40.2113 13.756 40.2519 12.619 40.2519H11.218V38.5258V36.7997H12.619C13.8677 36.7997 14.0707 36.82 14.4667 37.0231Z" />
<path d="M19.9592 30.2609C19.4516 30.6264 19.4414 30.728 19.4414 36.1906C19.4414 41.6837 19.4516 41.7751 19.9795 42.1304C20.2028 42.2726 20.5277 42.2929 22.3856 42.2624L24.5379 42.232L24.7815 41.9477C25.1165 41.5618 25.1165 40.9729 24.7815 40.5871L24.5379 40.3028L23.0049 40.2723L21.4719 40.2419V35.4798V30.7178L21.2384 30.4538C20.9439 30.1086 20.3044 30.0071 19.9592 30.2609Z" />
<path d="M29.8478 30.2402C29.0052 30.4331 28.2336 30.7986 27.4925 31.3469C24.264 33.7432 24.3148 38.7692 27.594 41.1045C31.127 43.6125 35.9595 41.8559 37.0559 37.6625C37.1371 37.3274 37.2082 36.6369 37.2082 36.1191C37.2082 33.5604 35.5737 31.286 33.1168 30.4331C32.2234 30.1184 30.7514 30.0371 29.8478 30.2402ZM32.6701 32.4334C33.4823 32.738 34.3656 33.5706 34.792 34.4438C35.1067 35.0733 35.127 35.185 35.127 36.1902C35.127 37.1954 35.1067 37.3071 34.792 37.9366C33.9087 39.7338 31.8986 40.6273 30.0204 40.0587C28.0711 39.4698 26.8935 37.6218 27.1777 35.581C27.3706 34.1189 28.4874 32.809 29.929 32.3318C30.7209 32.0678 31.8173 32.1085 32.6701 32.4334Z" />
<path d="M44.0609 30.2509C41.2792 30.8601 39.3198 33.3173 39.3198 36.1908C39.3198 38.6885 40.7818 40.8817 43.0762 41.8158C46.1625 43.0647 49.2995 41.7042 50.3554 38.6682C50.7005 37.6833 50.8528 36.2821 50.6701 35.8354C50.396 35.1957 50.2437 35.1551 48.1219 35.1957L46.2234 35.2262L45.9797 35.5105C45.6447 35.8963 45.6447 36.4852 45.9797 36.8711C46.2234 37.1452 46.2538 37.1554 47.4417 37.1858L48.6599 37.2264L48.5076 37.7443C48.3046 38.4652 47.9594 39.0338 47.4518 39.4805C46.9137 39.978 46.4772 40.1507 45.6345 40.2217C43.6041 40.3943 41.665 38.8307 41.3909 36.8C41.1066 34.7896 42.2741 32.9213 44.1828 32.3324C45.2894 31.9973 46.4264 32.1192 47.4112 32.6878C48.0609 33.0635 48.5381 33.0635 48.9239 32.6776C49.1269 32.4644 49.1878 32.3019 49.1878 31.977C49.1878 31.6115 49.1371 31.4897 48.8427 31.2358C47.7868 30.3118 45.7259 29.8854 44.0609 30.2509Z" />
</svg>
