<svg viewBox="0 0 60 60" xmlns="http://www.w3.org/2000/svg">
<path d="M52 40.962V38C52 36.343 50.656 35 49 35H19C17.344 35 16.01 36.343 16.01 38L16 54C16 55.657 17.344 57 19 57H49C50.656 57 51.99 55.657 51.99 54L52 49.138L55.596 46.037C55.866 45.837 56.002 45.531 56 45.225C55.998 44.961 55.893 44.697 55.68 44.499L52 40.962Z" />
<path d="M12.9998 37C12.9998 34.238 15.2378 32 17.9998 32H42.9998V23C42.9998 21.343 41.6558 20 39.9998 20H9.99983C8.34382 20 7.00983 21.343 7.00983 23L6.99983 26.865L3.31982 30.463C3.09082 30.676 2.99382 30.967 3.00882 31.251C3.02382 31.535 3.15182 31.813 3.40382 32L6.99983 35.225V39C6.99983 40.657 8.34382 42 9.99983 42H12.9998V37Z" />
<path d="M55.68 13.5L52 9.962V6C52 4.343 50.656 3 49 3H19C17.344 3 16.01 4.343 16.01 6L16 17H41C43.762 17 46 19.238 46 22V25H49C50.656 25 51.99 23.657 51.99 22L52 18.138L55.596 15.037C55.86 14.842 55.996 14.546 56 14.247C56.004 13.977 55.898 13.703 55.68 13.5V13.5Z" />
</svg>
