<svg viewBox="0 0 60 60" xmlns="http://www.w3.org/2000/svg">
<path d="M41.1012 3.20402C40.8885 3.26009 40.6565 3.33017 40.5856 3.36521C40.5147 3.39324 40.3148 3.47734 40.1344 3.54742C39.9603 3.61049 39.7992 3.68758 39.7799 3.7086C39.7605 3.72963 39.6381 3.81373 39.5092 3.89081C39.3738 3.9679 39.1546 4.1361 39.0193 4.27626C38.7421 4.55658 38.3618 5.1803 38.3618 5.3485C38.3618 5.41157 38.3361 5.47464 38.3038 5.49567C38.2136 5.55874 38.1685 6.58192 38.2265 7.07949C38.2587 7.33179 38.3361 7.77329 38.3941 8.06063C38.5681 8.88758 38.4392 9.61642 38.0525 10.0229C37.8397 10.2401 37.4917 10.4434 37.3241 10.4434C37.2596 10.4434 37.1887 10.4714 37.1694 10.5135C37.1501 10.5485 37.0147 10.5835 36.8794 10.5835C36.744 10.5835 36.6086 10.5485 36.5893 10.5135C36.57 10.4714 36.4926 10.4434 36.4217 10.4434C36.3573 10.4434 36.2993 10.4083 36.2993 10.3733C36.2993 10.3312 36.2541 10.3032 36.2026 10.3032C35.9705 10.3032 35.3324 9.38515 35.3324 9.04176C35.3324 8.83152 35.2293 8.87356 35.1133 9.12586C34.9973 9.37114 34.9779 9.8547 35.0746 9.91777C35.1133 9.93879 35.1391 10.0299 35.1391 10.121C35.1391 10.2051 35.1842 10.3383 35.2357 10.4153C35.2873 10.4854 35.3324 10.5905 35.3324 10.6396C35.3324 10.6887 35.3711 10.7728 35.4162 10.8218C35.4549 10.8709 35.5645 11.011 35.6547 11.1302C35.7449 11.2563 35.8545 11.3544 35.8996 11.3544C35.9383 11.3544 35.977 11.3825 35.977 11.4175C35.977 11.4525 36.1446 11.5717 36.3444 11.6768C36.6731 11.859 36.7698 11.88 37.3563 11.88C37.8978 11.88 38.0589 11.852 38.3103 11.7188C38.4779 11.6348 38.6326 11.5647 38.6519 11.5647C38.7163 11.5647 38.6841 12.0973 38.6132 12.1744C38.4843 12.3145 38.6261 13.9895 38.813 14.5361C39.0902 15.328 39.2255 15.6574 39.3416 15.7976C39.406 15.8746 39.4705 15.9938 39.4963 16.0639C39.5156 16.1339 39.5607 16.19 39.5929 16.19C39.6252 16.19 39.651 16.2321 39.651 16.2741C39.651 16.4143 40.8047 17.5916 40.9336 17.5916C40.9659 17.5916 41.0368 17.6337 41.0819 17.6827C41.1914 17.7949 41.7071 18.0612 41.9456 18.1242C42.0487 18.1523 42.1647 18.1943 42.197 18.2224C42.3581 18.3485 43.4538 18.5097 43.9373 18.4817C44.5496 18.4466 45.3231 18.2994 45.3231 18.2153C45.3231 18.1803 45.394 18.1523 45.4778 18.1523C45.568 18.1523 45.6518 18.1242 45.6776 18.0892C45.6969 18.0542 45.8 18.0051 45.9032 17.9771C46.0127 17.949 46.0965 17.9 46.0965 17.8649C46.0965 17.8299 46.1352 17.8019 46.1803 17.8019C46.451 17.8019 48.0302 16.2671 48.0302 16.0078C48.0302 15.9517 48.0624 15.9097 48.0947 15.9097C48.1333 15.9097 48.1591 15.8676 48.1591 15.8186C48.1591 15.7695 48.23 15.6224 48.3138 15.4892C48.3976 15.356 48.4878 15.1388 48.5072 15.0126C48.533 14.8935 48.5845 14.7884 48.6167 14.7884C48.649 14.7884 48.6748 14.7253 48.6748 14.6412C48.6748 14.5641 48.7005 14.445 48.7328 14.3749C48.8617 14.1156 48.9326 12.8401 48.8617 12.1393C48.823 11.7679 48.765 11.4315 48.7328 11.3895C48.7005 11.3544 48.6748 11.2563 48.6748 11.1722C48.6748 11.0811 48.649 10.997 48.6167 10.976C48.5845 10.955 48.5394 10.8218 48.5201 10.6887C48.4943 10.5555 48.4492 10.4434 48.4234 10.4434C48.3912 10.4434 48.3525 10.3873 48.3331 10.3172C48.2816 10.156 48.0302 9.67949 47.8691 9.46925C47.5274 9.00672 46.7282 8.20079 46.6186 8.20079C46.5864 8.20079 46.5155 8.15874 46.4704 8.10968C46.335 7.97653 45.6905 7.64014 45.5615 7.64014C45.5035 7.64014 45.452 7.61211 45.452 7.58408C45.452 7.45092 44.6656 7.33879 43.7117 7.33179C42.7771 7.32478 42.6804 7.33879 42.1712 7.521C41.8747 7.63313 41.5073 7.80133 41.3461 7.89243C41.1914 7.99055 41.0303 8.06063 40.9981 8.04661C40.8305 7.98354 41.9327 6.58893 42.1454 6.58893C42.1905 6.58893 42.2292 6.5679 42.2292 6.53286C42.2292 6.42073 42.9446 6.3086 43.7632 6.3016C44.5431 6.29459 44.6205 6.28057 44.6849 6.16144C44.7881 5.94418 44.6914 5.27141 44.4851 4.79486C44.2982 4.36736 43.7374 3.64553 43.5956 3.64553C43.5505 3.64553 43.5183 3.6175 43.5183 3.58246C43.5183 3.51939 43.3378 3.42828 42.7448 3.21804C42.3259 3.06386 41.662 3.05685 41.1012 3.20402Z" />
<path d="M15.0289 7.41576C14.7968 7.47883 14.6034 7.55592 14.5906 7.58395C14.5777 7.61198 14.5132 7.64002 14.4488 7.64002C14.3263 7.64002 13.8686 7.84325 13.8042 7.92735C13.7849 7.95538 13.714 7.99042 13.6366 8.01845C13.5657 8.03948 13.4497 8.11657 13.3788 8.18665C13.3143 8.24972 13.1467 8.39689 13.0114 8.50902C12.876 8.61414 12.6827 8.78934 12.586 8.89446C12.1412 9.36401 11.4838 10.5344 11.3871 11.0179C11.3613 11.1441 11.3162 11.2772 11.2904 11.3193C11.0584 11.6697 11.0584 14.2486 11.2969 14.4098C11.3291 14.4309 11.3549 14.515 11.3549 14.599C11.3549 14.6831 11.4 14.8443 11.4516 14.9565C11.5031 15.0616 11.5482 15.2017 11.5482 15.2508C11.5482 15.3069 11.574 15.3489 11.6063 15.3489C11.6385 15.3489 11.69 15.419 11.7158 15.5031C11.7416 15.5942 11.7738 15.6783 11.7996 15.6993C11.819 15.7203 11.8834 15.8185 11.935 15.9166C12.0446 16.1268 12.4184 16.6454 12.6118 16.8557C12.9147 17.178 13.2241 17.4513 13.2885 17.4513C13.3208 17.4513 13.353 17.4724 13.353 17.5004C13.353 17.5775 13.7268 17.8017 13.8429 17.8017C13.8944 17.8017 13.9331 17.8298 13.9331 17.8718C13.9331 17.9069 13.9653 17.9419 14.004 17.9419C14.0427 17.9419 14.178 17.991 14.3069 18.054C14.7324 18.2573 14.7968 18.2783 15.19 18.3694C15.841 18.5166 16.492 18.5236 17.1559 18.3974C17.4911 18.3273 17.794 18.2433 17.8262 18.2152C17.8649 18.1802 17.9358 18.1521 17.9938 18.1521C18.1356 18.1521 19.0251 17.6476 19.2056 17.4654C19.2507 17.4233 19.3152 17.3813 19.3474 17.3813C19.4956 17.3813 20.572 16.0918 20.572 15.9166C20.572 15.8745 20.5978 15.8395 20.6236 15.8395C20.6945 15.8395 20.9975 15.1667 21.1264 14.7182C21.1844 14.5079 21.2682 14.2557 21.3068 14.1645C21.4035 13.9333 21.4035 11.7608 21.3068 11.6276C21.2682 11.5716 21.2166 11.4104 21.1973 11.2632C21.165 11.0249 20.7396 9.9667 20.6429 9.8826C20.6172 9.86158 20.5463 9.75646 20.4818 9.64433C20.3464 9.42007 20.0306 9.0136 19.8437 8.8384C19.7792 8.77533 19.6117 8.61414 19.4763 8.48099C19.2636 8.27075 18.3548 7.71711 17.9616 7.56293C17.2075 7.26859 15.8474 7.19851 15.0289 7.41576Z" />
<path d="M15.0608 19.1686C13.9908 19.3297 13.3333 19.54 13.3011 19.7432C13.2882 19.8133 13.2495 19.8974 13.2173 19.9324C13.1851 19.9745 13.1593 20.1076 13.1593 20.2268C13.1593 20.3529 13.1335 20.4721 13.1013 20.4931C13.0755 20.5141 13.0304 20.6963 13.0046 20.8996C12.9788 21.1028 12.9337 21.299 12.9079 21.3411C12.8757 21.3761 12.837 21.5233 12.8177 21.6564C12.7726 21.9718 12.6437 22.5745 12.5985 22.7076C12.5405 22.8548 12.3858 23.5977 12.3407 23.92C12.3214 24.0602 12.2827 24.2004 12.2505 24.2214C12.2183 24.2424 12.1925 24.3335 12.1925 24.4246C12.1925 24.5858 11.9411 25.7842 11.8057 26.2467C11.7735 26.3589 11.7284 26.6252 11.7026 26.8284C11.6768 27.0316 11.6317 27.2138 11.6059 27.2349C11.5737 27.2559 11.5479 27.361 11.5479 27.4731C11.5479 27.5853 11.5221 27.6904 11.4899 27.7114C11.4577 27.7324 11.4126 27.9427 11.3868 28.1739C11.361 28.4052 11.3159 28.5944 11.2836 28.5944C11.1805 28.5944 11.2256 28.7486 11.3739 28.9028C11.5608 29.099 11.7413 29.4074 11.7413 29.5405C11.7413 29.5966 11.7735 29.6456 11.8057 29.6456C11.9153 29.6456 11.8831 30.4866 11.7606 30.781C11.7026 30.9281 11.6317 31.0473 11.5995 31.0473C11.5737 31.0473 11.5479 31.0823 11.5479 31.1244C11.5479 31.2855 10.9291 31.7481 10.7164 31.7481C10.6455 31.7481 10.5811 31.8111 10.5617 31.9023C10.5424 31.9934 10.4715 32.3157 10.3942 32.6171C10.3168 32.9254 10.2588 33.2408 10.2588 33.3319C10.2588 33.423 10.233 33.5071 10.2008 33.5281C10.1686 33.5492 10.1234 33.7384 10.0977 33.9556C10.0783 34.1659 10.0268 34.3551 9.99453 34.3761C9.96231 34.4041 9.93652 35.0068 9.93652 35.7497V37.0742H16.2081C19.65 37.0742 22.5054 37.0462 22.5376 37.0182C22.6407 36.9341 22.5441 34.306 22.4152 33.8855C22.3636 33.6893 22.312 33.451 22.312 33.3389C22.312 33.2338 22.2862 33.1497 22.254 33.1497C22.2218 33.1497 22.1831 33.0306 22.1638 32.8834C22.138 32.7432 22.0864 32.4419 22.0413 32.2246C21.964 31.8322 21.9575 31.8182 21.6481 31.699C21.3065 31.5659 20.9585 31.2225 20.8038 30.8721C20.6555 30.5427 20.6684 29.6527 20.8167 29.3723C20.8747 29.2532 20.9456 29.1551 20.9778 29.1551C21.0036 29.1551 21.0229 29.12 21.0229 29.078C21.0229 29.0289 21.0745 28.9589 21.1325 28.9098C21.2292 28.8327 21.2356 28.7766 21.1647 28.4122C21.0745 27.9146 20.9649 27.382 20.8876 27.0527C20.8618 26.9195 20.7973 26.6322 20.7586 26.4219C20.72 26.2117 20.662 25.9734 20.6362 25.8963C20.6039 25.8192 20.5653 25.6791 20.5459 25.581C20.5202 25.4198 20.4041 24.9082 20.243 24.2144C20.2043 24.0602 20.1399 23.7589 20.0947 23.5486C20.0496 23.3384 19.9981 23.1141 19.9787 23.058C19.9078 22.8338 19.7338 21.9648 19.7338 21.8106C19.7338 21.7265 19.708 21.6564 19.6693 21.6564C19.6371 21.6564 19.6049 21.5863 19.6049 21.4952C19.6049 21.4041 19.5469 21.0537 19.4695 20.7033C19.3986 20.3599 19.3213 20.0025 19.3019 19.9044C19.2504 19.6521 19.173 19.568 18.941 19.512C18.825 19.4909 18.7089 19.4489 18.6703 19.4208C18.5865 19.3578 17.9226 19.2246 17.22 19.1335C16.5368 19.0424 15.8084 19.0564 15.0608 19.1686Z" />
<path d="M43.1247 19.0909C43.1118 19.105 42.8669 19.14 42.5833 19.161C42.2997 19.189 42.0419 19.2381 42.0096 19.2731C41.971 19.3152 41.855 19.3432 41.7518 19.3432C41.6422 19.3502 41.3909 19.4063 41.1975 19.4764C40.8043 19.6236 40.7076 19.7567 40.6496 20.2543C40.6238 20.4295 40.5852 20.6327 40.5594 20.7098C40.4756 20.9341 40.2951 21.8171 40.2951 21.9853C40.2951 22.0764 40.2693 22.1465 40.2307 22.1465C40.1984 22.1465 40.1662 22.2306 40.1662 22.3357C40.1662 22.4478 40.1211 22.6581 40.0695 22.8122C40.018 22.9664 39.9793 23.1977 39.9728 23.3168C39.9728 23.443 39.9471 23.5481 39.9084 23.5481C39.8762 23.5481 39.8439 23.6392 39.8439 23.7513C39.8439 23.8634 39.7988 24.0877 39.7472 24.2489C39.6957 24.4101 39.6506 24.6343 39.6506 24.7465C39.6506 24.8586 39.6248 24.9497 39.5861 24.9497C39.5539 24.9497 39.5217 25.0548 39.5217 25.174C39.5152 25.3001 39.4765 25.5314 39.425 25.6855C39.3734 25.8397 39.3283 26.036 39.3283 26.1271C39.3283 26.2112 39.3025 26.3373 39.2703 26.4074C39.238 26.4705 39.1607 26.7928 39.1027 27.1222C39.0447 27.4516 38.9673 27.774 38.9351 27.837C38.9029 27.9071 38.8771 28.0333 38.8771 28.1244C38.8771 28.2155 38.8449 28.3977 38.7997 28.5238C38.7353 28.7341 38.7417 28.7691 38.8642 28.8812C38.9416 28.9443 39.006 29.0354 39.006 29.0775C39.006 29.1195 39.0318 29.1545 39.0576 29.1545C39.0898 29.1545 39.1607 29.2737 39.2187 29.4209C39.3412 29.7222 39.3734 30.7664 39.2638 30.7664C39.2316 30.7664 39.1994 30.8155 39.1994 30.8715C39.1994 30.9977 38.7997 31.4532 38.5419 31.6284C38.4452 31.6915 38.3034 31.7475 38.2325 31.7475C38.1616 31.7475 38.0843 31.8036 38.065 31.8667C38.0456 31.9368 38.0005 32.0559 37.9747 32.133C37.9425 32.2101 37.9038 32.3643 37.8909 32.4834C37.8329 32.9039 37.704 33.5346 37.6524 33.6748C37.6202 33.7519 37.5815 33.906 37.5558 34.0252C37.4591 34.5368 37.3495 35.0133 37.3173 35.1114C37.2979 35.1675 37.227 35.4688 37.169 35.7772C37.111 36.0855 37.0401 36.4009 37.0079 36.478C36.9757 36.5551 36.937 36.7093 36.9176 36.8284C36.8725 37.1017 36.7178 37.7815 36.6663 37.9147C36.6469 37.9707 36.6147 38.1109 36.5954 38.23C36.5825 38.3422 36.518 38.6435 36.46 38.8958C36.402 39.1481 36.3311 39.4775 36.2989 39.6316C36.2666 39.7858 36.1957 40.1152 36.1377 40.3675C36.0153 40.8931 35.9508 41.2085 35.8348 41.8041C35.7961 42.0354 35.7381 42.2386 35.7123 42.2597C35.693 42.2807 35.6543 42.4068 35.635 42.54C35.5254 43.2408 35.4287 43.6613 35.3836 43.6613C35.3578 43.6613 35.332 43.7734 35.332 43.9066V44.1519L43.7628 44.1378C51.2075 44.1168 52.1872 44.1028 52.1743 44.0117C52.1679 43.9556 52.1163 43.7174 52.0647 43.4861C51.6844 41.8041 51.62 41.5238 51.5104 41.1033C51.4782 40.9842 51.4331 40.7669 51.4137 40.6128C51.388 40.4586 51.3493 40.2694 51.3235 40.1923C51.2913 40.1152 51.2204 39.7998 51.1559 39.4915C51.0979 39.1831 51.0206 38.8678 50.9948 38.7907C50.9625 38.7136 50.9239 38.5524 50.911 38.4403C50.853 38.0268 50.7047 37.3891 50.666 37.354C50.6403 37.333 50.608 37.1928 50.5887 37.0386C50.5436 36.7163 50.3889 35.9664 50.3373 35.8122C50.3115 35.7562 50.2793 35.63 50.26 35.5319C50.2471 35.4338 50.1826 35.1535 50.1246 34.9012C50.0666 34.6489 50.0022 34.3335 49.9828 34.2004C49.9635 34.0672 49.9248 33.92 49.899 33.885C49.8732 33.843 49.8281 33.6467 49.8023 33.4505C49.7766 33.2473 49.7314 33.0651 49.6992 33.037C49.667 33.016 49.6412 32.8829 49.6348 32.7427C49.6348 32.6025 49.5832 32.3222 49.5187 32.133C49.4285 31.8527 49.3705 31.7756 49.248 31.7616C49.0611 31.7405 48.4939 31.285 48.3908 31.0818C48.3521 31.0047 48.2941 30.9206 48.2554 30.8926C48.2232 30.8645 48.1845 30.5912 48.1716 30.2899C48.1458 29.6661 48.2425 29.3438 48.5583 28.9934C48.713 28.8182 48.7324 28.7551 48.7001 28.5028C48.6808 28.3416 48.6421 28.1454 48.6099 28.0683C48.5777 27.9912 48.5197 27.7669 48.481 27.5777C48.3199 26.7998 48.2876 26.6527 48.2103 26.2672C48.1652 26.05 48.1007 25.8467 48.0749 25.8187C48.0491 25.7907 48.0298 25.6996 48.0298 25.6155C48.0298 25.5314 47.9654 25.216 47.8945 24.9076C47.8171 24.6063 47.7333 24.2279 47.7075 24.0737C47.6753 23.9195 47.6044 23.5901 47.5464 23.3378C47.4884 23.0855 47.4239 22.7702 47.4046 22.637C47.3853 22.5039 47.3466 22.3567 47.3144 22.3217C47.2886 22.2796 47.2434 22.0834 47.2177 21.8802C47.1919 21.6769 47.1468 21.4947 47.121 21.4737C47.0888 21.4527 47.063 21.3335 47.063 21.2004C47.063 21.0672 47.0372 20.9481 47.005 20.92C46.9727 20.899 46.9212 20.7098 46.9018 20.4996C46.8761 20.2823 46.8309 20.0931 46.7987 20.0721C46.7665 20.051 46.7407 19.9669 46.7407 19.8758C46.7407 19.7217 46.6376 19.6446 46.1606 19.4273C45.7158 19.2241 43.2601 18.9508 43.1247 19.0909Z" />
<path d="M8.55092 20.2126C8.2093 20.4158 7.93214 20.7242 7.79679 21.0466C7.7001 21.2568 7.68077 21.5021 7.68077 22.287V23.2611L7.15867 23.8428C6.87507 24.1652 6.12738 24.9921 5.49572 25.6929C4.86405 26.3937 4.29684 27.0665 4.23239 27.1997C4.16793 27.3328 4.09058 27.494 4.0648 27.5571C3.94233 27.8234 4.00034 28.4261 4.18082 28.8045C4.37419 29.218 4.77381 29.6174 5.04453 29.6805C5.14766 29.7086 5.24434 29.7576 5.26368 29.7927C5.28946 29.8277 5.37325 29.8557 5.46349 29.8557C5.54728 29.8557 5.61818 29.8838 5.61818 29.9258C5.61818 29.9608 5.67619 29.9959 5.74709 29.9959C5.85667 29.9959 6.04359 30.059 6.55279 30.2762C6.62369 30.3042 6.84284 30.3813 7.03621 30.4444C7.73878 30.6897 7.68077 30.5495 7.68077 31.9301C7.68077 33.2897 7.71944 33.4719 8.13196 33.9274C8.364 34.1797 8.8023 34.446 8.89253 34.3829C8.92476 34.3619 9.00211 34.0676 9.06012 33.7312C9.12457 33.3948 9.19548 33.0514 9.2277 32.9743C9.25993 32.8972 9.29861 32.736 9.31794 32.6239C9.33728 32.5048 9.38884 32.2175 9.43396 31.9722L9.51131 31.5307L9.31794 31.3414C8.98277 31.0191 8.84097 30.6757 8.84097 30.1781C8.84097 29.9328 8.87964 29.6245 8.93121 29.4913C9.0859 29.1059 9.51131 28.6924 9.89804 28.5592C10.1559 28.4681 10.2525 28.398 10.2783 28.2859C10.2912 28.2088 10.3686 27.8865 10.4395 27.5781C10.5104 27.2697 10.6199 26.7652 10.678 26.4568C10.7875 25.8821 10.8198 25.756 10.9938 25.0972C11.0518 24.894 11.0969 24.6627 11.0969 24.5927C11.0969 24.5226 11.1227 24.3964 11.1549 24.3053C11.1872 24.2142 11.2581 23.8918 11.3225 23.5835C11.3805 23.2751 11.4579 22.9598 11.4837 22.8827C11.5094 22.8056 11.5803 22.4902 11.6383 22.1819C11.7028 21.8735 11.7737 21.5582 11.7995 21.4811C11.8575 21.3339 11.9929 20.6681 12.0444 20.2687L12.0766 20.0444L10.4459 20.0514C8.87964 20.0514 8.79585 20.0584 8.55092 20.2126Z" />
<path d="M20.3784 20.1074C20.3784 20.1494 20.4042 20.1915 20.4429 20.2195C20.4751 20.2405 20.5202 20.4438 20.546 20.675C20.5718 20.9063 20.6169 21.0955 20.6427 21.0955C20.6749 21.0955 20.7007 21.1866 20.7007 21.2988C20.7007 21.4109 20.7458 21.6351 20.7974 21.7963C20.8489 21.9575 20.8941 22.1678 20.8941 22.2589C20.8941 22.357 20.9198 22.4831 20.9521 22.5532C20.9843 22.6163 21.0616 22.9246 21.1197 23.233C21.1777 23.5413 21.255 23.8847 21.2872 23.9969C21.3195 24.109 21.3453 24.2912 21.3453 24.3963C21.3453 24.5015 21.371 24.6066 21.4033 24.6276C21.4355 24.6486 21.4806 24.8378 21.5064 25.0551C21.5257 25.2653 21.5773 25.4546 21.6095 25.4756C21.6418 25.5036 21.6675 25.6227 21.6675 25.7559C21.6675 25.8891 21.6933 26.0082 21.7255 26.0292C21.7578 26.0502 21.8029 26.2395 21.8287 26.4567C21.848 26.667 21.8996 26.8562 21.9318 26.8772C21.964 26.9052 21.9898 27.0244 21.9898 27.1575C21.9898 27.2907 22.0156 27.4098 22.0478 27.4308C22.08 27.4519 22.1252 27.6621 22.151 27.8934C22.1896 28.2438 22.2283 28.3349 22.3765 28.454C22.4732 28.5311 22.615 28.5942 22.6859 28.5942C22.7568 28.5942 22.86 28.6432 22.918 28.6993C22.9695 28.7554 23.034 28.8044 23.0598 28.8044C23.1758 28.8044 23.6012 29.3861 23.6012 29.5403C23.6012 29.6314 23.6334 29.7295 23.6657 29.7505C23.7043 29.7715 23.7301 29.9467 23.7301 30.136C23.7301 30.3252 23.7043 30.5004 23.6657 30.5214C23.6334 30.5424 23.6012 30.6265 23.6012 30.6966C23.6012 30.8438 23.2789 31.3904 23.1951 31.3974C23.034 31.4044 22.8922 31.7268 23.0082 31.8459C23.034 31.874 23.0856 32.0772 23.1307 32.2944C23.1694 32.5117 23.2338 32.8201 23.2725 32.9742C23.3047 33.1284 23.3627 33.3947 23.4014 33.5699C23.569 34.3478 23.6012 34.4109 23.8397 34.4109C24.0846 34.4109 24.5229 34.2147 24.7356 34.0114C24.8065 33.9413 24.9483 33.7521 25.045 33.5839C25.2126 33.2896 25.219 33.2546 25.2448 31.937L25.2706 30.5915L25.4833 30.4723C25.5993 30.4023 25.7605 30.3462 25.8443 30.3462C25.9216 30.3462 25.9861 30.3112 25.9861 30.2761C25.9861 30.2341 26.057 30.206 26.1408 30.206C26.231 30.206 26.3148 30.178 26.3341 30.143C26.3535 30.1079 26.4759 30.0589 26.6048 30.0308C26.7338 30.0098 26.8884 29.9608 26.9465 29.9257C27.0045 29.8907 27.1656 29.8136 27.3074 29.7505C27.9262 29.4772 28.1195 29.302 28.3387 28.8395C28.5192 28.461 28.5192 27.606 28.3387 27.2626C28.184 26.9683 28.2485 27.0454 26.6242 25.2513L25.2899 23.7866L25.2448 22.4411C25.219 21.6982 25.1739 21.0955 25.1481 21.0955C25.1224 21.0955 25.0772 21.0184 25.0579 20.9203C25.0321 20.8222 24.987 20.7451 24.9548 20.7451C24.9161 20.7451 24.8903 20.7101 24.8903 20.668C24.8903 20.5769 24.7292 20.3947 24.6454 20.3947C24.6067 20.3947 24.568 20.3737 24.5551 20.3387C24.5487 20.3106 24.4262 20.2335 24.2909 20.1634C24.0782 20.0583 23.8268 20.0443 22.2154 20.0443C21.1068 20.0443 20.3784 20.0723 20.3784 20.1074Z" />
<path d="M36.093 20.1634C35.9576 20.2265 35.848 20.3036 35.848 20.3316C35.848 20.3666 35.8094 20.3947 35.7707 20.3947C35.6804 20.4017 35.5515 20.5699 35.3195 20.9974C35.1906 21.2426 35.1712 21.3828 35.1519 22.3009C35.139 22.8755 35.1003 23.3381 35.0681 23.3381C35.0359 23.3381 35.0101 23.3661 35.0101 23.4011C35.0101 23.4362 34.3204 24.2141 33.4825 25.1321C32.6446 26.0572 31.8776 26.9262 31.7809 27.0734C31.5102 27.4868 31.4328 27.9984 31.5682 28.524C31.6262 28.7553 31.7035 28.9445 31.7293 28.9445C31.7615 28.9445 31.7873 28.9796 31.7873 29.0216C31.7873 29.1197 32.1418 29.5052 32.2321 29.5052C32.2707 29.5052 32.303 29.5332 32.303 29.5682C32.303 29.6033 32.3932 29.6593 32.5092 29.6804C32.6252 29.7084 32.7606 29.7575 32.8186 29.7855C33.1344 29.9537 33.7983 30.206 33.9337 30.206C33.9917 30.206 34.0433 30.234 34.0433 30.2761C34.0433 30.3111 34.1077 30.3461 34.1915 30.3461C34.2689 30.3461 34.4171 30.3952 34.5202 30.4513C34.6169 30.5073 34.7523 30.5564 34.8103 30.5564C34.8683 30.5564 34.9585 30.5984 35.023 30.6475C35.1132 30.7246 35.1326 30.9208 35.1519 31.972C35.1648 32.848 35.197 33.2405 35.255 33.3036C35.2937 33.3456 35.3324 33.4367 35.3324 33.4998C35.3324 33.7591 36.2025 34.4879 36.3701 34.3688C36.4023 34.3548 36.441 34.1866 36.4668 34.0044C36.4861 33.8222 36.5313 33.6399 36.557 33.6049C36.5828 33.5629 36.6215 33.4367 36.6408 33.3246C36.7182 32.9181 36.8535 32.2734 36.8922 32.1682C36.918 32.1122 36.9502 31.951 36.9696 31.8108C37.0082 31.5866 36.9889 31.5375 36.8149 31.3903C36.7117 31.2992 36.6215 31.1801 36.6215 31.131C36.6215 31.089 36.5957 31.047 36.5635 31.047C36.5377 31.047 36.4604 30.9138 36.4023 30.7456C36.2928 30.4302 36.2605 29.6453 36.3572 29.6453C36.3895 29.6453 36.4281 29.5612 36.4475 29.4491C36.5184 29.0917 36.8858 28.7693 37.511 28.517C37.6528 28.461 37.7301 28.3769 37.7495 28.2507C37.7688 28.1526 37.8139 27.9704 37.8462 27.8513C37.8848 27.7321 37.9106 27.5779 37.9106 27.4939C37.9106 27.4168 37.9299 27.3327 37.9622 27.3046C37.988 27.2766 38.0395 27.0734 38.0846 26.8561C38.1233 26.6389 38.1878 26.3305 38.2264 26.1763C38.2587 26.0222 38.336 25.6928 38.394 25.4405C38.452 25.1882 38.5229 24.8728 38.5552 24.7397C38.6583 24.3122 38.813 23.5974 38.8774 23.268C38.9097 23.0928 38.9935 22.7143 39.0644 22.427C39.1353 22.1397 39.1997 21.8243 39.1997 21.7192C39.1997 21.6211 39.2255 21.516 39.2577 21.4739C39.29 21.4389 39.348 21.2356 39.3802 21.0254C39.4189 20.8151 39.4769 20.5068 39.5091 20.3386L39.5671 20.0443L37.9493 20.0513C36.6537 20.0583 36.2863 20.0793 36.093 20.1634Z" />
<path d="M47.927 20.1634C47.9463 20.2335 47.9915 20.4298 48.0237 20.605C48.101 20.9974 48.3395 22.1117 48.4169 22.392C48.4426 22.5041 48.52 22.8405 48.5844 23.1279C48.6425 23.4152 48.7134 23.7165 48.7456 23.7936C48.7714 23.8707 48.81 24.0109 48.8229 24.109C48.8616 24.3052 49.0227 25.0481 49.1645 25.6858C49.2226 25.9171 49.287 26.2325 49.3192 26.3866C49.4739 27.1575 49.6995 28.1527 49.7446 28.2788C49.8091 28.454 49.8736 28.5101 50.1636 28.5942C50.2861 28.6292 50.5052 28.7694 50.6535 28.9095C51.3303 29.5403 51.3625 30.6055 50.7244 31.3133C50.5375 31.5236 50.531 31.5586 50.5761 31.937C50.6019 32.1543 50.6406 32.3785 50.6728 32.4416C50.6986 32.5047 50.7695 32.806 50.8339 33.1144C50.892 33.4227 50.9693 33.7311 51.0015 33.7942C51.0338 33.8643 51.0595 34.0325 51.0595 34.1656C51.0595 34.4039 51.066 34.4109 51.3238 34.4109C51.7814 34.4109 52.1617 34.1586 52.4969 33.64L52.7032 33.3246L52.7225 31.9511L52.7483 30.5705L52.9868 30.4653C53.1157 30.4023 53.3348 30.3182 53.4766 30.2691C53.6184 30.2201 53.7667 30.157 53.7989 30.1289C53.8376 30.1009 53.9665 30.0589 54.089 30.0308C54.2114 30.0028 54.3468 29.9608 54.379 29.9327C54.4177 29.9047 54.6175 29.8206 54.8238 29.7435C55.391 29.5473 55.7777 29.1058 55.9517 28.461C56.0162 28.2157 56.0162 28.0686 55.9517 27.7112C55.9066 27.4659 55.8486 27.2626 55.8164 27.2626C55.7906 27.2626 55.7648 27.2206 55.7648 27.1715C55.7648 27.1015 55.1718 26.4217 53.0641 24.074L52.7483 23.7236L52.7225 22.4621C52.7032 21.2988 52.6903 21.1796 52.5485 20.9203C52.3615 20.5699 52.2133 20.4157 51.8523 20.2125C51.5752 20.0443 51.5365 20.0443 49.7318 20.0443C48.0108 20.0443 47.8948 20.0513 47.927 20.1634Z" />
<path d="M11.0967 46.6751C11.0967 52.7091 11.116 55.0638 11.1676 55.2039C11.3158 55.5894 11.4512 55.8907 11.5285 55.9818C11.5737 56.0309 11.6446 56.129 11.6897 56.1921C11.8186 56.3813 12.2956 56.7667 12.4051 56.7667C12.4567 56.7667 12.5147 56.8088 12.5276 56.8508C12.5727 56.991 14.0488 56.977 14.2937 56.8368C14.5451 56.6967 14.906 56.4163 15.0478 56.2411C15.3443 55.8837 15.4152 55.7786 15.4152 55.6945C15.4152 55.6455 15.441 55.5754 15.4732 55.5333C15.5055 55.4983 15.5764 55.274 15.6344 55.0287C15.7246 54.6363 15.7375 53.6692 15.7375 46.4579V38.3355H13.4171H11.0967V46.6751Z" />
<path d="M16.8335 46.6257C16.8335 54.3486 16.8399 54.9373 16.9495 55.2597C17.0591 55.6031 17.3105 56.0936 17.4458 56.2408C17.6005 56.416 17.9744 56.6823 18.1226 56.7314C18.2128 56.7594 18.3031 56.8225 18.3289 56.8645C18.3933 56.9696 19.85 56.9696 19.9145 56.8645C19.9403 56.8225 20.0369 56.7664 20.1401 56.7384C20.443 56.6613 21.2165 55.7502 21.2165 55.4769C21.2165 55.4209 21.2552 55.3648 21.3003 55.3508C21.3583 55.3227 21.3841 53.5427 21.397 46.8289L21.4163 38.3351H19.1217H16.8335V46.6257Z" />
<path d="M38.632 45.4135C38.6063 45.4345 38.5998 47.6561 38.6192 50.3542C38.6514 55.0847 38.6578 55.2669 38.7803 55.5402C39.2444 56.5423 40.2628 57.145 41.1974 56.9698C41.5777 56.8998 41.9902 56.7246 42.19 56.5564C42.4672 56.3251 42.7443 56.0097 42.7443 55.9326C42.7443 55.8906 42.7701 55.8556 42.7959 55.8556C42.8539 55.8556 42.9764 55.5262 43.1053 55.0286C43.2277 54.517 43.2406 45.4205 43.1182 45.3995C42.8926 45.3715 38.6707 45.3785 38.632 45.4135Z" />
<path d="M44.3172 45.4347C44.3043 45.4837 44.2978 47.6843 44.3043 50.3263C44.3172 53.8163 44.343 55.1549 44.401 55.26C44.4396 55.3371 44.5234 55.5193 44.5814 55.6735C44.7232 56.0239 45.2518 56.5915 45.5998 56.7597C46.2444 57.0821 46.9856 57.0751 47.6366 56.7527C47.9718 56.5915 48.5906 55.9328 48.6486 55.6805C48.6679 55.5824 48.7131 55.5053 48.7388 55.5053C48.8935 55.5053 48.9387 54.1668 48.9193 49.8638L48.9 45.3786L46.6247 45.3576C44.7748 45.3436 44.3494 45.3576 44.3172 45.4347Z" />
</svg>
