<svg viewBox="0 0 640 640" fill="none" xmlns="http://www.w3.org/2000/svg">
<g clip-path="url(#clip0_625_536)">
<path d="M225.121 40.4986C214.208 43.8351 206.826 54.3201 207.43 65.7492L208.603 88.3959C191.27 96.7135 175.225 106.745 160.561 118.351L140.773 107.408C130.779 101.865 118.137 103.893 110.348 112.214L110.324 112.221L98.3133 125.095C90.499 133.462 89.3686 146.238 95.6059 155.829L108.048 174.978C97.4019 190.602 88.5387 207.279 81.5407 224.832L58.6913 225.256C47.2622 225.456 37.3046 233.515 34.7417 244.656L30.7849 261.812C28.2281 272.927 33.6219 284.554 43.7978 289.754L63.9665 300.057C62.5426 318.708 63.1762 337.632 65.9733 356.643L46.5426 368.335C36.7728 374.225 32.167 386.215 35.5014 397.121L40.6471 413.952C43.9814 424.858 54.4532 432.243 65.8737 431.649L88.5132 430.453C96.8294 447.787 106.887 463.821 118.492 478.487L107.557 498.3C102.007 508.306 104.026 520.956 112.369 528.748L125.243 540.759C133.61 548.573 146.386 549.704 155.978 543.466L175.103 531.031C190.739 541.688 207.419 550.554 224.988 557.555L225.38 580.388C225.58 591.817 233.664 601.768 244.804 604.331L261.961 608.287C273.086 610.847 284.703 605.447 289.895 595.251L300.205 575.106C318.856 576.524 337.772 575.897 356.791 573.099L368.483 592.53L368.49 592.554C374.39 602.309 386.356 606.907 397.269 603.571L414.1 598.425C425.013 595.089 432.394 584.583 431.783 573.151L430.618 550.528C447.952 542.208 463.998 532.171 478.659 520.573L498.448 531.516C508.442 537.059 521.083 535.031 528.873 526.71L528.897 526.703L540.907 513.829L540.924 513.798C548.709 505.437 549.837 492.697 543.622 483.118L531.173 463.945C541.819 448.322 550.682 431.645 557.68 414.092L580.529 413.668C591.959 413.468 601.916 405.409 604.479 394.268L608.436 377.112C610.993 365.997 605.599 354.37 595.423 349.17L595.392 349.154L575.254 338.867C576.672 320.222 576.043 301.294 573.247 282.281L592.654 270.596C602.438 264.71 607.056 252.716 603.719 241.803L598.574 224.972C595.237 214.059 584.742 206.697 573.347 207.274L550.7 208.447C542.385 191.119 532.323 175.074 520.722 160.413L531.664 140.624C537.207 130.63 535.196 117.958 526.875 110.168L526.851 110.176L513.97 98.141C505.61 90.3326 492.856 89.2289 483.267 95.4502L483.243 95.4575L464.087 107.876C448.463 97.2297 431.786 88.3651 414.233 81.3683L413.84 58.5355L413.833 58.5116C413.622 47.1058 405.554 37.1601 394.44 34.586L377.253 30.6126C366.127 28.0531 354.511 33.4531 349.319 43.6493L339.039 63.8107C320.381 62.3899 301.457 63.0257 282.429 65.8248L270.738 46.3941L270.73 46.3702C264.831 36.6144 252.865 32.0164 241.952 35.3529L225.121 40.4986ZM233.036 64.8485L249.03 59.9586L268.899 92.9668L277.631 91.3429C300.536 87.0943 323.381 86.3779 345.639 88.9026L354.463 89.8907L371.92 55.6665L388.235 59.4362L388.96 98.062L397.292 101.031C418.747 108.687 438.925 119.427 457.267 132.94L464.387 138.187L496.831 117.158L509.056 128.583L490.475 162.21L496.222 168.949C510.754 185.974 522.949 205.353 532.236 226.719L535.765 234.842L574.216 232.863L579.114 248.881L546.105 268.75L547.722 277.458C551.971 300.363 552.694 323.232 550.17 345.49L549.174 354.291L583.382 371.779L579.636 388.086L541.003 388.787L538.01 397.127C530.354 418.582 519.645 438.776 506.132 457.118L500.885 464.238L521.883 496.666L510.465 508.914L476.855 490.303L470.116 496.049C453.081 510.576 433.715 522.803 412.353 532.087L404.206 535.624L406.185 574.075L390.191 578.965L370.322 545.957L361.59 547.581C338.685 551.829 315.84 552.546 293.582 550.021L284.758 549.033L267.294 583.233L250.986 579.488L250.261 540.862L241.922 537.869C220.466 530.213 200.296 519.497 181.954 505.984L174.834 500.736L142.382 521.742L130.158 510.317L148.745 476.714L142.992 469.951C128.459 452.925 116.271 433.57 106.985 412.205L103.449 404.058L64.9969 406.037L60.107 390.042L93.1152 370.174L91.4987 361.466C87.2493 338.556 86.5157 315.687 89.0511 293.434L90.0465 284.633L55.8389 267.145L59.5846 250.837L98.2178 250.137L101.21 241.797C108.866 220.342 119.575 200.148 133.088 181.806L138.336 174.685L117.338 142.258L128.755 130.009L162.365 148.621L169.129 142.867C186.154 128.334 205.502 116.123 226.867 106.837L235.014 103.3L233.036 64.8485ZM254.991 151.882L241.551 158.37C200.544 178.197 169.634 212.312 153.374 252.776L147.791 266.665L260.834 292.755L265.683 285.102C269.828 278.571 275.196 272.787 281.594 268.055L288.87 262.694L286.224 254.04L254.991 151.882ZM279.473 144.398L313.344 255.185L322.381 255.586C330.32 255.934 337.996 257.722 345.104 260.821L353.428 264.446L359.588 257.831L432.531 179.611L420.136 171.219C384.031 146.766 339.338 135.764 294.243 142.261L279.473 144.398ZM240.1 190.734L259.652 254.687C256.457 257.646 253.524 260.788 250.811 264.161L185.503 249.097C198.047 225.265 216.483 205.349 240.1 190.734ZM313.544 168.28C341.301 167.187 367.718 173.391 391.443 186.134L345.748 235.135C341.605 233.855 337.405 232.902 333.096 232.232L313.544 168.28ZM142.089 291.623L141.004 306.542C139.451 327.928 141.566 350.025 148.241 371.855C154.915 393.685 165.517 413.187 178.763 430.049L188.006 441.81L267.052 357.046L262.903 349.034C261.077 345.506 259.546 341.901 258.407 338.174C257.267 334.447 256.52 330.602 256.062 326.656L255.021 317.694L142.089 291.623ZM451.215 197.113L372.168 281.878L376.317 289.89C378.144 293.418 379.674 297.023 380.814 300.75C381.953 304.477 382.701 308.322 383.159 312.268L384.2 321.23L497.132 347.301L498.217 332.382C499.77 310.995 497.654 288.899 490.98 267.069C484.306 245.239 473.704 225.737 460.457 208.875L451.215 197.113ZM168.254 323.935L232.524 338.767C233.021 341.074 233.213 343.327 233.925 345.658C234.638 347.99 235.739 349.965 236.618 352.155L191.63 400.391C184.386 389.042 176.843 377.849 172.722 364.37C168.601 350.892 168.595 337.394 168.254 323.935ZM447.591 238.533C454.835 249.882 462.378 261.075 466.499 274.554C470.62 288.032 470.625 301.53 470.966 314.989L406.696 300.157C406.2 297.85 406.008 295.597 405.295 293.265C404.582 290.934 403.482 288.959 402.603 286.769L447.591 238.533ZM285.793 374.478L279.633 381.093L206.69 459.313L219.085 467.705C255.19 492.158 299.882 503.16 344.977 496.663L359.748 494.526L325.877 383.738L316.84 383.338C308.9 382.99 301.225 381.201 294.116 378.103L285.793 374.478ZM378.387 346.169L373.538 353.821C369.393 360.353 364.024 366.137 357.626 370.868L350.351 376.23L352.997 384.884L384.229 487.042L397.67 480.553C438.676 460.726 469.587 426.612 485.846 386.148L491.429 372.259L378.387 346.169ZM293.473 403.788C297.616 405.069 301.816 406.022 306.125 406.691L325.677 470.644C297.92 471.737 271.503 465.533 247.778 452.789L293.473 403.788ZM388.41 374.763L453.718 389.827C441.174 413.659 422.738 433.575 399.121 448.19L379.569 384.237C382.764 381.278 385.696 378.135 388.41 374.763Z" fill="white"/>
</g>
<defs>
<clipPath id="clip0_625_536">
<rect fill="white"/>
</clipPath>
</defs>
</svg>
