<?xml version="1.0" encoding="UTF-8"?>
<svg version="1.1" xmlns="http://www.w3.org/2000/svg" xmlns:xlink="http://www.w3.org/1999/xlink">
<defs>
<clipPath id="clip0_348_613"><path fill="#fff" transform="translate(11 8)" d="M0 0h26v32H0z"/></clipPath>
<clipPath id="clip0_348_614"><path fill="#fff" transform="translate(13 7.086)" d="M0 0h21v33H0z"/></clipPath>
</defs>
<symbol id="i-mail" viewBox="0 0 49 48" fill="none" xmlns="http://www.w3.org/2000/svg"><path d="M36.813 13.172H12.436a.936.936 0 00-.937.937v18.75c0 .519.419.938.938.938h24.374a.936.936 0 00.938-.938V14.11a.936.936 0 00-.938-.937zm-1.172 3.246v15.27H13.609v-15.27l-.808-.63 1.151-1.48 1.254.976h18.84l1.255-.976 1.151 1.48-.811.63zm-1.594-1.137l-9.422 7.324-9.422-7.324-1.254-.976-1.151 1.48.808.63 10.008 7.781a1.64 1.64 0 002.013 0l10.014-7.778.808-.63-1.151-1.48-1.251.973z" fill="#2091F9"/></symbol>
<symbol id="i-marker" viewBox="0 0 48 48" fill="none" xmlns="http://www.w3.org/2000/svg"><g clip-path="url(#clip0_348_613)" fill="#2091F9"><path d="M24 27.167a6.34 6.34 0 006.333-6.334A6.34 6.34 0 0024 14.5a6.34 6.34 0 00-6.334 6.333A6.34 6.34 0 0024 27.167zm0-9.5a3.17 3.17 0 013.166 3.166A3.17 3.17 0 0124 24a3.17 3.17 0 01-3.167-3.167A3.17 3.17 0 0124 17.667z"/><path d="M22.749 39.539a1.58 1.58 0 001.836 0c.482-.34 11.795-8.509 11.749-18.706 0-6.984-5.683-12.666-12.667-12.666S11 13.849 11 20.825C10.954 31.03 22.267 39.198 22.75 39.54zm.918-28.206c5.24 0 9.5 4.261 9.5 9.508.033 7.027-6.948 13.337-9.5 15.406-2.55-2.07-9.533-8.382-9.5-15.414 0-5.239 4.26-9.5 9.5-9.5z"/></g></symbol>
<symbol id="i-phone" viewBox="0 0 48 48" fill="none" xmlns="http://www.w3.org/2000/svg"><g clip-path="url(#clip0_348_614)"><path d="M29.042 7.958H17.375A4.37 4.37 0 0013 12.333v23.334a4.37 4.37 0 004.375 4.375h11.667a4.37 4.37 0 004.375-4.375V12.333a4.37 4.37 0 00-4.375-4.375zm-2.917 29.167h-5.833v-1.458h5.833v1.458zm4.74-4.375H15.552V12.333h15.313V32.75z" fill="#2091F9"/></g></symbol>
</svg>