<?xml version="1.0" encoding="UTF-8"?>
<svg version="1.1" xmlns="http://www.w3.org/2000/svg" xmlns:xlink="http://www.w3.org/1999/xlink">
<defs>

</defs>
<symbol id="i-discord" viewBox="0 0 40 40" fill="none" xmlns="http://www.w3.org/2000/svg"><rect width="40" height="40" rx="20" fill="#2B2B2B"/><path d="M29.027 14.027c-1.65-1.28-3.633-1.92-5.724-2.027l-.33.32c1.871.427 3.522 1.28 5.064 2.453a17.153 17.153 0 00-6.165-1.813c-.661-.107-1.212-.107-1.872-.107-.66 0-1.211 0-1.872.107a17.153 17.153 0 00-6.165 1.813c1.542-1.173 3.193-2.026 5.065-2.453l-.33-.32c-2.093.107-4.074.747-5.726 2.027C9.101 17.44 8.11 21.28 8 25.227 9.651 26.933 11.963 28 14.385 28c0 0 .771-.853 1.321-1.6-1.43-.32-2.752-1.067-3.633-2.24.771.427 1.542.853 2.312 1.173.991.427 1.982.64 2.973.854.88.106 1.761.213 2.642.213.88 0 1.761-.107 2.642-.213.991-.214 1.982-.427 2.973-.854.77-.32 1.541-.746 2.312-1.173-.881 1.173-2.202 1.92-3.633 2.24.55.747 1.32 1.6 1.32 1.6 2.423 0 4.735-1.067 6.386-2.773-.11-3.947-1.1-7.787-2.973-11.2zm-12.66 9.28c-1.1 0-2.092-.96-2.092-2.134 0-1.173.991-2.133 2.092-2.133 1.1 0 2.092.96 2.092 2.133 0 1.174-.991 2.134-2.092 2.134zm7.266 0c-1.1 0-2.092-.96-2.092-2.134 0-1.173.991-2.133 2.092-2.133 1.1 0 2.092.96 2.092 2.133 0 1.174-.991 2.134-2.092 2.134z" fill="#fff"/></symbol>
<symbol id="i-google" viewBox="0 0 40 40" fill="none" xmlns="http://www.w3.org/2000/svg"><path d="M40 20C40 8.954 31.046 0 20 0S0 8.954 0 20s8.954 20 20 20 20-8.954 20-20z" fill="#2B2B2B"/><path fill-rule="evenodd" clip-rule="evenodd" d="M29.788 20.227c0-.709-.064-1.39-.182-2.045h-9.419v3.868h5.382a4.6 4.6 0 01-1.995 3.018v2.51h3.232c1.89-1.742 2.982-4.305 2.982-7.35z" fill="#fff"/><path fill-rule="evenodd" clip-rule="evenodd" d="M20.187 30c2.7 0 4.964-.895 6.618-2.423l-3.232-2.509c-.895.6-2.04.955-3.386.955-2.604 0-4.809-1.76-5.595-4.123H11.25v2.59A9.996 9.996 0 0020.187 30z" fill="#fff"/><path fill-rule="evenodd" clip-rule="evenodd" d="M14.592 21.9c-.2-.6-.314-1.241-.314-1.9 0-.66.114-1.3.314-1.9v-2.591h-3.34A9.997 9.997 0 0010.186 20c0 1.614.387 3.14 1.064 4.49l3.341-2.59z" fill="#fff"/><path fill-rule="evenodd" clip-rule="evenodd" d="M20.187 13.977c1.468 0 2.787.505 3.823 1.496l2.868-2.868C25.146 10.99 22.883 10 20.188 10c-3.91 0-7.292 2.24-8.937 5.51l3.34 2.59c.787-2.364 2.992-4.123 5.596-4.123z" fill="#fff"/></symbol>
<symbol id="i-ok" viewBox="0 0 40 40" fill="none" xmlns="http://www.w3.org/2000/svg"><rect width="40" height="40" rx="20" fill="#2B2B2B"/><path d="M26.238 22.793c.524-.525.6-1.274.15-2.024-.375-.6-1.05-.9-1.8-.75-.3.075-.6.225-.899.45-2.324 1.574-5.472 1.5-7.796-.075l-.45-.225c-.824-.375-1.649-.225-2.099.525-.524.75-.45 1.574.225 2.249.15.15.3.225.375.375l.075.074c1.05.825 2.324 1.35 3.973 1.575l-.975.974-2.548 2.549c-.225.225-.525.6-.525 1.124 0 .675.375 1.35 1.05 1.65.224.15.45.15.674.15.375 0 .825-.15 1.125-.525l2.923-2.924.075-.075s.075 0 .075.075c.6.675 1.274 1.274 1.874 1.95l.9.899c.374.375.674.524 1.124.524.675.075 1.424-.374 1.724-1.05.3-.599.15-1.348-.375-1.798-.75-.75-1.499-1.574-2.324-2.324l-1.274-1.274c.675-.075 1.424-.225 2.099-.525 1.124-.375 1.949-.9 2.624-1.574z" fill="#fff"/><path d="M19.791 20.694c3.223 0 5.847-2.549 5.847-5.772 0-1.574-.6-3.074-1.724-4.198C22.789 9.6 21.365 9 19.866 9c-3.223 0-5.772 2.624-5.847 5.772 0 1.574.6 2.998 1.724 4.123 1.05 1.2 2.474 1.799 4.048 1.799zm-1.65-7.496c.45-.45 1.05-.675 1.65-.675 1.35 0 2.324 1.05 2.324 2.324 0 1.35-1.05 2.324-2.324 2.324-1.35 0-2.324-1.05-2.324-2.324 0-.6.225-1.2.675-1.65z" fill="#fff"/><path d="M26.238 22.793c.524-.525.6-1.274.15-2.024-.375-.6-1.05-.9-1.8-.75-.3.075-.6.225-.899.45-2.324 1.574-5.472 1.5-7.796-.075l-.45-.225c-.824-.375-1.649-.225-2.099.525-.524.75-.45 1.574.225 2.249.15.15.3.225.375.375l.075.074c1.05.825 2.324 1.35 3.973 1.575l-.975.974-2.548 2.549c-.225.225-.525.6-.525 1.124 0 .675.375 1.35 1.05 1.65.224.15.45.15.674.15.375 0 .825-.15 1.125-.525l2.923-2.924.075-.075s.075 0 .075.075c.6.675 1.274 1.274 1.874 1.95l.9.899c.374.375.674.524 1.124.524.675.075 1.424-.374 1.724-1.05.3-.599.15-1.348-.375-1.798-.75-.75-1.499-1.574-2.324-2.324l-1.274-1.274c.675-.075 1.424-.225 2.099-.525 1.124-.375 1.949-.9 2.624-1.574z" fill="#fff"/></symbol>
<symbol id="i-telegram" viewBox="0 0 40 40" fill="none" xmlns="http://www.w3.org/2000/svg"><rect width="40" height="40" rx="20" fill="#2B2B2B"/><path d="M28 12.602l-3.005 15.69s-.42 1.088-1.576.566l-6.934-5.505-.033-.017c.937-.87 8.2-7.633 8.518-7.94.491-.475.186-.757-.384-.399l-10.73 7.056-4.138-1.442s-.652-.24-.714-.762c-.064-.523.735-.805.735-.805l16.874-6.855S28 11.558 28 12.602z" fill="#fff"/></symbol>
<symbol id="i-vk" viewBox="0 0 40 40" fill="none" xmlns="http://www.w3.org/2000/svg"><rect width="40" height="40" rx="20" fill="#2B2B2B"/><path d="M20.983 27C13.466 27 9.179 21.745 9 13h3.765c.124 6.418 2.9 9.137 5.098 9.698V13h3.546v5.535c2.17-.238 4.452-2.76 5.221-5.535h3.546a10.789 10.789 0 01-1.698 4.003 10.558 10.558 0 01-3.126 2.976 10.895 10.895 0 013.563 2.893A11.153 11.153 0 0131 27h-3.903a6.94 6.94 0 00-2.104-3.377 6.726 6.726 0 00-3.584-1.626V27h-.426z" fill="#fff"/></symbol>
<symbol id="i-whatsapp" viewBox="0 0 40 40" fill="none" xmlns="http://www.w3.org/2000/svg"><rect width="40" height="40" rx="20" fill="#2B2B2B"/><path d="M27.927 12.063A10.428 10.428 0 0020.537 9c-5.78 0-10.464 4.667-10.464 10.427 0 1.823.512 3.646 1.39 5.177L10 30l5.561-1.458c1.537.802 3.22 1.24 4.976 1.24 5.78 0 10.463-4.667 10.463-10.428-.073-2.698-1.098-5.323-3.073-7.291zm-2.342 11.083c-.22.583-1.244 1.166-1.756 1.24a4.104 4.104 0 01-1.61-.073c-.365-.146-.878-.292-1.463-.584-2.634-1.094-4.317-3.719-4.463-3.937-.147-.146-1.098-1.386-1.098-2.698 0-1.313.659-1.896.878-2.188.22-.291.512-.291.732-.291h.512c.146 0 .366-.073.585.437.22.51.732 1.823.805 1.896a.463.463 0 010 .437c-.073.146-.146.292-.292.438-.147.146-.293.364-.366.437-.147.146-.293.292-.147.51.147.293.659 1.095 1.464 1.824 1.024.875 1.83 1.166 2.122 1.312.293.146.439.073.585-.073.146-.145.659-.729.805-1.02.146-.292.366-.22.585-.146.22.073 1.537.729 1.756.875.293.145.44.218.513.291.073.22.073.73-.147 1.313z" fill="#fff"/></symbol>
<symbol id="i-youtube" viewBox="0 0 40 40" fill="none" xmlns="http://www.w3.org/2000/svg"><rect width="40" height="40" rx="20" fill="#2B2B2B"/><path fill-rule="evenodd" clip-rule="evenodd" d="M11.262 27.057a2.568 2.568 0 01-1.043-.602 2.487 2.487 0 01-.642-1.004c-.734-1.964-.952-10.164.462-11.783a2.742 2.742 0 011.849-.902c3.792-.398 15.51-.345 16.855.133.379.12.725.321 1.012.59.287.269.508.598.646.962.802 2.03.83 9.408-.108 11.358a2.538 2.538 0 01-1.183 1.168c-1.413.69-15.972.677-17.848.08zm6.022-3.848l6.797-3.45-6.797-3.477v6.927z" fill="#fff"/></symbol>
</svg>