<?xml version="1.0" encoding="UTF-8"?>
<svg version="1.1" xmlns="http://www.w3.org/2000/svg" xmlns:xlink="http://www.w3.org/1999/xlink">
<defs>

</defs>
<symbol id="i-bookmark" viewBox="0 0 20 20" xmlns="http://www.w3.org/2000/svg"><path d="M6.875 2.083a2.718 2.718 0 00-2.708 2.709v12.5a.625.625 0 00.99.507L10 14.312l4.843 3.487a.625.625 0 00.99-.507v-12.5a2.718 2.718 0 00-2.708-2.708h-6.25zm0 1.25h6.25a1.45 1.45 0 011.458 1.459v11.28l-4.217-3.037a.626.626 0 00-.731 0l-4.218 3.037V4.792a1.45 1.45 0 011.458-1.458z"/></symbol>
<symbol id="i-burger" viewBox="0 0 20 20" xmlns="http://www.w3.org/2000/svg"><path d="M2.292 3.75a.625.625 0 100 1.25h15.416a.625.625 0 100-1.25H2.292zm0 5.625a.625.625 0 100 1.25h15.416a.626.626 0 00.242-1.205.625.625 0 00-.242-.045H2.292zm0 5.625a.624.624 0 100 1.25h15.416a.626.626 0 00.242-1.205.624.624 0 00-.242-.045H2.292z"/></symbol>
<symbol id="i-close" viewBox="0 0 20 20" xmlns="http://www.w3.org/2000/svg"><path d="M16.453 2.908a.625.625 0 00-.436.192L10 9.116 3.984 3.1a.625.625 0 10-.884.884L9.116 10 3.1 16.017a.626.626 0 10.884.883L10 10.884l6.017 6.016a.625.625 0 10.883-.883L10.884 10 16.9 3.984a.625.625 0 00-.447-1.076z"/></symbol>
<symbol id="i-like" viewBox="0 0 20 20" xmlns="http://www.w3.org/2000/svg"><path d="M6.25 2.917A4.593 4.593 0 001.667 7.5c0 1.707 1.286 3.313 2.855 4.962 1.568 1.648 3.498 3.317 5.036 4.855a.625.625 0 00.884 0c1.538-1.538 3.468-3.207 5.037-4.855 1.568-1.649 2.854-3.255 2.854-4.962a4.593 4.593 0 00-4.583-4.583c-1.448 0-2.71.777-3.75 2.098C8.96 3.695 7.7 2.917 6.25 2.917zm0 1.25c1.22 0 2.236.649 3.222 2.208a.625.625 0 001.056 0c.986-1.56 2.002-2.208 3.222-2.208A3.324 3.324 0 0117.083 7.5c0 1.001-1.005 2.52-2.51 4.1-1.371 1.442-3.077 2.949-4.573 4.407-1.496-1.458-3.201-2.965-4.573-4.406-1.505-1.582-2.51-3.1-2.51-4.101A3.324 3.324 0 016.25 4.167z"/></symbol>
<symbol id="i-phone" viewBox="0 0 20 20" xmlns="http://www.w3.org/2000/svg"><path d="M7.934 1.672a2.331 2.331 0 00-.831.09l-.987.292a3.141 3.141 0 00-2.15 2.197c-.617 2.34.09 5.111 1.926 8.23 1.834 3.114 3.924 5.094 6.284 5.74 1.063.29 2.21.013 3.014-.735l.75-.696c.84-.78.965-2.078.287-3l-1.084-1.472a2.333 2.333 0 00-2.547-.843l-1.696.508c-.071.02-.242-.076-.39-.204v-.001c-.265-.23-.63-.694-1.022-1.357v-.001c-.42-.713-.599-1.18-.67-1.455-.072-.275-.055-.308-.045-.402a.197.197 0 01.066-.123v-.001l1.265-1.156c.725-.663.943-1.721.535-2.612l-.763-1.663v-.001a2.318 2.318 0 00-1.942-1.335zm-.09 1.247c.382.029.734.258.895.61l.764 1.663A.999.999 0 019.26 6.36L7.996 7.516a1.45 1.45 0 00-.464.907c-.01.092-.035.432.076.858s.341.99.803 1.774c.431.73.838 1.285 1.279 1.668.144.124.744.699 1.56.46h.002l1.704-.51a1.08 1.08 0 011.18.386l1.084 1.472c.307.418.254.987-.13 1.343l-.75.696a1.97 1.97 0 01-1.834.445c-1.909-.523-3.797-2.213-5.537-5.168C5.227 8.888 4.682 6.441 5.175 4.57A1.906 1.906 0 016.47 3.253l.986-.293c.128-.038.259-.05.386-.041z"/></symbol>
<symbol id="i-subscribe" viewBox="0 0 20 20" xmlns="http://www.w3.org/2000/svg"><path d="M2.708 3.333a.625.625 0 100 1.25h14.584a.625.625 0 100-1.25H2.708zm0 5.833a.625.625 0 100 1.25h11.667a2.282 2.282 0 012.292 2.292A2.282 2.282 0 0114.375 15h-3.908l1.017-1.017a.625.625 0 10-.884-.883l-2.084 2.083a.625.625 0 000 .884L10.6 18.15a.627.627 0 001.03-.197.625.625 0 00-.146-.687l-1.017-1.016h3.908a3.551 3.551 0 003.542-3.542 3.551 3.551 0 00-3.542-3.542H2.708zm0 5.834a.628.628 0 00-.634.625.625.625 0 00.634.625h3.334a.624.624 0 100-1.25H2.708z"/></symbol>
</svg>