<?xml version="1.0" encoding="UTF-8"?>
<svg version="1.1" xmlns="http://www.w3.org/2000/svg" xmlns:xlink="http://www.w3.org/1999/xlink">
<defs>

</defs>
<symbol id="i-autonomy" viewBox="0 0 73 72" fill="none" xmlns="http://www.w3.org/2000/svg"><path d="M33.306 39.573l-8.37-.76c-1.528-.14-2.292-.209-2.535-.732-.242-.522.198-1.15 1.078-2.407L37.56 15.555c.581-.83.872-1.245 1.123-1.157.25.089.217.594.15 1.605l-.954 14.299c-.062.92-.092 1.38.172 1.69.265.31.724.351 1.642.435l8.37.76c1.528.14 2.292.209 2.535.732.242.522-.198 1.15-1.077 2.407L35.439 56.445c-.581.83-.872 1.245-1.123 1.157-.25-.089-.217-.594-.15-1.605l.954-14.299c.062-.92.092-1.38-.172-1.69-.265-.31-.724-.351-1.642-.435z" fill="#2091F9" stroke="#fff"/><path d="M52.75 16L49 21h5l-3.75 5M22.75 46L19 51h5l-3.75 5" stroke="#7E869E" stroke-opacity=".25" stroke-linecap="round" stroke-linejoin="round"/></symbol>
<symbol id="i-compact" viewBox="0 0 73 72" fill="none" xmlns="http://www.w3.org/2000/svg"><ellipse cx="36.5" cy="21" rx="17.5" ry="7.5" stroke="#2091F9" stroke-width="2"/><path d="M54 51c0 .985-.453 1.96-1.332 2.87-.88.91-2.169 1.737-3.794 2.433-1.625.697-3.554 1.25-5.677 1.626-2.123.377-4.399.571-6.697.571s-4.574-.194-6.697-.57c-2.123-.378-4.052-.93-5.677-1.627-1.625-.696-2.914-1.523-3.794-2.433C19.452 52.96 19 51.985 19 51M54 21v30M19 21v30" stroke="#2091F9" stroke-width="2"/></symbol>
<symbol id="i-technology" viewBox="0 0 73 72" fill="none" xmlns="http://www.w3.org/2000/svg"><path d="M41.68 12.801h-1v.05l.005.05.995-.1zm0 0h1v-.05l-.005-.05-.995.1zm.49 4.904l-.995.1.995-.1zm.798 2.679l.383-.924-.383.924zm2.459-1.33l-.633-.774.633.774zm3.814-3.121l.633.774-.633-.774zm1.384-.798l.05-.999-.05 1zm1.297.932l-.707.707.707-.707zm4.511 4.511l-.707.707.707-.707zm.932 1.297l.999-.05-1 .05zm-.798 1.384l-.774-.634.774.634zm-3.12 3.814l-.775-.633.774.633zm1.348 3.256l-.1.995.1-.995zm4.904.49l.1-.994-.1.995zm1.543.415l-.742.671.742-.671zm0 9.532l-.742-.671.742.671zm-1.543.414l.1.995-.1-.995zm-4.903.49l-.1-.995.1.995zm-2.68.798l-.923-.382.924.382zm1.331 2.459l-.774.633.774-.633zm3.12 3.813l-.774.633.774-.633zm.798 1.384l.999.05-1-.05zm-6.74 6.74l.05.999-.05-1zm-1.384-.798l-.633.774.633-.774zm-3.814-3.12l.633-.775-.633.774zm-2.459-1.331l-.382-.924.382.924zm-.797 2.68l-.995-.1.995.1zm-.49 4.904l.994.1-.995-.1zm-.415 1.543L40.595 60l.671.742zm-9.532 0l.671-.742-.671.742zm-.414-1.543l-.995.1.995-.1zm-.49-4.904l.995-.1-.995.1zm-3.257-1.349l.633.774-.633-.774zm-3.814 3.121l-.634-.774.634.774zm-1.384.798l-.05.999.05-1zm-1.297-.932l.707-.707-.707.707zm-4.511-4.511l-.708.707.708-.707zm-.932-1.297l-.999.05.999-.05zm.798-1.384l-.774-.633.774.633zm3.12-3.814l.775.633-.774-.633zm1.331-2.459l.924-.382-.924.382zm-2.68-.798l.1-.995-.1.995zm-4.903-.49l.1-.995-.05-.005h-.05v1zm0 0l-.1.995.05.005h.05v-1zm-1.543-.414l.742-.671-.742.671zm0-9.532l.742.671-.742-.671zm1.543-.414v-1h-.05l-.05.005.1.995zm0 0v1h.05l.05-.005-.1-.995zm4.905-.49l.1.995-.1-.996zm2.679-.798l-.924-.383.924.383zm-1.33-2.46l-.774.634.774-.633zm-3.122-3.814l-.774.633.774-.633zm-.798-1.384l-.999-.05 1 .05zm.932-1.297l.707.707-.707-.707zm4.511-4.512l-.707-.707.707.707zm1.297-.931l.05.999-.05-1zm1.384.798l.633-.774-.633.774zm3.814 3.12l.633-.773-.633.774zm2.459 1.331l-.383-.924.383.924zm.798-2.68l.995.1-.995-.1zm.49-4.902l.995.1.005-.05v-.05h-1zm0 0l-.995-.1-.005.05v.05h1zm.414-1.543l.671.742-.671-.742zm9.532 0l-.671.742.671-.742zm1.414 1.543h-2 2zm.486 4.804l-.49-4.904-1.99.2.49 4.903 1.99-.199zm.185 1.855c.174.072.13.214.042-.133-.087-.348-.142-.871-.227-1.722l-1.99.2c.078.782.145 1.484.278 2.01.132.527.405 1.192 1.132 1.493l.765-1.848zm1.443-1.18c-.662.541-1.07.872-1.379 1.056-.306.184-.238.052-.064.124l-.765 1.848c.726.3 1.389.024 1.856-.255.465-.279 1.01-.727 1.618-1.225l-1.266-1.548zm3.814-3.121l-3.814 3.12 1.266 1.549 3.814-3.121-1.266-1.548zm2.067-1.023c-.475-.023-.86.147-1.166.338-.282.176-.589.43-.901.685l1.266 1.548c.354-.29.546-.444.693-.536.123-.077.098-.033.008-.037l.1-1.998zm1.954 1.224c-.285-.286-.566-.569-.829-.772-.285-.22-.65-.428-1.125-.452l-.1 1.998c-.09-.005-.111-.05.004.038.137.106.313.279.636.602l1.414-1.415zm4.511 4.51l-4.511-4.51-1.414 1.414 4.511 4.511 1.414-1.414zm1.224 1.955c-.024-.474-.232-.84-.452-1.125-.203-.264-.486-.544-.772-.83l-1.414 1.415c.323.323.496.499.602.636.089.115.043.094.038.004l1.998-.1zm-1.023 2.067c.255-.312.51-.62.685-.901.19-.306.361-.69.338-1.166l-1.998.1c-.004-.09.04-.115-.037.008-.092.147-.247.339-.536.692l1.548 1.267zm-3.12 3.814l3.12-3.814-1.548-1.267-3.12 3.815 1.547 1.266zM53.04 29.15c.072.174-.06.242.124-.064.184-.308.515-.717 1.056-1.379l-1.548-1.266c-.498.609-.947 1.153-1.225 1.618-.279.467-.556 1.13-.255 1.856l1.848-.765zm1.855.185c-.85-.085-1.374-.14-1.722-.227-.347-.087-.205-.132-.133.042l-1.848.765c.301.727.965 1 1.493 1.132.526.133 1.228.2 2.01.279l.2-1.99zm4.903.49l-4.903-.49-.2 1.99 4.904.49.2-1.99zm2.185.739c-.32-.352-.711-.504-1.063-.585-.324-.075-.72-.113-1.122-.153l-.199 1.99c.455.045.7.072.87.111.14.033.091.046.031-.021l1.483-1.342zm.517 2.247c0-.403.002-.802-.04-1.131-.047-.358-.158-.764-.477-1.116L60.5 31.905c-.06-.067-.043-.114-.024.03.022.171.024.418.024.875h2zm0 6.38v-6.38h-2v6.38h2zm-.517 2.247c.319-.352.43-.758.477-1.116.042-.33.04-.728.04-1.131h-2c0 .457-.002.704-.024.876-.019.143-.036.096.024.029l1.483 1.342zm-2.184.738c.4-.04.797-.078 1.121-.153.352-.081.744-.233 1.063-.585L60.5 40.095c.06-.067.11-.054-.032-.021-.169.04-.414.066-.869.111l.2 1.99zm-4.903.49l4.902-.49-.199-1.99-4.902.49.199 1.99zm-1.855.186c-.072.174-.214.13.133.042.348-.087.871-.142 1.722-.228l-.2-1.99c-.782.079-1.484.146-2.01.279-.528.132-1.192.405-1.493 1.132l1.848.765zm1.18 1.443c-.541-.662-.872-1.07-1.056-1.379-.184-.307-.052-.238-.124-.064l-1.848-.765c-.301.726-.024 1.389.255 1.856.278.465.727 1.01 1.225 1.618l1.548-1.266zm3.12 3.813l-3.12-3.813-1.548 1.266 3.12 3.813 1.548-1.266zm1.023 2.066c.023-.474-.147-.859-.338-1.165-.176-.282-.43-.589-.685-.901l-1.548 1.266c.29.354.444.546.536.693.077.123.033.098.037.008l1.998.1zm-1.223 1.955c.285-.285.568-.566.77-.829.221-.285.429-.65.453-1.126l-1.998-.1c.005-.09.05-.11-.038.005-.106.137-.279.313-.602.636l1.415 1.414zm-4.512 4.511l4.512-4.511-1.415-1.414-4.511 4.511 1.414 1.414zm-1.954 1.224c.474-.024.84-.232 1.126-.452.262-.203.543-.486.828-.772l-1.414-1.414c-.323.323-.499.496-.636.602-.115.089-.094.043-.004.038l.1 1.998zm-2.067-1.023c.312.255.62.51.901.685.306.19.69.361 1.166.338l-.1-1.998c.09-.004.115.04-.008-.037-.147-.092-.339-.247-.693-.536l-1.266 1.548zm-3.814-3.12l3.814 3.12 1.267-1.548-3.815-3.12-1.266 1.547zm-1.443-1.181c-.174.072-.242-.06.064.124.308.184.717.515 1.379 1.056l1.266-1.548c-.609-.498-1.153-.947-1.618-1.225-.467-.279-1.13-.556-1.856-.255l.765 1.848zm-.185 1.855c.085-.85.14-1.374.227-1.722.087-.347.132-.205-.042-.133l-.765-1.848c-.727.301-1 .965-1.132 1.493-.133.526-.2 1.228-.279 2.01l1.99.2zm-.49 4.904l.49-4.904-1.99-.2-.49 4.905 1.99.2zm-.739 2.185c.352-.32.504-.711.585-1.063.075-.324.113-.72.153-1.122l-1.99-.199c-.045.455-.072.7-.111.87-.033.14-.046.091.021.031l1.342 1.483zM39.69 62c.403 0 .802.002 1.131-.04.358-.047.764-.158 1.116-.477L40.595 60c.067-.06.114-.043-.03-.024-.171.022-.418.024-.875.024v2zm-6.38 0h6.38v-2h-6.38v2zm-2.247-.517c.352.319.758.43 1.116.477.33.042.728.04 1.131.04v-2c-.457 0-.704-.002-.876-.024-.143-.019-.096-.036-.029.024l-1.342 1.483zm-.738-2.184c.04.4.078.797.153 1.121.081.352.232.744.585 1.063L32.405 60c.067.06.054.11.021-.032-.04-.169-.066-.414-.111-.869l-1.99.2zm-.49-4.904l.49 4.903 1.99-.199-.49-4.903-1.99.199zm-.186-1.855c-.174-.072-.13-.214-.042.133.087.348.142.871.227 1.722l1.99-.2c-.078-.782-.145-1.484-.278-2.01-.132-.528-.405-1.192-1.132-1.493l-.765 1.848zm-1.443 1.18c.662-.541 1.07-.872 1.379-1.056.306-.184.238-.052.064-.124l.765-1.848c-.726-.301-1.389-.024-1.856.255-.465.278-1.01.727-1.618 1.225l1.266 1.548zm-3.814 3.121l3.814-3.12-1.266-1.549-3.815 3.121 1.267 1.548zm-2.067 1.023c.475.023.86-.147 1.166-.338.282-.176.589-.43.9-.685l-1.266-1.548c-.353.29-.545.444-.693.536-.123.077-.097.033-.007.037l-.1 1.998zm-1.954-1.223c.285.285.565.568.828.77.286.221.652.429 1.126.453l.1-1.998c.09.005.111.05-.004-.038-.137-.106-.313-.279-.636-.602l-1.414 1.415zm-4.512-4.512l4.512 4.512 1.414-1.415-4.511-4.511-1.415 1.414zm-1.223-1.954c.024.474.232.84.452 1.126.203.262.486.543.771.828l1.415-1.414c-.323-.323-.497-.499-.602-.636-.089-.115-.043-.094-.038-.004l-1.998.1zm1.023-2.067c-.256.312-.51.62-.685.901-.191.306-.361.69-.338 1.166l1.998-.1c.004.09-.04.115.037-.008.092-.147.247-.339.536-.693l-1.548-1.266zm3.12-3.814l-3.12 3.814 1.548 1.267 3.12-3.815-1.547-1.266zm1.181-1.443c-.072-.174.06-.242-.124.064-.184.308-.515.717-1.056 1.379l1.548 1.266c.498-.609.946-1.153 1.225-1.618.279-.467.556-1.13.255-1.856l-1.848.765zm-1.855-.185c.85.085 1.374.14 1.722.227.347.087.205.132.133-.042l1.848-.765c-.301-.727-.966-1-1.493-1.132-.526-.133-1.228-.2-2.01-.279l-.2 1.99zm-4.904-.49l4.904.49.2-1.99-4.905-.49-.199 1.99zm.1.004v-2 2zm-2.284-.743c.32.352.711.504 1.063.585.323.075.72.113 1.121.153l.2-1.99c-.455-.045-.7-.072-.87-.111-.14-.033-.091-.046-.031.021l-1.483 1.342zM10.5 39.19c0 .403-.002.802.04 1.131.047.358.158.764.477 1.116l1.483-1.342c.06.067.043.114.024-.03-.022-.171-.024-.418-.024-.875h-2zm0-6.38v6.38h2v-6.38h-2zm.517-2.247c-.319.352-.43.758-.476 1.116-.043.33-.041.728-.041 1.131h2c0-.457.002-.704.024-.876.019-.143.036-.096-.024-.029l-1.483-1.342zm2.184-.738c-.4.04-.798.078-1.121.153-.352.081-.744.232-1.063.585l1.483 1.342c-.06.067-.11.054.032.021.169-.04.414-.066.868-.111l-.199-1.99zm.1-.005v2-2zm4.805-.486l-4.905.49.2 1.99 4.904-.49-.199-1.99zm1.855-.185c.072-.174.214-.13-.133-.042-.348.087-.871.142-1.722.227l.2 1.99c.782-.078 1.484-.145 2.01-.278.527-.132 1.192-.405 1.493-1.132l-1.848-.765zm-1.18-1.443c.54.662.872 1.07 1.056 1.379.184.306.052.238.124.064l1.848.765c.3-.726.024-1.39-.255-1.856-.279-.465-.727-1.01-1.226-1.618l-1.547 1.266zm-3.122-3.815l3.122 3.815 1.547-1.266-3.121-3.816-1.548 1.267zm-1.023-2.067c-.023.475.147.86.338 1.166.176.282.43.589.685.9l1.548-1.266c-.29-.353-.444-.545-.536-.693-.077-.123-.033-.097-.037-.007l-1.998-.1zm1.224-1.954c-.286.285-.569.565-.772.828-.22.286-.428.651-.452 1.126l1.998.1c-.005.09-.05.11.038-.004.106-.137.279-.313.602-.636L15.86 19.87zm4.51-4.512l-4.51 4.512 1.414 1.414 4.511-4.511-1.414-1.415zm1.955-1.223c-.474.024-.84.232-1.125.452-.264.203-.544.486-.83.771l1.415 1.415c.323-.323.499-.497.636-.602.115-.089.094-.043.004-.038l-.1-1.998zm2.067 1.023c-.312-.256-.62-.51-.901-.685-.306-.191-.69-.362-1.166-.338l.1 1.998c-.09.004-.115-.04.008.037.147.092.339.246.692.536l1.267-1.548zm3.814 3.12l-3.814-3.12-1.267 1.548 3.815 3.12 1.266-1.547zm1.443 1.181c.174-.072.243.06-.064-.124-.308-.184-.717-.515-1.379-1.056l-1.266 1.548c.609.498 1.153.946 1.618 1.225.467.279 1.13.556 1.857.255l-.766-1.848zm.186-1.855c-.085.85-.14 1.374-.228 1.722-.087.347-.132.205.042.133l.765 1.848c.727-.301 1-.966 1.133-1.493.132-.526.2-1.228.278-2.01l-1.99-.2zm.49-4.902l-.49 4.902 1.99.2.49-4.903-1.99-.2zm-.005.099h2-2zm.743-2.284c-.352.32-.504.711-.585 1.063-.075.323-.113.72-.153 1.121l1.99.2c.045-.455.072-.7.111-.87.033-.14.046-.091-.021-.031l-1.342-1.483zM33.31 10c-.403 0-.802-.002-1.131.04-.358.047-.764.158-1.116.477L32.405 12c-.067.06-.114.043.03.024.171-.022.418-.024.875-.024v-2zm6.38 0h-6.38v2h6.38v-2zm2.247.517c-.352-.319-.758-.43-1.116-.476-.33-.043-.728-.041-1.131-.041v2c.457 0 .704.002.876.024.143.019.096.036.029-.024l1.342-1.483zm.738 2.184c-.04-.4-.078-.798-.153-1.121-.081-.352-.233-.744-.585-1.063L40.595 12c-.067-.06-.054-.11-.021.032.04.169.066.414.111.868l1.99-.199zM45.5 36a9 9 0 01-9 9v2c6.075 0 11-4.925 11-11h-2zm-9-9a9 9 0 019 9h2c0-6.075-4.925-11-11-11v2zm-9 9a9 9 0 019-9v-2c-6.075 0-11 4.925-11 11h2zm9 9a9 9 0 01-9-9h-2c0 6.075 4.925 11 11 11v-2z" fill="#fff"/><path d="M41.68 12.801h-1v.05l.005.05.995-.1zm0 0h1v-.05l-.005-.05-.995.1zm.49 4.904l-.995.1.995-.1zm.798 2.679l.383-.924-.383.924zm2.459-1.33l-.633-.774.633.774zm3.814-3.121l.633.774-.633-.774zm1.384-.798l.05-.999-.05 1zm1.297.932l-.707.707.707-.707zm4.511 4.511l-.707.707.707-.707zm.932 1.297l.999-.05-1 .05zm-.798 1.384l-.774-.634.774.634zm-3.12 3.814l-.775-.633.774.633zm1.348 3.256l-.1.995.1-.995zm4.904.49l.1-.994-.1.995zm1.543.415l-.742.671.742-.671zm0 9.532l-.742-.671.742.671zm-1.543.414l.1.995-.1-.995zm-4.903.49l-.1-.995.1.995zm-2.68.798l-.923-.382.924.382zm1.331 2.459l-.774.633.774-.633zm3.12 3.813l-.774.633.774-.633zm.798 1.384l.999.05-1-.05zm-6.74 6.74l.05.999-.05-1zm-1.384-.798l-.633.774.633-.774zm-3.814-3.12l.633-.775-.633.774zm-2.459-1.331l-.382-.924.382.924zm-.797 2.68l-.995-.1.995.1zm-.49 4.904l.994.1-.995-.1zm-.415 1.543L40.595 60l.671.742zm-9.532 0l.671-.742-.671.742zm-.414-1.543l-.995.1.995-.1zm-.49-4.904l.995-.1-.995.1zm-3.257-1.349l.633.774-.633-.774zm-3.814 3.121l-.634-.774.634.774zm-1.384.798l-.05.999.05-1zm-1.297-.932l.707-.707-.707.707zm-4.511-4.511l-.708.707.708-.707zm-.932-1.297l-.999.05.999-.05zm.798-1.384l-.774-.633.774.633zm3.12-3.814l.775.633-.774-.633zm1.331-2.459l.924-.382-.924.382zm-2.68-.798l.1-.995-.1.995zm-4.903-.49l.1-.995-.05-.005h-.05v1zm0 0l-.1.995.05.005h.05v-1zm-1.543-.414l.742-.671-.742.671zm0-9.532l.742.671-.742-.671zm1.543-.414v-1h-.05l-.05.005.1.995zm0 0v1h.05l.05-.005-.1-.995zm4.905-.49l.1.995-.1-.996zm2.679-.798l-.924-.383.924.383zm-1.33-2.46l-.774.634.774-.633zm-3.122-3.814l-.774.633.774-.633zm-.798-1.384l-.999-.05 1 .05zm.932-1.297l.707.707-.707-.707zm4.511-4.512l-.707-.707.707.707zm1.297-.931l.05.999-.05-1zm1.384.798l.633-.774-.633.774zm3.814 3.12l.633-.773-.633.774zm2.459 1.331l-.383-.924.383.924zm.798-2.68l.995.1-.995-.1zm.49-4.902l.995.1.005-.05v-.05h-1zm0 0l-.995-.1-.005.05v.05h1zm.414-1.543l.671.742-.671-.742zm9.532 0l-.671.742.671-.742zm1.414 1.543h-2 2zm.486 4.804l-.49-4.904-1.99.2.49 4.903 1.99-.199zm.185 1.855c.174.072.13.214.042-.133-.087-.348-.142-.871-.227-1.722l-1.99.2c.078.782.145 1.484.278 2.01.132.527.405 1.192 1.132 1.493l.765-1.848zm1.443-1.18c-.662.541-1.07.872-1.379 1.056-.306.184-.238.052-.064.124l-.765 1.848c.726.3 1.389.024 1.856-.255.465-.279 1.01-.727 1.618-1.225l-1.266-1.548zm3.814-3.121l-3.814 3.12 1.266 1.549 3.814-3.121-1.266-1.548zm2.067-1.023c-.475-.023-.86.147-1.166.338-.282.176-.589.43-.901.685l1.266 1.548c.354-.29.546-.444.693-.536.123-.077.098-.033.008-.037l.1-1.998zm1.954 1.224c-.285-.286-.566-.569-.829-.772-.285-.22-.65-.428-1.125-.452l-.1 1.998c-.09-.005-.111-.05.004.038.137.106.313.279.636.602l1.414-1.415zm4.511 4.51l-4.511-4.51-1.414 1.414 4.511 4.511 1.414-1.414zm1.224 1.955c-.024-.474-.232-.84-.452-1.125-.203-.264-.486-.544-.772-.83l-1.414 1.415c.323.323.496.499.602.636.089.115.043.094.038.004l1.998-.1zm-1.023 2.067c.255-.312.51-.62.685-.901.19-.306.361-.69.338-1.166l-1.998.1c-.004-.09.04-.115-.037.008-.092.147-.247.339-.536.692l1.548 1.267zm-3.12 3.814l3.12-3.814-1.548-1.267-3.12 3.815 1.547 1.266zM53.04 29.15c.072.174-.06.242.124-.064.184-.308.515-.717 1.056-1.379l-1.548-1.266c-.498.609-.947 1.153-1.225 1.618-.279.467-.556 1.13-.255 1.856l1.848-.765zm1.855.185c-.85-.085-1.374-.14-1.722-.227-.347-.087-.205-.132-.133.042l-1.848.765c.301.727.965 1 1.493 1.132.526.133 1.228.2 2.01.279l.2-1.99zm4.903.49l-4.903-.49-.2 1.99 4.904.49.2-1.99zm2.185.739c-.32-.352-.711-.504-1.063-.585-.324-.075-.72-.113-1.122-.153l-.199 1.99c.455.045.7.072.87.111.14.033.091.046.031-.021l1.483-1.342zm.517 2.247c0-.403.002-.802-.04-1.131-.047-.358-.158-.764-.477-1.116L60.5 31.905c-.06-.067-.043-.114-.024.03.022.171.024.418.024.875h2zm0 6.38v-6.38h-2v6.38h2zm-.517 2.247c.319-.352.43-.758.477-1.116.042-.33.04-.728.04-1.131h-2c0 .457-.002.704-.024.876-.019.143-.036.096.024.029l1.483 1.342zm-2.184.738c.4-.04.797-.078 1.121-.153.352-.081.744-.233 1.063-.585L60.5 40.095c.06-.067.11-.054-.032-.021-.169.04-.414.066-.869.111l.2 1.99zm-4.903.49l4.902-.49-.199-1.99-4.902.49.199 1.99zm-1.855.186c-.072.174-.214.13.133.042.348-.087.871-.142 1.722-.228l-.2-1.99c-.782.079-1.484.146-2.01.279-.528.132-1.192.405-1.493 1.132l1.848.765zm1.18 1.443c-.541-.662-.872-1.07-1.056-1.379-.184-.307-.052-.238-.124-.064l-1.848-.765c-.301.726-.024 1.389.255 1.856.278.465.727 1.01 1.225 1.618l1.548-1.266zm3.12 3.813l-3.12-3.813-1.548 1.266 3.12 3.813 1.548-1.266zm1.023 2.066c.023-.474-.147-.859-.338-1.165-.176-.282-.43-.589-.685-.901l-1.548 1.266c.29.354.444.546.536.693.077.123.033.098.037.008l1.998.1zm-1.223 1.955c.285-.285.568-.566.77-.829.221-.285.429-.65.453-1.126l-1.998-.1c.005-.09.05-.11-.038.005-.106.137-.279.313-.602.636l1.415 1.414zm-4.512 4.511l4.512-4.511-1.415-1.414-4.511 4.511 1.414 1.414zm-1.954 1.224c.474-.024.84-.232 1.126-.452.262-.203.543-.486.828-.772l-1.414-1.414c-.323.323-.499.496-.636.602-.115.089-.094.043-.004.038l.1 1.998zm-2.067-1.023c.312.255.62.51.901.685.306.19.69.361 1.166.338l-.1-1.998c.09-.004.115.04-.008-.037-.147-.092-.339-.247-.693-.536l-1.266 1.548zm-3.814-3.12l3.814 3.12 1.267-1.548-3.815-3.12-1.266 1.547zm-1.443-1.181c-.174.072-.242-.06.064.124.308.184.717.515 1.379 1.056l1.266-1.548c-.609-.498-1.153-.947-1.618-1.225-.467-.279-1.13-.556-1.856-.255l.765 1.848zm-.185 1.855c.085-.85.14-1.374.227-1.722.087-.347.132-.205-.042-.133l-.765-1.848c-.727.301-1 .965-1.132 1.493-.133.526-.2 1.228-.279 2.01l1.99.2zm-.49 4.904l.49-4.904-1.99-.2-.49 4.905 1.99.2zm-.739 2.185c.352-.32.504-.711.585-1.063.075-.324.113-.72.153-1.122l-1.99-.199c-.045.455-.072.7-.111.87-.033.14-.046.091.021.031l1.342 1.483zM39.69 62c.403 0 .802.002 1.131-.04.358-.047.764-.158 1.116-.477L40.595 60c.067-.06.114-.043-.03-.024-.171.022-.418.024-.875.024v2zm-6.38 0h6.38v-2h-6.38v2zm-2.247-.517c.352.319.758.43 1.116.477.33.042.728.04 1.131.04v-2c-.457 0-.704-.002-.876-.024-.143-.019-.096-.036-.029.024l-1.342 1.483zm-.738-2.184c.04.4.078.797.153 1.121.081.352.232.744.585 1.063L32.405 60c.067.06.054.11.021-.032-.04-.169-.066-.414-.111-.869l-1.99.2zm-.49-4.904l.49 4.903 1.99-.199-.49-4.903-1.99.199zm-.186-1.855c-.174-.072-.13-.214-.042.133.087.348.142.871.227 1.722l1.99-.2c-.078-.782-.145-1.484-.278-2.01-.132-.528-.405-1.192-1.132-1.493l-.765 1.848zm-1.443 1.18c.662-.541 1.07-.872 1.379-1.056.306-.184.238-.052.064-.124l.765-1.848c-.726-.301-1.389-.024-1.856.255-.465.278-1.01.727-1.618 1.225l1.266 1.548zm-3.814 3.121l3.814-3.12-1.266-1.549-3.815 3.121 1.267 1.548zm-2.067 1.023c.475.023.86-.147 1.166-.338.282-.176.589-.43.9-.685l-1.266-1.548c-.353.29-.545.444-.693.536-.123.077-.097.033-.007.037l-.1 1.998zm-1.954-1.223c.285.285.565.568.828.77.286.221.652.429 1.126.453l.1-1.998c.09.005.111.05-.004-.038-.137-.106-.313-.279-.636-.602l-1.414 1.415zm-4.512-4.512l4.512 4.512 1.414-1.415-4.511-4.511-1.415 1.414zm-1.223-1.954c.024.474.232.84.452 1.126.203.262.486.543.771.828l1.415-1.414c-.323-.323-.497-.499-.602-.636-.089-.115-.043-.094-.038-.004l-1.998.1zm1.023-2.067c-.256.312-.51.62-.685.901-.191.306-.361.69-.338 1.166l1.998-.1c.004.09-.04.115.037-.008.092-.147.247-.339.536-.693l-1.548-1.266zm3.12-3.814l-3.12 3.814 1.548 1.267 3.12-3.815-1.547-1.266zm1.181-1.443c-.072-.174.06-.242-.124.064-.184.308-.515.717-1.056 1.379l1.548 1.266c.498-.609.946-1.153 1.225-1.618.279-.467.556-1.13.255-1.856l-1.848.765zm-1.855-.185c.85.085 1.374.14 1.722.227.347.087.205.132.133-.042l1.848-.765c-.301-.727-.966-1-1.493-1.132-.526-.133-1.228-.2-2.01-.279l-.2 1.99zm-4.904-.49l4.904.49.2-1.99-4.905-.49-.199 1.99zm.1.004v-2 2zm-2.284-.743c.32.352.711.504 1.063.585.323.075.72.113 1.121.153l.2-1.99c-.455-.045-.7-.072-.87-.111-.14-.033-.091-.046-.031.021l-1.483 1.342zM10.5 39.19c0 .403-.002.802.04 1.131.047.358.158.764.477 1.116l1.483-1.342c.06.067.043.114.024-.03-.022-.171-.024-.418-.024-.875h-2zm0-6.38v6.38h2v-6.38h-2zm.517-2.247c-.319.352-.43.758-.476 1.116-.043.33-.041.728-.041 1.131h2c0-.457.002-.704.024-.876.019-.143.036-.096-.024-.029l-1.483-1.342zm2.184-.738c-.4.04-.798.078-1.121.153-.352.081-.744.232-1.063.585l1.483 1.342c-.06.067-.11.054.032.021.169-.04.414-.066.868-.111l-.199-1.99zm.1-.005v2-2zm4.805-.486l-4.905.49.2 1.99 4.904-.49-.199-1.99zm1.855-.185c.072-.174.214-.13-.133-.042-.348.087-.871.142-1.722.227l.2 1.99c.782-.078 1.484-.145 2.01-.278.527-.132 1.192-.405 1.493-1.132l-1.848-.765zm-1.18-1.443c.54.662.872 1.07 1.056 1.379.184.306.052.238.124.064l1.848.765c.3-.726.024-1.39-.255-1.856-.279-.465-.727-1.01-1.226-1.618l-1.547 1.266zm-3.122-3.815l3.122 3.815 1.547-1.266-3.121-3.816-1.548 1.267zm-1.023-2.067c-.023.475.147.86.338 1.166.176.282.43.589.685.9l1.548-1.266c-.29-.353-.444-.545-.536-.693-.077-.123-.033-.097-.037-.007l-1.998-.1zm1.224-1.954c-.286.285-.569.565-.772.828-.22.286-.428.651-.452 1.126l1.998.1c-.005.09-.05.11.038-.004.106-.137.279-.313.602-.636L15.86 19.87zm4.51-4.512l-4.51 4.512 1.414 1.414 4.511-4.511-1.414-1.415zm1.955-1.223c-.474.024-.84.232-1.125.452-.264.203-.544.486-.83.771l1.415 1.415c.323-.323.499-.497.636-.602.115-.089.094-.043.004-.038l-.1-1.998zm2.067 1.023c-.312-.256-.62-.51-.901-.685-.306-.191-.69-.362-1.166-.338l.1 1.998c-.09.004-.115-.04.008.037.147.092.339.246.692.536l1.267-1.548zm3.814 3.12l-3.814-3.12-1.267 1.548 3.815 3.12 1.266-1.547zm1.443 1.181c.174-.072.243.06-.064-.124-.308-.184-.717-.515-1.379-1.056l-1.266 1.548c.609.498 1.153.946 1.618 1.225.467.279 1.13.556 1.857.255l-.766-1.848zm.186-1.855c-.085.85-.14 1.374-.228 1.722-.087.347-.132.205.042.133l.765 1.848c.727-.301 1-.966 1.133-1.493.132-.526.2-1.228.278-2.01l-1.99-.2zm.49-4.902l-.49 4.902 1.99.2.49-4.903-1.99-.2zm-.005.099h2-2zm.743-2.284c-.352.32-.504.711-.585 1.063-.075.323-.113.72-.153 1.121l1.99.2c.045-.455.072-.7.111-.87.033-.14.046-.091-.021-.031l-1.342-1.483zM33.31 10c-.403 0-.802-.002-1.131.04-.358.047-.764.158-1.116.477L32.405 12c-.067.06-.114.043.03.024.171-.022.418-.024.875-.024v-2zm6.38 0h-6.38v2h6.38v-2zm2.247.517c-.352-.319-.758-.43-1.116-.476-.33-.043-.728-.041-1.131-.041v2c.457 0 .704.002.876.024.143.019.096.036.029-.024l1.342-1.483zm.738 2.184c-.04-.4-.078-.798-.153-1.121-.081-.352-.233-.744-.585-1.063L40.595 12c-.067-.06-.054-.11-.021.032.04.169.066.414.111.868l1.99-.199zM45.5 36a9 9 0 01-9 9v2c6.075 0 11-4.925 11-11h-2zm-9-9a9 9 0 019 9h2c0-6.075-4.925-11-11-11v2zm-9 9a9 9 0 019-9v-2c-6.075 0-11 4.925-11 11h2zm9 9a9 9 0 01-9-9h-2c0 6.075 4.925 11 11 11v-2z" fill="#2091F9"/></symbol>
</svg>