<?xml version="1.0" encoding="UTF-8"?>
<svg version="1.1" xmlns="http://www.w3.org/2000/svg" xmlns:xlink="http://www.w3.org/1999/xlink">
<defs>

</defs>
<symbol id="i-about" viewBox="0 0 60 60" xmlns="http://www.w3.org/2000/svg"><path d="M19.407 37.815a3.852 3.852 0 100-7.704 3.852 3.852 0 000 7.704zM25.177 46.481h-11.54c-.582 0-1.052-.518-.958-1.093.522-3.203 3.378-5.647 6.728-5.647 3.35 0 6.207 2.444 6.729 5.647.095.575-.375 1.093-.959 1.093zM34.815 7h-9.63a1.927 1.927 0 00-1.926 1.926v4.815a6.74 6.74 0 1013.482 0V8.926A1.927 1.927 0 0034.815 7zm-1.926 5.778H27.11a.962.962 0 110-1.926h5.778a.962.962 0 110 1.926z"/><path d="M51.185 13.74H39.63c0 5.31-4.32 9.63-9.63 9.63-5.31 0-9.63-4.32-9.63-9.63H8.815A4.814 4.814 0 004 18.556v29.852a4.814 4.814 0 004.815 4.815h42.37A4.814 4.814 0 0056 48.407V18.556a4.814 4.814 0 00-4.815-4.815zM30 48.408c0 .533-.43.963-.963.963H9.777a.962.962 0 01-.962-.963V28.185c0-.532.43-.963.963-.963h19.259c.533 0 .963.43.963.963v20.222zM49.74 35.89H37.223a1.445 1.445 0 010-2.889h12.519a1.445 1.445 0 010 2.889zm0-6.74H37.223a1.445 1.445 0 010-2.89h12.519a1.445 1.445 0 010 2.89z"/></symbol>
<symbol id="i-blog" viewBox="0 0 60 60" xmlns="http://www.w3.org/2000/svg"><path d="M7.513 4.146c-.853.213-1.493.578-2.142 1.228-.66.66-1.066 1.381-1.25 2.265-.162.771-.162 43.954 0 44.716a4.632 4.632 0 003.524 3.523c.761.163 43.939.163 44.71 0 1.726-.365 3.158-1.807 3.523-3.523.163-.772.163-43.955 0-44.716-.376-1.747-1.787-3.158-3.523-3.524-.822-.172-44.152-.142-44.842.03zm44.619 3.107c.264.132.477.345.61.609.192.376.202.589.202 4.366v3.96H7.056v-3.99c.01-4.488 0-4.438.771-4.905l.396-.243H29.98c21.604 0 21.756 0 22.152.203zm.812 28.227c0 16.093 0 16.256-.203 16.652a1.36 1.36 0 01-.609.609c-.396.203-.548.203-22.142.203H8.254l-.406-.224c-.244-.142-.488-.385-.6-.609-.182-.365-.192-.873-.192-16.631V19.234h45.888V35.48z"/><path d="M10.995 10.31c-.437.223-.792.822-.792 1.31 0 .507.355 1.086.812 1.319.335.173.599.203 1.726.203s1.39-.03 1.726-.203c.456-.233.812-.812.812-1.32 0-.507-.356-1.086-.812-1.32-.346-.172-.59-.203-1.747-.203-1.147.01-1.41.041-1.726.214zM19.117 10.31c-.437.223-.792.822-.792 1.31 0 .507.355 1.086.812 1.319.335.173.6.203 1.726.203 1.127 0 1.391-.03 1.726-.203.457-.233.812-.812.812-1.32 0-.507-.355-1.086-.812-1.32-.345-.172-.589-.203-1.746-.203-1.147.01-1.411.041-1.726.214zM27.239 10.31c-.437.223-.792.822-.792 1.31 0 .507.355 1.086.812 1.319.335.173.599.203 1.726.203s1.39-.03 1.726-.203c.457-.233.812-.812.812-1.32 0-.507-.355-1.086-.812-1.32-.345-.172-.59-.203-1.746-.203-1.148.01-1.412.041-1.726.214zM9.705 30.26c-.507.366-.518.468-.518 5.93 0 5.504.01 5.585.549 5.94.223.153.548.163 2.568.132 2.264-.03 2.325-.04 2.894-.304a3.985 3.985 0 001.817-1.726c.335-.61.345-.69.345-1.706s-.02-1.097-.335-1.686a5.042 5.042 0 00-.73-1.005l-.387-.376.274-.517c.234-.457.264-.64.264-1.493 0-.802-.04-1.046-.233-1.442-.325-.66-.954-1.269-1.625-1.584-.558-.264-.66-.274-2.609-.304-1.766-.03-2.06-.01-2.274.142zm4.051 2.021a1.298 1.298 0 010 2.336c-.213.111-.63.152-1.421.152h-1.117v-2.64h1.117c.792 0 1.208.04 1.421.152zm.71 4.742c.68.345.945.802.894 1.554-.05.75-.335 1.208-.934 1.482-.345.152-.67.193-1.807.193h-1.401V36.8h1.401c1.249 0 1.452.02 1.848.223zM19.96 30.26c-.508.366-.519.468-.519 5.93 0 5.494.01 5.585.539 5.94.223.143.548.163 2.406.132l2.152-.03.244-.284a1.047 1.047 0 000-1.36l-.244-.285-1.533-.03-1.533-.031v-9.524l-.234-.264c-.294-.345-.934-.447-1.279-.193zM29.848 30.24c-.843.193-1.614.559-2.355 1.107-3.229 2.396-3.178 7.422.101 9.758a6.076 6.076 0 009.462-3.442c.081-.336.152-1.026.152-1.544 0-2.559-1.634-4.833-4.091-5.686-.894-.315-2.366-.396-3.27-.193zm2.822 2.193c.812.305 1.696 1.138 2.122 2.01.315.63.335.742.335 1.747 0 1.005-.02 1.117-.335 1.747-.883 1.797-2.893 2.69-4.772 2.122-1.949-.59-3.127-2.437-2.842-4.478.193-1.462 1.31-2.772 2.751-3.25.792-.263 1.888-.223 2.741.102zM44.06 30.25c-2.78.61-4.74 3.067-4.74 5.94 0 2.498 1.462 4.692 3.756 5.626 3.087 1.249 6.224-.112 7.28-3.148.344-.985.497-2.386.314-2.833-.274-.64-.426-.68-2.548-.64l-1.899.031-.243.285a1.047 1.047 0 000 1.36c.243.274.274.284 1.462.315l1.218.04-.152.518c-.203.721-.549 1.29-1.056 1.736-.538.498-.975.67-1.817.742-2.03.172-3.97-1.391-4.244-3.422-.284-2.01.883-3.879 2.792-4.468 1.106-.335 2.243-.213 3.228.356.65.375 1.127.375 1.513-.01.203-.214.264-.376.264-.701 0-.366-.05-.487-.345-.741-1.056-.924-3.117-1.35-4.782-.985z"/></symbol>
<symbol id="i-contacts" viewBox="0 0 60 60" xmlns="http://www.w3.org/2000/svg"><path d="M52 40.962V38a3 3 0 00-3-3H19a2.992 2.992 0 00-2.99 3L16 54a3 3 0 003 3h30a2.992 2.992 0 002.99-3l.01-4.862 3.596-3.101c.27-.2.406-.506.404-.812a.996.996 0 00-.32-.726L52 40.962z"/><path d="M13 37a5 5 0 015-5h25v-9a3 3 0 00-3-3H10a2.992 2.992 0 00-2.99 3L7 26.865l-3.68 3.598a.993.993 0 00-.311.788.985.985 0 00.395.749L7 35.225V39a3 3 0 003 3h3v-5z"/><path d="M55.68 13.5L52 9.962V6a3 3 0 00-3-3H19a2.992 2.992 0 00-2.99 3L16 17h25a5 5 0 015 5v3h3a2.992 2.992 0 002.99-3l.01-3.862 3.596-3.101a.998.998 0 00.084-1.537z"/></symbol>
<symbol id="i-portfolio" viewBox="0 0 60 60" xmlns="http://www.w3.org/2000/svg"><path d="M41.101 3.204a4.21 4.21 0 00-.515.161c-.071.028-.271.112-.452.182-.174.063-.335.14-.354.162-.02.02-.142.105-.27.182a2.613 2.613 0 00-.49.385c-.278.28-.658.904-.658 1.072 0 .064-.026.127-.058.148-.09.063-.136 1.086-.078 1.583.033.253.11.694.168.982.174.827.045 1.555-.341 1.962-.213.217-.561.42-.729.42-.064 0-.135.028-.155.07-.019.036-.154.07-.29.07-.135 0-.27-.034-.29-.07-.019-.042-.096-.07-.167-.07-.065 0-.123-.035-.123-.07 0-.042-.045-.07-.096-.07-.233 0-.87-.918-.87-1.261 0-.21-.104-.168-.22.084-.116.245-.135.729-.038.792.038.02.064.112.064.203 0 .084.045.217.097.294.051.07.096.176.096.225 0 .049.04.133.084.182.039.049.149.189.239.308.09.126.2.224.245.224.038 0 .077.029.077.064s.168.154.367.259c.33.182.426.203 1.012.203.542 0 .703-.028.954-.161a2.66 2.66 0 01.342-.154c.064 0 .032.532-.039.61-.129.14.013 1.814.2 2.361.277.792.412 1.121.529 1.262.064.077.129.196.154.266.02.07.065.126.097.126s.058.042.058.084c0 .14 1.154 1.318 1.283 1.318.032 0 .103.042.148.09.11.113.625.38.864.442.103.028.219.07.251.098.161.127 1.257.288 1.74.26.613-.035 1.386-.183 1.386-.267 0-.035.071-.063.155-.063.09 0 .174-.028.2-.063.019-.035.122-.084.225-.112.11-.028.194-.077.194-.112s.038-.063.083-.063c.271 0 1.85-1.535 1.85-1.794 0-.056.032-.098.065-.098.038 0 .064-.042.064-.091 0-.05.071-.197.155-.33s.174-.35.193-.476c.026-.12.078-.225.11-.225s.058-.063.058-.147c0-.077.026-.196.058-.266.129-.26.2-1.535.129-2.236-.039-.371-.097-.707-.13-.75-.032-.035-.057-.133-.057-.217 0-.09-.026-.175-.058-.196-.032-.021-.078-.154-.097-.287-.026-.133-.07-.246-.097-.246-.032 0-.07-.056-.09-.126a4.28 4.28 0 00-.464-.848c-.342-.462-1.14-1.268-1.25-1.268-.033 0-.103-.042-.149-.091-.135-.133-.78-.47-.908-.47-.058 0-.11-.028-.11-.056 0-.133-.786-.245-1.74-.252-.935-.007-1.032.007-1.54.189-.297.112-.665.28-.826.371-.155.099-.316.169-.348.155-.167-.063.935-1.458 1.147-1.458.045 0 .084-.021.084-.056 0-.112.716-.224 1.534-.231.78-.007.858-.021.922-.14.103-.218.006-.89-.2-1.367-.187-.428-.748-1.15-.89-1.15-.044 0-.077-.027-.077-.063 0-.063-.18-.154-.773-.364-.42-.154-1.083-.161-1.644-.014zM15.029 7.416c-.232.063-.426.14-.438.168-.013.028-.078.056-.142.056-.123 0-.58.203-.645.287-.02.028-.09.063-.167.091a.773.773 0 00-.258.169c-.065.063-.232.21-.368.322-.135.105-.328.28-.425.385-.445.47-1.102 1.64-1.199 2.124-.026.126-.07.26-.097.301-.232.35-.232 2.93.007 3.09.032.022.058.106.058.19s.045.245.097.357a.994.994 0 01.096.295c0 .056.026.098.058.098.033 0 .084.07.11.154.026.091.058.175.084.196.019.021.083.12.135.218.11.21.483.728.677.939.303.322.612.595.677.595.032 0 .064.021.064.05 0 .076.374.3.49.3.051 0 .09.029.09.07 0 .036.032.07.071.07.039 0 .174.05.303.113.425.203.49.224.883.315a4.761 4.761 0 001.966.028c.335-.07.638-.154.67-.182a.278.278 0 01.168-.063c.142 0 1.031-.504 1.212-.687.045-.042.11-.084.141-.084.149 0 1.225-1.29 1.225-1.464 0-.043.026-.078.052-.078.07 0 .373-.672.502-1.12.058-.211.142-.463.18-.554.098-.232.098-2.404 0-2.537a1.06 1.06 0 01-.109-.365c-.032-.238-.457-1.296-.554-1.38a1.37 1.37 0 01-.161-.239 4.986 4.986 0 00-.638-.806l-.368-.357c-.212-.21-1.121-.764-1.514-.918-.755-.294-2.115-.364-2.933-.147zM15.06 19.169c-1.07.16-1.727.371-1.759.574a.45.45 0 01-.084.19c-.032.041-.058.175-.058.294 0 .126-.026.245-.058.266-.026.021-.07.203-.096.407-.026.203-.071.399-.097.441-.032.035-.071.182-.09.315-.045.316-.174.919-.22 1.052-.058.147-.212.89-.257 1.212-.02.14-.058.28-.09.301-.033.021-.058.113-.058.204 0 .16-.252 1.36-.387 1.822a5.182 5.182 0 00-.103.581c-.026.204-.071.386-.097.407-.032.02-.058.126-.058.238 0 .112-.026.217-.058.238-.032.021-.077.232-.103.463-.026.231-.071.42-.103.42-.104 0-.058.155.09.309.187.196.367.504.367.638 0 .056.033.105.065.105.11 0 .077.84-.045 1.135-.058.147-.13.266-.161.266-.026 0-.052.035-.052.077 0 .162-.619.624-.832.624-.07 0-.135.063-.154.154-.02.091-.09.414-.168.715-.077.308-.135.624-.135.715 0 .091-.026.175-.058.196-.032.021-.078.21-.103.428-.02.21-.071.4-.103.42-.033.028-.058.63-.058 1.374v1.324h6.271c3.442 0 6.297-.028 6.33-.056.103-.084.006-2.712-.123-3.133-.051-.196-.103-.434-.103-.546 0-.105-.026-.19-.058-.19s-.07-.118-.09-.266c-.026-.14-.078-.441-.123-.658-.077-.393-.084-.407-.393-.526-.341-.133-.69-.477-.844-.827-.148-.33-.136-1.22.013-1.5.058-.119.129-.217.16-.217.027 0 .046-.035.046-.077 0-.05.052-.12.11-.168.096-.077.103-.133.032-.498-.09-.497-.2-1.03-.277-1.36-.026-.133-.09-.42-.13-.63a5.296 5.296 0 00-.122-.526 1.972 1.972 0 01-.09-.315 35.217 35.217 0 00-.303-1.367c-.039-.154-.103-.455-.148-.665a7.674 7.674 0 00-.116-.491c-.071-.224-.245-1.093-.245-1.247 0-.084-.026-.155-.065-.155-.032 0-.064-.07-.064-.16 0-.092-.058-.442-.136-.793-.07-.343-.148-.7-.167-.799-.052-.252-.129-.336-.361-.392a.844.844 0 01-.27-.091c-.084-.063-.748-.196-1.451-.287a7.72 7.72 0 00-2.16.035zM43.125 19.09c-.013.015-.258.05-.542.071-.283.028-.541.077-.573.112-.039.042-.155.07-.258.07a2.56 2.56 0 00-.555.133c-.393.148-.49.28-.547.778a3.684 3.684 0 01-.09.456c-.084.224-.265 1.107-.265 1.275 0 .091-.026.162-.064.162-.033 0-.065.084-.065.189 0 .112-.045.322-.096.476-.052.154-.09.386-.097.505 0 .126-.026.231-.065.231-.032 0-.064.091-.064.203 0 .112-.045.337-.097.498a2.07 2.07 0 00-.096.498c0 .112-.026.203-.065.203-.032 0-.064.105-.064.224a2.316 2.316 0 01-.097.512c-.052.154-.097.35-.097.441a.8.8 0 01-.058.28c-.032.064-.11.386-.167.715-.058.33-.136.652-.168.715a.808.808 0 00-.058.287c0 .091-.032.274-.077.4-.065.21-.058.245.064.357.078.063.142.154.142.197 0 .041.026.076.052.076.032 0 .103.12.16.267.123.301.155 1.345.046 1.345-.032 0-.065.05-.065.106 0 .126-.4.581-.657.756a.74.74 0 01-.31.12.188.188 0 00-.167.119c-.02.07-.064.189-.09.266-.032.077-.071.231-.084.35-.058.42-.187 1.052-.239 1.192a2.51 2.51 0 00-.096.35c-.097.512-.206.988-.239 1.086-.02.056-.09.358-.148.666-.058.309-.129.624-.161.701a1.9 1.9 0 00-.09.35c-.045.274-.2.953-.252 1.087-.02.056-.051.196-.07.315a9.211 9.211 0 01-.136.666c-.058.252-.129.581-.161.736-.032.154-.103.483-.161.736-.123.525-.187.84-.303 1.436-.039.231-.097.435-.123.456a.878.878 0 00-.077.28c-.11.7-.206 1.121-.251 1.121-.026 0-.052.112-.052.246v.245l8.43-.014c7.446-.021 8.425-.035 8.412-.126a10.606 10.606 0 00-.11-.526c-.38-1.682-.444-1.962-.554-2.383a4.304 4.304 0 01-.096-.49 3.727 3.727 0 00-.09-.42c-.033-.078-.104-.393-.168-.701a7.941 7.941 0 00-.161-.701 1.601 1.601 0 01-.084-.35c-.058-.414-.206-1.052-.245-1.087-.026-.021-.058-.161-.077-.315-.045-.323-.2-1.073-.252-1.227a1.601 1.601 0 01-.077-.28c-.013-.098-.077-.378-.135-.63a11.804 11.804 0 01-.142-.702c-.02-.133-.058-.28-.084-.315-.026-.042-.07-.238-.097-.434-.025-.204-.07-.386-.103-.414-.032-.021-.058-.154-.064-.294 0-.14-.052-.42-.116-.61-.09-.28-.148-.357-.271-.371-.187-.021-.754-.477-.857-.68a.627.627 0 00-.136-.19c-.032-.027-.07-.3-.083-.602-.026-.624.07-.946.386-1.297.155-.175.174-.238.142-.49a2.174 2.174 0 00-.09-.435 3.766 3.766 0 01-.129-.49c-.161-.778-.193-.925-.27-1.31-.046-.218-.11-.421-.136-.45-.026-.027-.045-.118-.045-.203 0-.084-.065-.399-.136-.707a13.16 13.16 0 01-.186-.834 44.325 44.325 0 00-.162-.736 11.707 11.707 0 01-.141-.701c-.02-.133-.058-.28-.09-.315-.026-.042-.072-.239-.097-.442-.026-.203-.071-.385-.097-.406-.032-.021-.058-.14-.058-.274 0-.133-.026-.252-.058-.28-.032-.021-.084-.21-.103-.42-.026-.218-.071-.407-.103-.428-.032-.021-.058-.105-.058-.196 0-.154-.103-.231-.58-.449-.445-.203-2.9-.476-3.036-.336zM8.55 20.213a1.85 1.85 0 00-.753.834c-.097.21-.116.455-.116 1.24v.974l-.522.582c-.284.322-1.032 1.15-1.663 1.85-.632.7-1.2 1.373-1.264 1.507a9.572 9.572 0 00-.167.357c-.123.266-.065.87.116 1.248.193.413.593.812.864.875.103.029.2.078.219.113.025.035.11.063.2.063.083 0 .154.028.154.07 0 .035.058.07.13.07.109 0 .296.063.805.28.07.028.29.105.483.168.703.246.645.105.645 1.486 0 1.36.038 1.542.451 1.997.232.253.67.519.76.456.033-.021.11-.315.168-.652.065-.336.135-.68.168-.757.032-.077.07-.238.09-.35.02-.12.07-.407.116-.652l.077-.441-.193-.19c-.335-.322-.477-.665-.477-1.163 0-.245.039-.553.09-.687.155-.385.58-.799.967-.932.258-.09.354-.161.38-.273.013-.077.09-.4.162-.708.07-.308.18-.813.238-1.121.11-.575.142-.701.316-1.36.058-.203.103-.434.103-.504s.026-.197.058-.288a9.75 9.75 0 00.168-.721 7.93 7.93 0 01.16-.701c.026-.077.097-.393.155-.701.065-.308.136-.624.162-.7.057-.148.193-.814.244-1.213l.033-.225-1.631.007c-1.566 0-1.65.007-1.895.162zM20.378 20.107c0 .042.026.085.065.113.032.02.077.224.103.455.026.231.07.42.097.42.032 0 .058.092.058.204 0 .112.045.336.096.497.052.162.097.372.097.463 0 .098.026.224.058.294.032.063.11.372.168.68.058.308.135.652.167.764.033.112.058.294.058.4 0 .105.026.21.058.23.033.022.078.21.103.428.02.21.071.4.104.42.032.029.058.148.058.28 0 .134.025.253.058.274.032.021.077.21.103.428.019.21.07.4.103.42.032.028.058.147.058.28 0 .134.026.253.058.274.032.02.077.231.103.462.039.35.077.442.226.561.096.077.238.14.309.14.07 0 .174.05.232.105.052.056.116.105.142.105.116 0 .541.582.541.736 0 .091.032.19.065.21.038.021.064.197.064.386 0 .19-.026.364-.064.385-.033.021-.065.105-.065.176 0 .147-.322.693-.406.7-.161.007-.303.33-.187.449.026.028.078.231.123.448.038.218.103.526.142.68.032.154.09.42.128.596.168.778.2.84.439.84.245 0 .683-.195.896-.399.07-.07.212-.259.309-.427.168-.294.174-.33.2-1.647l.026-1.346.212-.119a.88.88 0 01.361-.126c.078 0 .142-.035.142-.07 0-.042.071-.07.155-.07.09 0 .174-.028.193-.063.02-.035.142-.084.27-.112.13-.021.284-.07.343-.105.058-.035.219-.112.36-.175.62-.274.813-.449 1.032-.912.18-.378.18-1.233 0-1.576-.155-.295-.09-.218-1.715-2.012l-1.334-1.464-.045-1.346c-.026-.743-.071-1.345-.097-1.345-.026 0-.07-.078-.09-.176-.026-.098-.071-.175-.103-.175-.039 0-.065-.035-.065-.077 0-.091-.16-.273-.245-.273-.038 0-.077-.021-.09-.056-.006-.028-.129-.105-.264-.176-.213-.105-.464-.119-2.076-.119-1.108 0-1.837.028-1.837.063zM36.093 20.163c-.135.064-.245.14-.245.169 0 .035-.039.063-.077.063-.09.007-.22.175-.452.602-.128.246-.148.386-.167 1.304-.013.575-.052 1.037-.084 1.037-.032 0-.058.028-.058.063s-.69.813-1.527 1.731c-.838.925-1.605 1.794-1.702 1.941-.27.414-.348.925-.213 1.451.058.231.135.42.161.42.033 0 .058.036.058.078 0 .098.355.483.445.483.039 0 .071.028.071.063s.09.091.206.112c.116.028.252.078.31.105.315.169.98.421 1.115.421.058 0 .11.028.11.07 0 .035.064.07.148.07.077 0 .225.05.328.105a.797.797 0 00.29.105c.058 0 .148.042.213.091.09.078.11.274.129 1.325.013.876.045 1.268.103 1.332a.347.347 0 01.077.196c0 .26.87.988 1.038.869.032-.014.071-.182.097-.365.02-.182.064-.364.09-.4a1.06 1.06 0 00.084-.28c.077-.406.212-1.05.251-1.156.026-.056.058-.217.078-.357.038-.224.019-.273-.155-.42-.103-.092-.194-.21-.194-.26 0-.042-.025-.084-.058-.084-.025 0-.103-.133-.16-.301-.11-.316-.142-1.1-.046-1.1.032 0 .071-.085.09-.197.071-.357.439-.68 1.064-.932.142-.056.22-.14.238-.266.02-.098.065-.28.097-.4a1.38 1.38 0 00.065-.357c0-.077.019-.161.051-.19.026-.027.077-.23.123-.448.038-.217.103-.526.141-.68.033-.154.11-.483.168-.735.058-.253.129-.568.161-.701.103-.428.258-1.143.322-1.472.033-.175.116-.554.187-.841.071-.287.136-.603.136-.708 0-.098.025-.203.058-.245.032-.035.09-.238.122-.449.039-.21.097-.518.13-.686l.057-.295-1.618.007c-1.295.007-1.663.028-1.856.112zM47.927 20.163c.02.07.065.267.097.442.077.392.316 1.507.393 1.787.026.112.103.448.167.736a6.1 6.1 0 00.162.666c.025.077.064.217.077.315.039.196.2.94.341 1.577.059.231.123.547.155.7.155.771.38 1.767.426 1.893.064.175.129.231.419.315.122.035.341.175.49.316.676.63.708 1.695.07 2.403-.186.21-.193.246-.148.624.026.217.065.442.097.505.026.063.096.364.16.672.059.309.136.617.169.68.032.07.057.239.057.372 0 .238.007.245.265.245.457 0 .838-.252 1.173-.771l.206-.315.02-1.374.025-1.38.239-.106c.129-.063.348-.147.49-.196.141-.049.29-.112.322-.14a1.13 1.13 0 01.29-.098c.122-.028.258-.07.29-.098.039-.028.239-.112.445-.19.567-.196.954-.637 1.128-1.282.064-.245.064-.392 0-.75-.045-.245-.103-.448-.136-.448-.025 0-.051-.042-.051-.091 0-.07-.593-.75-2.7-3.098l-.317-.35-.026-1.262c-.019-1.163-.032-1.282-.174-1.542-.187-.35-.335-.504-.696-.708-.277-.168-.316-.168-2.12-.168-1.721 0-1.837.007-1.805.12zM11.097 46.675c0 6.034.019 8.389.07 8.529.149.385.284.687.361.778.046.049.117.147.162.21.129.19.606.575.715.575.052 0 .11.042.123.084.045.14 1.52.126 1.766-.014.251-.14.612-.42.754-.596.296-.357.367-.462.367-.547 0-.049.026-.119.058-.16.032-.036.103-.26.161-.505.09-.393.104-1.36.104-8.571v-8.122h-4.641v8.34zM16.834 46.626c0 7.723.006 8.311.116 8.634.11.343.36.834.496.98.154.176.528.442.677.491a.43.43 0 01.206.133c.064.106 1.521.106 1.585 0 .026-.041.123-.098.226-.126.303-.077 1.076-.988 1.076-1.261 0-.056.04-.112.084-.126.058-.028.084-1.808.097-8.522l.02-8.494h-4.583v8.29zM38.632 45.413c-.026.022-.032 2.243-.013 4.941.032 4.73.039 4.913.161 5.186.464 1.002 1.483 1.605 2.417 1.43.38-.07.793-.245.993-.414.277-.23.554-.546.554-.623 0-.042.026-.077.052-.077.058 0 .18-.33.31-.827.122-.512.135-9.609.012-9.63-.225-.028-4.447-.02-4.486.014zM44.317 45.435c-.013.049-.02 2.25-.013 4.891.013 3.49.039 4.829.097 4.934.039.077.122.26.18.413.142.35.67.919 1.019 1.087a2.266 2.266 0 002.037-.007c.335-.161.954-.82 1.012-1.072.019-.099.064-.176.09-.176.155 0 .2-1.338.18-5.641l-.019-4.485-2.275-.021c-1.85-.014-2.276 0-2.308.077z"/></symbol>
</svg>