<?xml version="1.0" encoding="UTF-8"?>
<svg version="1.1" xmlns="http://www.w3.org/2000/svg" xmlns:xlink="http://www.w3.org/1999/xlink">
<defs>

</defs>
<symbol id="i-logo" viewBox="0 0 71 70" fill="none" xmlns="http://www.w3.org/2000/svg"><path d="M31.65 4.342c-2.855 9.752-5.634 12.265-8.721 8.076-2.162-2.895-2.856-1.829-1.621 2.742.926 3.733.926 3.885-2.007 9.599-2.624 5.104-3.01 6.475-3.01 10.893.077 11.96 7.795 20.188 18.91 20.188 8.413.076 15.437-5.485 18.062-14.093 1.62-5.561 1.466-14.627-.386-20.721-1.93-6.095-3.088-7.085-3.088-2.59 0 6.018-1.158 5.942-4.245-.229C42.225 11.656 34.584 0 33.58 0c-.386 0-1.235 1.98-1.93 4.342zm6.484 30.244c3.937 5.028 5.017 8.303 3.86 11.655-.927 2.895-4.014 5.562-6.484 5.562-4.554 0-8.954-5.714-7.796-10.132.386-1.6 6.407-11.199 7.024-11.199.077 0 1.62 1.828 3.396 4.114z" fill="#BD1E2D"/><path d="M9.962 11.732C-1.462 23.463-2.697 43.194 7.106 55.916c6.792 8.837 15.283 13.332 26.32 14.017 30.025 1.752 47.855-31.31 29.871-55.383-4.09-5.485-6.175-6.856-7.95-5.18-1.004 1.067-.772 1.6 2.547 5.257 11.964 13.103 11.192 31.538-1.93 43.498-8.027 7.39-18.756 9.828-29.176 6.704C15.21 61.401 6.874 51.88 4.868 39.994 3.4 31.462 6.487 21.635 12.74 14.931c3.165-3.352 3.782-5.713 1.698-6.399-.54-.152-2.547 1.295-4.476 3.2z" fill="#BD1E2D"/></symbol>
<symbol id="i-modal-cross" viewBox="0 0 20 20" xmlns="http://www.w3.org/2000/svg"><path d="M16.453 2.908a.625.625 0 00-.436.192l-6.016 6.016L3.984 3.1a.625.625 0 10-.884.884L9.117 10 3.1 16.016a.626.626 0 10.884.884l6.017-6.016 6.016 6.016a.625.625 0 10.884-.884L10.884 10l6.017-6.016a.625.625 0 00-.448-1.076z"/></symbol>
</svg>