<svg width="17" height="16" viewBox="0 0 17 16" fill="none" xmlns="http://www.w3.org/2000/svg">
  <path d="M10.7394 5.00014C10.6077 5.00325 10.4825 5.05835 10.3913 5.15341L8.24997 7.29471L6.10867 5.15341C6.06218 5.10553 6.00655 5.06747 5.94508 5.04148C5.88361 5.01548 5.81756 5.00209 5.75082 5.00209C5.65155 5.00211 5.55455 5.03175 5.47222 5.08721C5.38989 5.14268 5.32599 5.22144 5.28868 5.31343C5.25136 5.40542 5.24235 5.50645 5.26277 5.60359C5.2832 5.70073 5.33215 5.78957 5.40335 5.85874L7.54465 8.00003L5.40335 10.1413C5.35548 10.1873 5.31726 10.2423 5.29094 10.3033C5.26461 10.3642 5.2507 10.4297 5.25003 10.4961C5.24935 10.5624 5.26192 10.6283 5.28701 10.6897C5.31209 10.7512 5.34918 10.807 5.39611 10.8539C5.44303 10.9008 5.49885 10.9379 5.56029 10.963C5.62173 10.9881 5.68755 11.0006 5.75391 11C5.82027 10.9993 5.88583 10.9854 5.94674 10.9591C6.00766 10.9327 6.06271 10.8945 6.10867 10.8466L8.24997 8.70535L10.3913 10.8466C10.4372 10.8945 10.4923 10.9327 10.5532 10.9591C10.6141 10.9854 10.6797 10.9993 10.746 11C10.8124 11.0006 10.8782 10.9881 10.9396 10.963C11.0011 10.9379 11.0569 10.9008 11.1038 10.8539C11.1508 10.807 11.1878 10.7512 11.2129 10.6897C11.238 10.6283 11.2506 10.5624 11.2499 10.4961C11.2492 10.4297 11.2353 10.3642 11.209 10.3033C11.1827 10.2423 11.1445 10.1873 11.0966 10.1413L8.95529 8.00003L11.0966 5.85874C11.1691 5.78912 11.2189 5.69921 11.2395 5.60079C11.26 5.50238 11.2503 5.40005 11.2117 5.30723C11.1731 5.2144 11.1073 5.13541 11.0231 5.08061C10.9388 5.02582 10.8399 4.99776 10.7394 5.00014Z" fill="white"/>
</svg>
