<svg width="73" height="72" viewBox="0 0 73 72" fill="none" xmlns="http://www.w3.org/2000/svg">
<path d="M33.3056 39.5732L24.9358 38.8123C23.408 38.6735 22.6441 38.604 22.4015 38.0814C22.1588 37.5588 22.5987 36.9304 23.4785 35.6736L37.5612 15.5554C38.1424 14.7252 38.433 14.31 38.6836 14.3983C38.9342 14.4866 38.9005 14.9922 38.8331 16.0034L37.8799 30.3019C37.8185 31.2221 37.7879 31.6822 38.0523 31.9919C38.3167 32.3015 38.7759 32.3433 39.6944 32.4268L48.0642 33.1877C49.592 33.3265 50.3559 33.396 50.5985 33.9186C50.8412 34.4412 50.4013 35.0696 49.5215 36.3264L35.4388 56.4446C34.8576 57.2748 34.567 57.69 34.3164 57.6017C34.0658 57.5134 34.0995 57.0078 34.1669 55.9966L35.1201 41.6981C35.1815 40.7779 35.2121 40.3178 34.9477 40.0081C34.6833 39.6985 34.2241 39.6567 33.3056 39.5732Z" fill="#2091F9" stroke="white"/>
<path d="M52.75 16L49 21H54L50.25 26" stroke="#7E869E" stroke-opacity="0.25" stroke-linecap="round" stroke-linejoin="round"/>
<path d="M22.75 46L19 51H24L20.25 56" stroke="#7E869E" stroke-opacity="0.25" stroke-linecap="round" stroke-linejoin="round"/>
</svg>
