<svg width="73" height="72" viewBox="0 0 73 72" fill="none" xmlns="http://www.w3.org/2000/svg">
<ellipse cx="36.5" cy="21" rx="17.5" ry="7.5" stroke="#2091F9" stroke-width="2"/>
<path d="M54 51C54 51.9849 53.5473 52.9602 52.6679 53.8701C51.7884 54.7801 50.4994 55.6069 48.8744 56.3033C47.2493 56.9997 45.3202 57.5522 43.197 57.9291C41.0738 58.306 38.7981 58.5 36.5 58.5C34.2019 58.5 31.9262 58.306 29.803 57.9291C27.6798 57.5522 25.7507 56.9997 24.1256 56.3033C22.5006 55.6069 21.2116 54.7801 20.3321 53.8701C19.4527 52.9602 19 51.9849 19 51" stroke="#2091F9" stroke-width="2"/>
<path d="M54 21V51" stroke="#2091F9" stroke-width="2"/>
<path d="M19 21V51" stroke="#2091F9" stroke-width="2"/>
</svg>
