<svg width="73" height="72" viewBox="0 0 73 72" fill="none" xmlns="http://www.w3.org/2000/svg">
<path d="M41.6801 12.801H40.6801V12.8509L40.6851 12.9005L41.6801 12.801ZM41.6801 12.801H42.6801V12.7511L42.6751 12.7015L41.6801 12.801ZM42.1705 17.7047L41.1754 17.8042V17.8042L42.1705 17.7047ZM42.9683 20.384L43.351 19.4601L43.351 19.4601L42.9683 20.384ZM45.427 19.0536L44.7938 18.2797L44.7938 18.2797L45.427 19.0536ZM49.2412 15.933L49.8744 16.7069L49.2412 15.933ZM50.6247 15.1351L50.6745 14.1363L50.6247 15.1351ZM51.9219 16.0667L51.2148 16.7738L51.9219 16.0667ZM56.4333 20.578L55.7261 21.2851L56.4333 20.578ZM57.3648 21.8752L58.3636 21.8254L58.3636 21.8254L57.3648 21.8752ZM56.567 23.2587L55.793 22.6255L56.567 23.2587ZM53.4462 27.073L52.6723 26.4397L53.4462 27.073ZM54.7951 30.3295L54.6956 31.3245H54.6956L54.7951 30.3295ZM59.699 30.8199L59.7985 29.8249H59.7985L59.699 30.8199ZM61.2415 31.234L60.5 31.905L60.5 31.905L61.2415 31.234ZM61.2415 40.766L60.5 40.095L60.5 40.095L61.2415 40.766ZM59.699 41.1801L59.7985 42.1751H59.7985L59.699 41.1801ZM54.7961 41.6704L54.6966 40.6754L54.7961 41.6704ZM52.1168 42.4682L51.1929 42.0856L51.1929 42.0856L52.1168 42.4682ZM53.4472 44.9269L52.6732 45.5602V45.5602L53.4472 44.9269ZM56.5671 48.7402L55.7931 49.3734L56.5671 48.7402ZM57.3649 50.1236L58.3637 50.1735L58.3637 50.1735L57.3649 50.1236ZM50.6248 56.8638L50.6746 57.8626H50.6746L50.6248 56.8638ZM49.2413 56.0659L48.6081 56.8399H48.6081L49.2413 56.0659ZM45.4271 52.9452L46.0604 52.1713H46.0604L45.4271 52.9452ZM42.9684 51.6149L42.5857 50.691L42.5857 50.691L42.9684 51.6149ZM42.1706 54.2942L41.1755 54.1946V54.1947L42.1706 54.2942ZM41.6801 59.199L42.6751 59.2985V59.2985L41.6801 59.199ZM41.266 60.7415L40.595 60L40.595 60L41.266 60.7415ZM31.734 60.7415L32.405 60L32.405 60L31.734 60.7415ZM31.3199 59.199L30.3249 59.2985V59.2985L31.3199 59.199ZM30.8295 54.2951L31.8246 54.1956L30.8295 54.2951ZM27.573 52.9462L28.2062 53.7202L27.573 52.9462ZM23.7586 56.0671L23.1254 55.2931L23.7586 56.0671ZM22.3751 56.8649L22.3253 57.8637L22.3253 57.8637L22.3751 56.8649ZM21.0779 55.9334L21.785 55.2263L21.0779 55.9334ZM16.5665 51.422L15.8594 52.1291L16.5665 51.422ZM15.635 50.1248L14.6362 50.1746L15.635 50.1248ZM16.4328 48.7413L15.6589 48.1081L15.6589 48.1081L16.4328 48.7413ZM19.5536 44.927L20.3276 45.5603V45.5603L19.5536 44.927ZM20.884 42.4683L21.8079 42.0856V42.0856L20.884 42.4683ZM18.2047 41.6705L18.3042 40.6754H18.3042L18.2047 41.6705ZM13.301 41.1801L13.4005 40.1851L13.3509 40.1801H13.301V41.1801ZM13.301 41.1801L13.2015 42.1751L13.2511 42.1801H13.301V41.1801ZM11.7585 40.766L12.5 40.095H12.5L11.7585 40.766ZM11.7585 31.234L12.5 31.905H12.5L11.7585 31.234ZM13.301 30.8199V29.8199H13.2511L13.2015 29.8249L13.301 30.8199ZM13.301 30.8199V31.8199H13.3509L13.4005 31.8149L13.301 30.8199ZM18.2057 30.3294L18.3052 31.3245H18.3052L18.2057 30.3294ZM20.8849 29.5316L19.9611 29.1489V29.1489L20.8849 29.5316ZM19.5546 27.0729L18.7806 27.7061L19.5546 27.0729ZM16.433 23.2576L15.659 23.8908H15.659L16.433 23.2576ZM15.6351 21.8741L14.6363 21.8243V21.8243L15.6351 21.8741ZM16.5667 20.5769L17.2738 21.284H17.2738L16.5667 20.5769ZM21.078 16.0655L20.3709 15.3584V15.3584L21.078 16.0655ZM22.3752 15.1339L22.4251 16.1327L22.4251 16.1327L22.3752 15.1339ZM23.7587 15.9318L24.392 15.1579V15.1579L23.7587 15.9318ZM27.5731 19.0527L28.2063 18.2787L27.5731 19.0527ZM30.0318 20.383L29.6491 19.4592H29.6491L30.0318 20.383ZM30.8296 17.7037L31.8247 17.8033V17.8033L30.8296 17.7037ZM31.3199 12.801L32.3149 12.9005L32.3199 12.8509V12.801H31.3199ZM31.3199 12.801L30.3249 12.7015L30.3199 12.7511V12.801H31.3199ZM31.734 11.2585L32.405 12V12L31.734 11.2585ZM41.266 11.2585L40.595 12V12L41.266 11.2585ZM42.6801 12.801V12.801H40.6801V12.801H42.6801ZM43.1655 17.6052L42.6751 12.7015L40.6851 12.9005L41.1754 17.8042L43.1655 17.6052ZM43.351 19.4601C43.5249 19.5322 43.4803 19.6738 43.3931 19.3271C43.3056 18.979 43.2506 18.4558 43.1655 17.6052L41.1754 17.8042C41.2537 18.5872 41.3213 19.2891 41.4536 19.8151C41.5862 20.3424 41.8589 21.0069 42.5856 21.3079L43.351 19.4601ZM44.7938 18.2797C44.1322 18.821 43.7233 19.1521 43.4153 19.3363C43.1085 19.5197 43.1771 19.3881 43.351 19.4601L42.5856 21.3079C43.3123 21.6089 43.975 21.3319 44.4417 21.0528C44.9072 20.7745 45.4513 20.3259 46.0603 19.8276L44.7938 18.2797ZM48.608 15.159L44.7938 18.2797L46.0603 19.8276L49.8744 16.7069L48.608 15.159ZM50.6745 14.1363C50.1997 14.1126 49.8153 14.2831 49.5092 14.474C49.2273 14.6498 48.9201 14.9036 48.608 15.159L49.8744 16.7069C50.228 16.4176 50.4202 16.2629 50.5674 16.1711C50.6904 16.0944 50.6648 16.1383 50.5748 16.1338L50.6745 14.1363ZM52.629 15.3595C52.3438 15.0743 52.0634 14.7912 51.8004 14.5883C51.5148 14.3679 51.1492 14.16 50.6745 14.1363L50.5748 16.1338C50.4849 16.1294 50.4638 16.0831 50.5786 16.1717C50.7159 16.2776 50.8917 16.4507 51.2148 16.7738L52.629 15.3595ZM57.1404 19.8709L52.629 15.3595L51.2148 16.7738L55.7261 21.2851L57.1404 19.8709ZM58.3636 21.8254C58.3399 21.3507 58.132 20.9851 57.9116 20.6995C57.7087 20.4365 57.4256 20.1561 57.1404 19.8709L55.7261 21.2851C56.0492 21.6082 56.2223 21.784 56.3282 21.9213C56.4168 22.0361 56.3706 22.015 56.3661 21.9251L58.3636 21.8254ZM57.3409 23.892C57.5963 23.5798 57.8501 23.2726 58.0259 22.9908C58.2168 22.6846 58.3873 22.3002 58.3636 21.8254L56.3661 21.9251C56.3616 21.8351 56.4055 21.8096 56.3288 21.9325C56.237 22.0797 56.0823 22.2719 55.793 22.6255L57.3409 23.892ZM54.2202 27.7062L57.3409 23.892L55.793 22.6255L52.6723 26.4397L54.2202 27.7062ZM53.0397 29.149C53.1117 29.3229 52.9801 29.3915 53.1636 29.0847C53.3478 28.7767 53.6789 28.3678 54.2202 27.7062L52.6723 26.4397C52.174 27.0487 51.7254 27.5928 51.4471 28.0583C51.168 28.525 50.8909 29.1876 51.192 29.9144L53.0397 29.149ZM54.8946 29.3345C54.0441 29.2494 53.5208 29.1944 53.1727 29.1069C52.8261 29.0196 52.9677 28.9751 53.0397 29.149L51.192 29.9144C51.493 30.6411 52.1575 30.9138 52.6848 31.0464C53.2107 31.1787 53.9127 31.2463 54.6956 31.3245L54.8946 29.3345ZM59.7985 29.8249L54.8946 29.3345L54.6956 31.3245L59.5995 31.8149L59.7985 29.8249ZM61.9829 30.563C61.6639 30.2105 61.2716 30.0592 60.9201 29.9777C60.5965 29.9027 60.1999 29.865 59.7985 29.8249L59.5995 31.8149C60.0541 31.8604 60.2994 31.8869 60.4684 31.9261C60.6095 31.9588 60.5604 31.9717 60.5 31.905L61.9829 30.563ZM62.5 32.81C62.5 32.4066 62.5019 32.0082 62.4595 31.6787C62.4134 31.3209 62.3019 30.9154 61.9829 30.563L60.5 31.905C60.4396 31.8382 60.4574 31.7906 60.4759 31.9344C60.4981 32.1064 60.5 32.3531 60.5 32.81H62.5ZM62.5 39.19V32.81H60.5V39.19H62.5ZM61.9829 41.437C62.3019 41.0846 62.4134 40.6791 62.4595 40.3213C62.5019 39.9918 62.5 39.5934 62.5 39.19H60.5C60.5 39.6469 60.4981 39.8936 60.4759 40.0656C60.4574 40.2094 60.4396 40.1618 60.5 40.095L61.9829 41.437ZM59.7985 42.1751C60.1999 42.135 60.5965 42.0973 60.9201 42.0223C61.2716 41.9408 61.6639 41.7895 61.9829 41.437L60.5 40.095C60.5604 40.0283 60.6095 40.0412 60.4684 40.0739C60.2994 40.1131 60.0541 40.1396 59.5995 40.1851L59.7985 42.1751ZM54.8956 42.6654L59.7985 42.1751L59.5995 40.1851L54.6966 40.6754L54.8956 42.6654ZM53.0407 42.8509C52.9686 43.0248 52.827 42.9803 53.1737 42.8931C53.5218 42.8055 54.045 42.7505 54.8956 42.6654L54.6966 40.6754C53.9136 40.7537 53.2117 40.8212 52.6857 40.9535C52.1584 41.0862 51.4939 41.3589 51.1929 42.0856L53.0407 42.8509ZM54.2211 44.2937C53.6798 43.6321 53.3487 43.2233 53.1645 42.9152C52.981 42.6084 53.1127 42.677 53.0407 42.8509L51.1929 42.0856C50.8919 42.8123 51.1689 43.4749 51.448 43.9416C51.7263 44.4071 52.1749 44.9512 52.6732 45.5602L54.2211 44.2937ZM57.341 48.1069L54.2211 44.2937L52.6732 45.5602L55.7931 49.3734L57.341 48.1069ZM58.3637 50.1735C58.3874 49.6987 58.2169 49.3143 58.026 49.0081C57.8503 48.7262 57.5965 48.4191 57.341 48.1069L55.7931 49.3734C56.0824 49.727 56.2371 49.9192 56.3289 50.0664C56.4056 50.1893 56.3617 50.1638 56.3662 50.0738L58.3637 50.1735ZM57.1405 52.128C57.4257 51.8427 57.7088 51.5624 57.9117 51.2994C58.1321 51.0138 58.34 50.6482 58.3637 50.1735L56.3662 50.0738C56.3707 49.9839 56.4169 49.9628 56.3284 50.0775C56.2224 50.2149 56.0493 50.3907 55.7263 50.7138L57.1405 52.128ZM52.6291 56.6393L57.1405 52.128L55.7263 50.7138L51.2149 55.2251L52.6291 56.6393ZM50.6746 57.8626C51.1494 57.8389 51.5149 57.631 51.8005 57.4106C52.0635 57.2077 52.3439 56.9246 52.6291 56.6393L51.2149 55.2251C50.8919 55.5482 50.716 55.7213 50.5787 55.8272C50.464 55.9158 50.485 55.8695 50.575 55.8651L50.6746 57.8626ZM48.6081 56.8399C48.9203 57.0953 49.2274 57.3491 49.5093 57.5249C49.8154 57.7158 50.1998 57.8862 50.6746 57.8626L50.575 55.8651C50.6649 55.8606 50.6905 55.9045 50.5675 55.8278C50.4203 55.736 50.2281 55.5813 49.8745 55.292L48.6081 56.8399ZM44.7939 53.7192L48.6081 56.8399L49.8745 55.292L46.0604 52.1713L44.7939 53.7192ZM43.3511 52.5387C43.1772 52.6108 43.1086 52.4791 43.4154 52.6626C43.7234 52.8468 44.1323 53.1779 44.7939 53.7192L46.0604 52.1713C45.4514 51.673 44.9073 51.2244 44.4418 50.9461C43.9751 50.667 43.3125 50.39 42.5857 50.691L43.3511 52.5387ZM43.1656 54.3937C43.2507 53.5431 43.3057 53.0199 43.3932 52.6718C43.4805 52.3251 43.525 52.4667 43.3511 52.5387L42.5857 50.691C41.859 50.992 41.5863 51.6565 41.4537 52.1838C41.3214 52.7098 41.2538 53.4117 41.1755 54.1946L43.1656 54.3937ZM42.6751 59.2985L43.1656 54.3937L41.1755 54.1947L40.6851 59.0995L42.6751 59.2985ZM41.937 61.4829C42.2895 61.1639 42.4408 60.7716 42.5223 60.4201C42.5973 60.0965 42.635 59.6999 42.6751 59.2985L40.6851 59.0995C40.6396 59.5541 40.6131 59.7994 40.5739 59.9684C40.5412 60.1095 40.5283 60.0604 40.595 60L41.937 61.4829ZM39.69 62C40.0934 62 40.4918 62.0019 40.8213 61.9595C41.1791 61.9134 41.5846 61.8019 41.937 61.4829L40.595 60C40.6618 59.9396 40.7094 59.9574 40.5656 59.9759C40.3936 59.9981 40.1469 60 39.69 60V62ZM33.31 62H39.69V60H33.31V62ZM31.063 61.4829C31.4154 61.8019 31.8209 61.9134 32.1787 61.9595C32.5082 62.0019 32.9066 62 33.31 62V60C32.8531 60 32.6064 59.9981 32.4344 59.9759C32.2906 59.9574 32.3382 59.9396 32.405 60L31.063 61.4829ZM30.3249 59.2985C30.365 59.6999 30.4027 60.0965 30.4777 60.4201C30.5592 60.7716 30.7105 61.1639 31.063 61.4829L32.405 60C32.4717 60.0604 32.4588 60.1095 32.4261 59.9684C32.3869 59.7994 32.3604 59.5541 32.3149 59.0995L30.3249 59.2985ZM29.8345 54.3946L30.3249 59.2985L32.3149 59.0995L31.8246 54.1956L29.8345 54.3946ZM29.649 52.5397C29.4751 52.4677 29.5196 52.3261 29.6069 52.6728C29.6944 53.0208 29.7494 53.5441 29.8345 54.3946L31.8246 54.1956C31.7463 53.4127 31.6787 52.7107 31.5464 52.1848C31.4138 51.6575 31.1411 50.993 30.4144 50.692L29.649 52.5397ZM28.2062 53.7202C28.8678 53.1789 29.2767 52.8478 29.5847 52.6636C29.8915 52.4801 29.8229 52.6118 29.649 52.5397L30.4144 50.692C29.6876 50.391 29.025 50.668 28.5583 50.9471C28.0928 51.2254 27.5487 51.674 26.9397 52.1723L28.2062 53.7202ZM24.3918 56.841L28.2062 53.7202L26.9397 52.1723L23.1254 55.2931L24.3918 56.841ZM22.3253 57.8637C22.8001 57.8874 23.1845 57.7169 23.4906 57.526C23.7725 57.3502 24.0797 57.0965 24.3918 56.841L23.1254 55.2931C22.7718 55.5824 22.5796 55.7371 22.4324 55.8289C22.3094 55.9056 22.335 55.8617 22.4249 55.8662L22.3253 57.8637ZM20.3708 56.6405C20.656 56.9257 20.9364 57.2088 21.1994 57.4117C21.485 57.6321 21.8506 57.84 22.3253 57.8637L22.425 55.8662C22.5149 55.8707 22.536 55.9169 22.4212 55.8284C22.2839 55.7224 22.1081 55.5493 21.785 55.2263L20.3708 56.6405ZM15.8594 52.1291L20.3708 56.6405L21.785 55.2263L17.2736 50.7149L15.8594 52.1291ZM14.6362 50.1746C14.6599 50.6493 14.8678 51.0149 15.0882 51.3005C15.2911 51.5635 15.5742 51.8439 15.8594 52.1291L17.2736 50.7149C16.9506 50.3919 16.7775 50.216 16.6715 50.0787C16.583 49.964 16.6292 49.985 16.6337 50.075L14.6362 50.1746ZM15.6589 48.1081C15.4035 48.4203 15.1497 48.7274 14.9739 49.0093C14.783 49.3154 14.6125 49.6998 14.6362 50.1746L16.6337 50.075C16.6382 50.1649 16.5943 50.1905 16.671 50.0675C16.7628 49.9203 16.9175 49.7281 17.2068 49.3745L15.6589 48.1081ZM18.7797 44.2938L15.6589 48.1081L17.2068 49.3745L20.3276 45.5603L18.7797 44.2938ZM19.9601 42.851C19.8881 42.6771 20.0197 42.6085 19.8363 42.9153C19.6521 43.2233 19.321 43.6322 18.7797 44.2938L20.3276 45.5603C20.8259 44.9513 21.2744 44.4072 21.5528 43.9417C21.8319 43.475 22.1089 42.8123 21.8079 42.0856L19.9601 42.851ZM18.1052 42.6655C18.9558 42.7506 19.479 42.8056 19.8271 42.8931C20.1738 42.9803 20.0321 43.0249 19.9601 42.851L21.8079 42.0856C21.5069 41.3589 20.8424 41.0862 20.315 40.9536C19.7891 40.8213 19.0872 40.7537 18.3042 40.6754L18.1052 42.6655ZM13.2015 42.1751L18.1052 42.6655L18.3042 40.6754L13.4005 40.1851L13.2015 42.1751ZM13.301 42.1801H13.301V40.1801H13.301V42.1801ZM11.0171 41.437C11.3361 41.7895 11.7284 41.9408 12.0799 42.0222C12.4035 42.0973 12.8001 42.135 13.2015 42.1751L13.4005 40.1851C12.9459 40.1396 12.7006 40.1131 12.5316 40.0739C12.3905 40.0412 12.4396 40.0283 12.5 40.095L11.0171 41.437ZM10.5 39.19C10.5 39.5934 10.4981 39.9918 10.5405 40.3213C10.5866 40.6791 10.6981 41.0846 11.0171 41.437L12.5 40.095C12.5604 40.1618 12.5426 40.2094 12.5241 40.0656C12.5019 39.8936 12.5 39.6469 12.5 39.19H10.5ZM10.5 32.81V39.19H12.5V32.81H10.5ZM11.0171 30.563C10.6981 30.9154 10.5866 31.3209 10.5405 31.6787C10.4981 32.0082 10.5 32.4066 10.5 32.81H12.5C12.5 32.3531 12.5019 32.1064 12.5241 31.9344C12.5426 31.7906 12.5604 31.8382 12.5 31.905L11.0171 30.563ZM13.2015 29.8249C12.8001 29.865 12.4035 29.9027 12.0799 29.9777C11.7284 30.0592 11.3361 30.2105 11.0171 30.563L12.5 31.905C12.4396 31.9717 12.3905 31.9588 12.5316 31.9261C12.7006 31.8869 12.9459 31.8604 13.4005 31.8149L13.2015 29.8249ZM13.301 29.8199H13.301V31.8199H13.301V29.8199ZM18.1062 29.3344L13.2015 29.8249L13.4005 31.8149L18.3052 31.3245L18.1062 29.3344ZM19.9611 29.1489C20.0331 28.975 20.1747 29.0196 19.828 29.1068C19.4799 29.1943 18.9567 29.2493 18.1062 29.3344L18.3052 31.3245C19.0881 31.2462 19.7901 31.1787 20.316 31.0463C20.8433 30.9137 21.5078 30.641 21.8088 29.9143L19.9611 29.1489ZM18.7806 27.7061C19.3219 28.3677 19.653 28.7766 19.8372 29.0846C20.0207 29.3914 19.889 29.3228 19.9611 29.1489L21.8088 29.9143C22.1098 29.1876 21.8328 28.5249 21.5537 28.0582C21.2754 27.5927 20.8268 27.0486 20.3285 26.4396L18.7806 27.7061ZM15.659 23.8908L18.7806 27.7061L20.3285 26.4396L17.2069 22.6244L15.659 23.8908ZM14.6363 21.8243C14.6126 22.2991 14.7831 22.6835 14.974 22.9896C15.1498 23.2715 15.4036 23.5786 15.659 23.8908L17.2069 22.6244C16.9176 22.2708 16.7629 22.0786 16.6711 21.9314C16.5944 21.8084 16.6383 21.834 16.6338 21.9239L14.6363 21.8243ZM15.8596 19.8698C15.5743 20.155 15.2912 20.4354 15.0883 20.6984C14.8679 20.984 14.66 21.3495 14.6363 21.8243L16.6338 21.9239C16.6294 22.0139 16.5831 22.0349 16.6717 21.9202C16.7776 21.7829 16.9507 21.607 17.2738 21.284L15.8596 19.8698ZM20.3709 15.3584L15.8595 19.8698L17.2738 21.284L21.7851 16.7726L20.3709 15.3584ZM22.3254 14.1352C21.8507 14.1589 21.4851 14.3668 21.1995 14.5871C20.9365 14.7901 20.6561 15.0732 20.3709 15.3584L21.7851 16.7726C22.1082 16.4496 22.284 16.2765 22.4213 16.1705C22.5361 16.082 22.515 16.1282 22.4251 16.1327L22.3254 14.1352ZM24.392 15.1579C24.0798 14.9024 23.7726 14.6486 23.4908 14.4729C23.1846 14.282 22.8002 14.1115 22.3254 14.1352L22.4251 16.1327C22.3351 16.1372 22.3096 16.0933 22.4325 16.17C22.5797 16.2618 22.7719 16.4165 23.1255 16.7058L24.392 15.1579ZM28.2063 18.2787L24.392 15.1579L23.1255 16.7058L26.9398 19.8266L28.2063 18.2787ZM29.6491 19.4592C29.823 19.3871 29.8916 19.5188 29.5848 19.3353C29.2768 19.1511 28.8679 18.82 28.2063 18.2787L26.9398 19.8266C27.5488 20.3249 28.0929 20.7735 28.5584 21.0518C29.0251 21.3309 29.6878 21.6079 30.4145 21.3069L29.6491 19.4592ZM29.8346 17.6042C29.7495 18.4548 29.6945 18.978 29.607 19.3261C29.5198 19.6728 29.4752 19.5312 29.6491 19.4592L30.4145 21.3069C31.1412 21.0059 31.4139 20.3414 31.5465 19.8141C31.6788 19.2881 31.7464 18.5862 31.8247 17.8033L29.8346 17.6042ZM30.3249 12.7015L29.8346 17.6042L31.8247 17.8033L32.3149 12.9005L30.3249 12.7015ZM30.3199 12.801V12.801H32.3199V12.801H30.3199ZM31.063 10.5171C30.7105 10.8361 30.5592 11.2284 30.4778 11.5799C30.4027 11.9035 30.365 12.3001 30.3249 12.7015L32.3149 12.9005C32.3604 12.4459 32.3869 12.2006 32.4261 12.0316C32.4588 11.8905 32.4717 11.9396 32.405 12L31.063 10.5171ZM33.31 10C32.9066 10 32.5082 9.99806 32.1787 10.0405C31.8209 10.0866 31.4154 10.1981 31.063 10.5171L32.405 12C32.3382 12.0604 32.2906 12.0426 32.4344 12.0241C32.6064 12.0019 32.8531 12 33.31 12V10ZM39.69 10H33.31V12H39.69V10ZM41.937 10.5171C41.5846 10.1981 41.1791 10.0866 40.8213 10.0405C40.4918 9.99806 40.0934 10 39.69 10V12C40.1469 12 40.3936 12.0019 40.5656 12.0241C40.7094 12.0426 40.6618 12.0604 40.595 12L41.937 10.5171ZM42.6751 12.7015C42.635 12.3001 42.5973 11.9035 42.5222 11.5799C42.4408 11.2284 42.2895 10.8361 41.937 10.5171L40.595 12C40.5283 11.9396 40.5412 11.8905 40.5739 12.0316C40.6131 12.2006 40.6396 12.4459 40.6851 12.9005L42.6751 12.7015ZM45.5 36C45.5 40.9706 41.4706 45 36.5 45V47C42.5751 47 47.5 42.0751 47.5 36H45.5ZM36.5 27C41.4706 27 45.5 31.0294 45.5 36H47.5C47.5 29.9249 42.5751 25 36.5 25V27ZM27.5 36C27.5 31.0294 31.5294 27 36.5 27V25C30.4249 25 25.5 29.9249 25.5 36H27.5ZM36.5 45C31.5294 45 27.5 40.9706 27.5 36H25.5C25.5 42.0751 30.4249 47 36.5 47V45Z" fill="white"/>
<path d="M41.6801 12.801H40.6801V12.8509L40.6851 12.9005L41.6801 12.801ZM41.6801 12.801H42.6801V12.7511L42.6751 12.7015L41.6801 12.801ZM42.1705 17.7047L41.1754 17.8042V17.8042L42.1705 17.7047ZM42.9683 20.384L43.351 19.4601L43.351 19.4601L42.9683 20.384ZM45.427 19.0536L44.7938 18.2797L44.7938 18.2797L45.427 19.0536ZM49.2412 15.933L49.8744 16.7069L49.2412 15.933ZM50.6247 15.1351L50.6745 14.1363L50.6247 15.1351ZM51.9219 16.0667L51.2148 16.7738L51.9219 16.0667ZM56.4333 20.578L55.7261 21.2851L56.4333 20.578ZM57.3648 21.8752L58.3636 21.8254L58.3636 21.8254L57.3648 21.8752ZM56.567 23.2587L55.793 22.6255L56.567 23.2587ZM53.4462 27.073L52.6723 26.4397L53.4462 27.073ZM54.7951 30.3295L54.6956 31.3245H54.6956L54.7951 30.3295ZM59.699 30.8199L59.7985 29.8249H59.7985L59.699 30.8199ZM61.2415 31.234L60.5 31.905L60.5 31.905L61.2415 31.234ZM61.2415 40.766L60.5 40.095L60.5 40.095L61.2415 40.766ZM59.699 41.1801L59.7985 42.1751H59.7985L59.699 41.1801ZM54.7961 41.6704L54.6966 40.6754L54.7961 41.6704ZM52.1168 42.4682L51.1929 42.0856L51.1929 42.0856L52.1168 42.4682ZM53.4472 44.9269L52.6732 45.5602V45.5602L53.4472 44.9269ZM56.5671 48.7402L55.7931 49.3734L56.5671 48.7402ZM57.3649 50.1236L58.3637 50.1735L58.3637 50.1735L57.3649 50.1236ZM50.6248 56.8638L50.6746 57.8626H50.6746L50.6248 56.8638ZM49.2413 56.0659L48.6081 56.8399H48.6081L49.2413 56.0659ZM45.4271 52.9452L46.0604 52.1713H46.0604L45.4271 52.9452ZM42.9684 51.6149L42.5857 50.691L42.5857 50.691L42.9684 51.6149ZM42.1706 54.2942L41.1755 54.1946V54.1947L42.1706 54.2942ZM41.6801 59.199L42.6751 59.2985V59.2985L41.6801 59.199ZM41.266 60.7415L40.595 60L40.595 60L41.266 60.7415ZM31.734 60.7415L32.405 60L32.405 60L31.734 60.7415ZM31.3199 59.199L30.3249 59.2985V59.2985L31.3199 59.199ZM30.8295 54.2951L31.8246 54.1956L30.8295 54.2951ZM27.573 52.9462L28.2062 53.7202L27.573 52.9462ZM23.7586 56.0671L23.1254 55.2931L23.7586 56.0671ZM22.3751 56.8649L22.3253 57.8637L22.3253 57.8637L22.3751 56.8649ZM21.0779 55.9334L21.785 55.2263L21.0779 55.9334ZM16.5665 51.422L15.8594 52.1291L16.5665 51.422ZM15.635 50.1248L14.6362 50.1746L15.635 50.1248ZM16.4328 48.7413L15.6589 48.1081L15.6589 48.1081L16.4328 48.7413ZM19.5536 44.927L20.3276 45.5603V45.5603L19.5536 44.927ZM20.884 42.4683L21.8079 42.0856V42.0856L20.884 42.4683ZM18.2047 41.6705L18.3042 40.6754H18.3042L18.2047 41.6705ZM13.301 41.1801L13.4005 40.1851L13.3509 40.1801H13.301V41.1801ZM13.301 41.1801L13.2015 42.1751L13.2511 42.1801H13.301V41.1801ZM11.7585 40.766L12.5 40.095H12.5L11.7585 40.766ZM11.7585 31.234L12.5 31.905H12.5L11.7585 31.234ZM13.301 30.8199V29.8199H13.2511L13.2015 29.8249L13.301 30.8199ZM13.301 30.8199V31.8199H13.3509L13.4005 31.8149L13.301 30.8199ZM18.2057 30.3294L18.3052 31.3245H18.3052L18.2057 30.3294ZM20.8849 29.5316L19.9611 29.1489V29.1489L20.8849 29.5316ZM19.5546 27.0729L18.7806 27.7061L19.5546 27.0729ZM16.433 23.2576L15.659 23.8908H15.659L16.433 23.2576ZM15.6351 21.8741L14.6363 21.8243V21.8243L15.6351 21.8741ZM16.5667 20.5769L17.2738 21.284H17.2738L16.5667 20.5769ZM21.078 16.0655L20.3709 15.3584V15.3584L21.078 16.0655ZM22.3752 15.1339L22.4251 16.1327L22.4251 16.1327L22.3752 15.1339ZM23.7587 15.9318L24.392 15.1579V15.1579L23.7587 15.9318ZM27.5731 19.0527L28.2063 18.2787L27.5731 19.0527ZM30.0318 20.383L29.6491 19.4592H29.6491L30.0318 20.383ZM30.8296 17.7037L31.8247 17.8033V17.8033L30.8296 17.7037ZM31.3199 12.801L32.3149 12.9005L32.3199 12.8509V12.801H31.3199ZM31.3199 12.801L30.3249 12.7015L30.3199 12.7511V12.801H31.3199ZM31.734 11.2585L32.405 12V12L31.734 11.2585ZM41.266 11.2585L40.595 12V12L41.266 11.2585ZM42.6801 12.801V12.801H40.6801V12.801H42.6801ZM43.1655 17.6052L42.6751 12.7015L40.6851 12.9005L41.1754 17.8042L43.1655 17.6052ZM43.351 19.4601C43.5249 19.5322 43.4803 19.6738 43.3931 19.3271C43.3056 18.979 43.2506 18.4558 43.1655 17.6052L41.1754 17.8042C41.2537 18.5872 41.3213 19.2891 41.4536 19.8151C41.5862 20.3424 41.8589 21.0069 42.5856 21.3079L43.351 19.4601ZM44.7938 18.2797C44.1322 18.821 43.7233 19.1521 43.4153 19.3363C43.1085 19.5197 43.1771 19.3881 43.351 19.4601L42.5856 21.3079C43.3123 21.6089 43.975 21.3319 44.4417 21.0528C44.9072 20.7745 45.4513 20.3259 46.0603 19.8276L44.7938 18.2797ZM48.608 15.159L44.7938 18.2797L46.0603 19.8276L49.8744 16.7069L48.608 15.159ZM50.6745 14.1363C50.1997 14.1126 49.8153 14.2831 49.5092 14.474C49.2273 14.6498 48.9201 14.9036 48.608 15.159L49.8744 16.7069C50.228 16.4176 50.4202 16.2629 50.5674 16.1711C50.6904 16.0944 50.6648 16.1383 50.5748 16.1338L50.6745 14.1363ZM52.629 15.3595C52.3438 15.0743 52.0634 14.7912 51.8004 14.5883C51.5148 14.3679 51.1492 14.16 50.6745 14.1363L50.5748 16.1338C50.4849 16.1294 50.4638 16.0831 50.5786 16.1717C50.7159 16.2776 50.8917 16.4507 51.2148 16.7738L52.629 15.3595ZM57.1404 19.8709L52.629 15.3595L51.2148 16.7738L55.7261 21.2851L57.1404 19.8709ZM58.3636 21.8254C58.3399 21.3507 58.132 20.9851 57.9116 20.6995C57.7087 20.4365 57.4256 20.1561 57.1404 19.8709L55.7261 21.2851C56.0492 21.6082 56.2223 21.784 56.3282 21.9213C56.4168 22.0361 56.3706 22.015 56.3661 21.9251L58.3636 21.8254ZM57.3409 23.892C57.5963 23.5798 57.8501 23.2726 58.0259 22.9908C58.2168 22.6846 58.3873 22.3002 58.3636 21.8254L56.3661 21.9251C56.3616 21.8351 56.4055 21.8096 56.3288 21.9325C56.237 22.0797 56.0823 22.2719 55.793 22.6255L57.3409 23.892ZM54.2202 27.7062L57.3409 23.892L55.793 22.6255L52.6723 26.4397L54.2202 27.7062ZM53.0397 29.149C53.1117 29.3229 52.9801 29.3915 53.1636 29.0847C53.3478 28.7767 53.6789 28.3678 54.2202 27.7062L52.6723 26.4397C52.174 27.0487 51.7254 27.5928 51.4471 28.0583C51.168 28.525 50.8909 29.1876 51.192 29.9144L53.0397 29.149ZM54.8946 29.3345C54.0441 29.2494 53.5208 29.1944 53.1727 29.1069C52.8261 29.0196 52.9677 28.9751 53.0397 29.149L51.192 29.9144C51.493 30.6411 52.1575 30.9138 52.6848 31.0464C53.2107 31.1787 53.9127 31.2463 54.6956 31.3245L54.8946 29.3345ZM59.7985 29.8249L54.8946 29.3345L54.6956 31.3245L59.5995 31.8149L59.7985 29.8249ZM61.9829 30.563C61.6639 30.2105 61.2716 30.0592 60.9201 29.9777C60.5965 29.9027 60.1999 29.865 59.7985 29.8249L59.5995 31.8149C60.0541 31.8604 60.2994 31.8869 60.4684 31.9261C60.6095 31.9588 60.5604 31.9717 60.5 31.905L61.9829 30.563ZM62.5 32.81C62.5 32.4066 62.5019 32.0082 62.4595 31.6787C62.4134 31.3209 62.3019 30.9154 61.9829 30.563L60.5 31.905C60.4396 31.8382 60.4574 31.7906 60.4759 31.9344C60.4981 32.1064 60.5 32.3531 60.5 32.81H62.5ZM62.5 39.19V32.81H60.5V39.19H62.5ZM61.9829 41.437C62.3019 41.0846 62.4134 40.6791 62.4595 40.3213C62.5019 39.9918 62.5 39.5934 62.5 39.19H60.5C60.5 39.6469 60.4981 39.8936 60.4759 40.0656C60.4574 40.2094 60.4396 40.1618 60.5 40.095L61.9829 41.437ZM59.7985 42.1751C60.1999 42.135 60.5965 42.0973 60.9201 42.0223C61.2716 41.9408 61.6639 41.7895 61.9829 41.437L60.5 40.095C60.5604 40.0283 60.6095 40.0412 60.4684 40.0739C60.2994 40.1131 60.0541 40.1396 59.5995 40.1851L59.7985 42.1751ZM54.8956 42.6654L59.7985 42.1751L59.5995 40.1851L54.6966 40.6754L54.8956 42.6654ZM53.0407 42.8509C52.9686 43.0248 52.827 42.9803 53.1737 42.8931C53.5218 42.8055 54.045 42.7505 54.8956 42.6654L54.6966 40.6754C53.9136 40.7537 53.2117 40.8212 52.6857 40.9535C52.1584 41.0862 51.4939 41.3589 51.1929 42.0856L53.0407 42.8509ZM54.2211 44.2937C53.6798 43.6321 53.3487 43.2233 53.1645 42.9152C52.981 42.6084 53.1127 42.677 53.0407 42.8509L51.1929 42.0856C50.8919 42.8123 51.1689 43.4749 51.448 43.9416C51.7263 44.4071 52.1749 44.9512 52.6732 45.5602L54.2211 44.2937ZM57.341 48.1069L54.2211 44.2937L52.6732 45.5602L55.7931 49.3734L57.341 48.1069ZM58.3637 50.1735C58.3874 49.6987 58.2169 49.3143 58.026 49.0081C57.8503 48.7262 57.5965 48.4191 57.341 48.1069L55.7931 49.3734C56.0824 49.727 56.2371 49.9192 56.3289 50.0664C56.4056 50.1893 56.3617 50.1638 56.3662 50.0738L58.3637 50.1735ZM57.1405 52.128C57.4257 51.8427 57.7088 51.5624 57.9117 51.2994C58.1321 51.0138 58.34 50.6482 58.3637 50.1735L56.3662 50.0738C56.3707 49.9839 56.4169 49.9628 56.3284 50.0775C56.2224 50.2149 56.0493 50.3907 55.7263 50.7138L57.1405 52.128ZM52.6291 56.6393L57.1405 52.128L55.7263 50.7138L51.2149 55.2251L52.6291 56.6393ZM50.6746 57.8626C51.1494 57.8389 51.5149 57.631 51.8005 57.4106C52.0635 57.2077 52.3439 56.9246 52.6291 56.6393L51.2149 55.2251C50.8919 55.5482 50.716 55.7213 50.5787 55.8272C50.464 55.9158 50.485 55.8695 50.575 55.8651L50.6746 57.8626ZM48.6081 56.8399C48.9203 57.0953 49.2274 57.3491 49.5093 57.5249C49.8154 57.7158 50.1998 57.8862 50.6746 57.8626L50.575 55.8651C50.6649 55.8606 50.6905 55.9045 50.5675 55.8278C50.4203 55.736 50.2281 55.5813 49.8745 55.292L48.6081 56.8399ZM44.7939 53.7192L48.6081 56.8399L49.8745 55.292L46.0604 52.1713L44.7939 53.7192ZM43.3511 52.5387C43.1772 52.6108 43.1086 52.4791 43.4154 52.6626C43.7234 52.8468 44.1323 53.1779 44.7939 53.7192L46.0604 52.1713C45.4514 51.673 44.9073 51.2244 44.4418 50.9461C43.9751 50.667 43.3125 50.39 42.5857 50.691L43.3511 52.5387ZM43.1656 54.3937C43.2507 53.5431 43.3057 53.0199 43.3932 52.6718C43.4805 52.3251 43.525 52.4667 43.3511 52.5387L42.5857 50.691C41.859 50.992 41.5863 51.6565 41.4537 52.1838C41.3214 52.7098 41.2538 53.4117 41.1755 54.1946L43.1656 54.3937ZM42.6751 59.2985L43.1656 54.3937L41.1755 54.1947L40.6851 59.0995L42.6751 59.2985ZM41.937 61.4829C42.2895 61.1639 42.4408 60.7716 42.5223 60.4201C42.5973 60.0965 42.635 59.6999 42.6751 59.2985L40.6851 59.0995C40.6396 59.5541 40.6131 59.7994 40.5739 59.9684C40.5412 60.1095 40.5283 60.0604 40.595 60L41.937 61.4829ZM39.69 62C40.0934 62 40.4918 62.0019 40.8213 61.9595C41.1791 61.9134 41.5846 61.8019 41.937 61.4829L40.595 60C40.6618 59.9396 40.7094 59.9574 40.5656 59.9759C40.3936 59.9981 40.1469 60 39.69 60V62ZM33.31 62H39.69V60H33.31V62ZM31.063 61.4829C31.4154 61.8019 31.8209 61.9134 32.1787 61.9595C32.5082 62.0019 32.9066 62 33.31 62V60C32.8531 60 32.6064 59.9981 32.4344 59.9759C32.2906 59.9574 32.3382 59.9396 32.405 60L31.063 61.4829ZM30.3249 59.2985C30.365 59.6999 30.4027 60.0965 30.4777 60.4201C30.5592 60.7716 30.7105 61.1639 31.063 61.4829L32.405 60C32.4717 60.0604 32.4588 60.1095 32.4261 59.9684C32.3869 59.7994 32.3604 59.5541 32.3149 59.0995L30.3249 59.2985ZM29.8345 54.3946L30.3249 59.2985L32.3149 59.0995L31.8246 54.1956L29.8345 54.3946ZM29.649 52.5397C29.4751 52.4677 29.5196 52.3261 29.6069 52.6728C29.6944 53.0208 29.7494 53.5441 29.8345 54.3946L31.8246 54.1956C31.7463 53.4127 31.6787 52.7107 31.5464 52.1848C31.4138 51.6575 31.1411 50.993 30.4144 50.692L29.649 52.5397ZM28.2062 53.7202C28.8678 53.1789 29.2767 52.8478 29.5847 52.6636C29.8915 52.4801 29.8229 52.6118 29.649 52.5397L30.4144 50.692C29.6876 50.391 29.025 50.668 28.5583 50.9471C28.0928 51.2254 27.5487 51.674 26.9397 52.1723L28.2062 53.7202ZM24.3918 56.841L28.2062 53.7202L26.9397 52.1723L23.1254 55.2931L24.3918 56.841ZM22.3253 57.8637C22.8001 57.8874 23.1845 57.7169 23.4906 57.526C23.7725 57.3502 24.0797 57.0965 24.3918 56.841L23.1254 55.2931C22.7718 55.5824 22.5796 55.7371 22.4324 55.8289C22.3094 55.9056 22.335 55.8617 22.4249 55.8662L22.3253 57.8637ZM20.3708 56.6405C20.656 56.9257 20.9364 57.2088 21.1994 57.4117C21.485 57.6321 21.8506 57.84 22.3253 57.8637L22.425 55.8662C22.5149 55.8707 22.536 55.9169 22.4212 55.8284C22.2839 55.7224 22.1081 55.5493 21.785 55.2263L20.3708 56.6405ZM15.8594 52.1291L20.3708 56.6405L21.785 55.2263L17.2736 50.7149L15.8594 52.1291ZM14.6362 50.1746C14.6599 50.6493 14.8678 51.0149 15.0882 51.3005C15.2911 51.5635 15.5742 51.8439 15.8594 52.1291L17.2736 50.7149C16.9506 50.3919 16.7775 50.216 16.6715 50.0787C16.583 49.964 16.6292 49.985 16.6337 50.075L14.6362 50.1746ZM15.6589 48.1081C15.4035 48.4203 15.1497 48.7274 14.9739 49.0093C14.783 49.3154 14.6125 49.6998 14.6362 50.1746L16.6337 50.075C16.6382 50.1649 16.5943 50.1905 16.671 50.0675C16.7628 49.9203 16.9175 49.7281 17.2068 49.3745L15.6589 48.1081ZM18.7797 44.2938L15.6589 48.1081L17.2068 49.3745L20.3276 45.5603L18.7797 44.2938ZM19.9601 42.851C19.8881 42.6771 20.0197 42.6085 19.8363 42.9153C19.6521 43.2233 19.321 43.6322 18.7797 44.2938L20.3276 45.5603C20.8259 44.9513 21.2744 44.4072 21.5528 43.9417C21.8319 43.475 22.1089 42.8123 21.8079 42.0856L19.9601 42.851ZM18.1052 42.6655C18.9558 42.7506 19.479 42.8056 19.8271 42.8931C20.1738 42.9803 20.0321 43.0249 19.9601 42.851L21.8079 42.0856C21.5069 41.3589 20.8424 41.0862 20.315 40.9536C19.7891 40.8213 19.0872 40.7537 18.3042 40.6754L18.1052 42.6655ZM13.2015 42.1751L18.1052 42.6655L18.3042 40.6754L13.4005 40.1851L13.2015 42.1751ZM13.301 42.1801H13.301V40.1801H13.301V42.1801ZM11.0171 41.437C11.3361 41.7895 11.7284 41.9408 12.0799 42.0222C12.4035 42.0973 12.8001 42.135 13.2015 42.1751L13.4005 40.1851C12.9459 40.1396 12.7006 40.1131 12.5316 40.0739C12.3905 40.0412 12.4396 40.0283 12.5 40.095L11.0171 41.437ZM10.5 39.19C10.5 39.5934 10.4981 39.9918 10.5405 40.3213C10.5866 40.6791 10.6981 41.0846 11.0171 41.437L12.5 40.095C12.5604 40.1618 12.5426 40.2094 12.5241 40.0656C12.5019 39.8936 12.5 39.6469 12.5 39.19H10.5ZM10.5 32.81V39.19H12.5V32.81H10.5ZM11.0171 30.563C10.6981 30.9154 10.5866 31.3209 10.5405 31.6787C10.4981 32.0082 10.5 32.4066 10.5 32.81H12.5C12.5 32.3531 12.5019 32.1064 12.5241 31.9344C12.5426 31.7906 12.5604 31.8382 12.5 31.905L11.0171 30.563ZM13.2015 29.8249C12.8001 29.865 12.4035 29.9027 12.0799 29.9777C11.7284 30.0592 11.3361 30.2105 11.0171 30.563L12.5 31.905C12.4396 31.9717 12.3905 31.9588 12.5316 31.9261C12.7006 31.8869 12.9459 31.8604 13.4005 31.8149L13.2015 29.8249ZM13.301 29.8199H13.301V31.8199H13.301V29.8199ZM18.1062 29.3344L13.2015 29.8249L13.4005 31.8149L18.3052 31.3245L18.1062 29.3344ZM19.9611 29.1489C20.0331 28.975 20.1747 29.0196 19.828 29.1068C19.4799 29.1943 18.9567 29.2493 18.1062 29.3344L18.3052 31.3245C19.0881 31.2462 19.7901 31.1787 20.316 31.0463C20.8433 30.9137 21.5078 30.641 21.8088 29.9143L19.9611 29.1489ZM18.7806 27.7061C19.3219 28.3677 19.653 28.7766 19.8372 29.0846C20.0207 29.3914 19.889 29.3228 19.9611 29.1489L21.8088 29.9143C22.1098 29.1876 21.8328 28.5249 21.5537 28.0582C21.2754 27.5927 20.8268 27.0486 20.3285 26.4396L18.7806 27.7061ZM15.659 23.8908L18.7806 27.7061L20.3285 26.4396L17.2069 22.6244L15.659 23.8908ZM14.6363 21.8243C14.6126 22.2991 14.7831 22.6835 14.974 22.9896C15.1498 23.2715 15.4036 23.5786 15.659 23.8908L17.2069 22.6244C16.9176 22.2708 16.7629 22.0786 16.6711 21.9314C16.5944 21.8084 16.6383 21.834 16.6338 21.9239L14.6363 21.8243ZM15.8596 19.8698C15.5743 20.155 15.2912 20.4354 15.0883 20.6984C14.8679 20.984 14.66 21.3495 14.6363 21.8243L16.6338 21.9239C16.6294 22.0139 16.5831 22.0349 16.6717 21.9202C16.7776 21.7829 16.9507 21.607 17.2738 21.284L15.8596 19.8698ZM20.3709 15.3584L15.8595 19.8698L17.2738 21.284L21.7851 16.7726L20.3709 15.3584ZM22.3254 14.1352C21.8507 14.1589 21.4851 14.3668 21.1995 14.5871C20.9365 14.7901 20.6561 15.0732 20.3709 15.3584L21.7851 16.7726C22.1082 16.4496 22.284 16.2765 22.4213 16.1705C22.5361 16.082 22.515 16.1282 22.4251 16.1327L22.3254 14.1352ZM24.392 15.1579C24.0798 14.9024 23.7726 14.6486 23.4908 14.4729C23.1846 14.282 22.8002 14.1115 22.3254 14.1352L22.4251 16.1327C22.3351 16.1372 22.3096 16.0933 22.4325 16.17C22.5797 16.2618 22.7719 16.4165 23.1255 16.7058L24.392 15.1579ZM28.2063 18.2787L24.392 15.1579L23.1255 16.7058L26.9398 19.8266L28.2063 18.2787ZM29.6491 19.4592C29.823 19.3871 29.8916 19.5188 29.5848 19.3353C29.2768 19.1511 28.8679 18.82 28.2063 18.2787L26.9398 19.8266C27.5488 20.3249 28.0929 20.7735 28.5584 21.0518C29.0251 21.3309 29.6878 21.6079 30.4145 21.3069L29.6491 19.4592ZM29.8346 17.6042C29.7495 18.4548 29.6945 18.978 29.607 19.3261C29.5198 19.6728 29.4752 19.5312 29.6491 19.4592L30.4145 21.3069C31.1412 21.0059 31.4139 20.3414 31.5465 19.8141C31.6788 19.2881 31.7464 18.5862 31.8247 17.8033L29.8346 17.6042ZM30.3249 12.7015L29.8346 17.6042L31.8247 17.8033L32.3149 12.9005L30.3249 12.7015ZM30.3199 12.801V12.801H32.3199V12.801H30.3199ZM31.063 10.5171C30.7105 10.8361 30.5592 11.2284 30.4778 11.5799C30.4027 11.9035 30.365 12.3001 30.3249 12.7015L32.3149 12.9005C32.3604 12.4459 32.3869 12.2006 32.4261 12.0316C32.4588 11.8905 32.4717 11.9396 32.405 12L31.063 10.5171ZM33.31 10C32.9066 10 32.5082 9.99806 32.1787 10.0405C31.8209 10.0866 31.4154 10.1981 31.063 10.5171L32.405 12C32.3382 12.0604 32.2906 12.0426 32.4344 12.0241C32.6064 12.0019 32.8531 12 33.31 12V10ZM39.69 10H33.31V12H39.69V10ZM41.937 10.5171C41.5846 10.1981 41.1791 10.0866 40.8213 10.0405C40.4918 9.99806 40.0934 10 39.69 10V12C40.1469 12 40.3936 12.0019 40.5656 12.0241C40.7094 12.0426 40.6618 12.0604 40.595 12L41.937 10.5171ZM42.6751 12.7015C42.635 12.3001 42.5973 11.9035 42.5222 11.5799C42.4408 11.2284 42.2895 10.8361 41.937 10.5171L40.595 12C40.5283 11.9396 40.5412 11.8905 40.5739 12.0316C40.6131 12.2006 40.6396 12.4459 40.6851 12.9005L42.6751 12.7015ZM45.5 36C45.5 40.9706 41.4706 45 36.5 45V47C42.5751 47 47.5 42.0751 47.5 36H45.5ZM36.5 27C41.4706 27 45.5 31.0294 45.5 36H47.5C47.5 29.9249 42.5751 25 36.5 25V27ZM27.5 36C27.5 31.0294 31.5294 27 36.5 27V25C30.4249 25 25.5 29.9249 25.5 36H27.5ZM36.5 45C31.5294 45 27.5 40.9706 27.5 36H25.5C25.5 42.0751 30.4249 47 36.5 47V45Z" fill="#2091F9"/>
</svg>
